<svg width="33" height="46" viewBox="0 0 33 46" fill="none" xmlns="http://www.w3.org/2000/svg">
<path fill-rule="evenodd" clip-rule="evenodd" d="M31.6524 14.19H29.5743C29.2346 12.3419 28.5211 10.6196 27.5132 9.12623L28.9741 7.65001C29.5177 7.10072 29.5177 6.2024 28.9741 5.65311L27.4509 4.11396C26.9073 3.56467 26.0184 3.56467 25.4748 4.11396L24.0252 5.57873C22.5474 4.54881 20.843 3.82215 19.0027 3.4674V1.41328C19.0027 0.635117 18.3742 0 17.6042 0H15.4468C14.6767 0 14.0482 0.635117 14.0482 1.41328V3.47884C12.2193 3.83359 10.5149 4.56025 9.02574 5.59017L7.57618 4.11968C7.0326 3.57039 6.14362 3.57039 5.60003 4.11968L4.07121 5.65883C3.52763 6.20813 3.52763 7.10644 4.07121 7.65573L5.53209 9.13195C4.52419 10.6253 3.81074 12.3476 3.471 14.1957H1.39859C0.628518 14.2014 0 14.8366 0 15.609V17.7833C0 18.5614 0.628518 19.1966 1.39859 19.1966H3.49931C3.85038 21.039 4.56949 22.7383 5.57739 24.2203L4.07687 25.7365C3.53329 26.2858 3.53329 27.1842 4.07687 27.7334L5.60003 29.2726C6.14362 29.8219 7.0326 29.8219 7.57618 29.2726L9.08236 27.7506C9.59763 28.1054 10.1356 28.4258 10.7018 28.7061V23.6996C8.69732 22.0174 7.42896 19.4769 7.42896 16.6389C7.42896 11.5637 11.5002 7.44403 16.5283 7.44403C21.5508 7.44403 25.6277 11.5523 25.6277 16.6389C25.6277 19.4769 24.3536 22.0174 22.3548 23.6996V28.7061C22.9211 28.4258 23.4647 28.1111 23.9743 27.7506L25.4804 29.2726C26.024 29.8219 26.913 29.8219 27.4566 29.2726L28.9798 27.7334C29.5233 27.1842 29.5233 26.2858 28.9798 25.7365L27.4792 24.226C28.4871 22.7383 29.2062 21.039 29.5573 19.2023H31.658C32.2922 19.2023 32.8245 18.7731 33 18.1895V15.2428C32.8415 14.6363 32.2922 14.19 31.6524 14.19ZM20.1239 11.661C19.8861 11.4836 19.552 11.6495 19.552 11.9528V14.5791C19.552 15.8207 18.5554 16.8277 17.321 16.8277H15.7299C14.5012 16.8277 13.499 15.8207 13.499 14.5791V11.9528C13.499 11.6553 13.1649 11.4836 12.9271 11.661C11.4379 12.771 10.4696 14.5676 10.4696 16.5817C10.4696 18.5614 11.4039 20.318 12.8478 21.4395C13.4876 21.9373 13.8557 22.6926 13.8557 23.5051V43.085C13.8557 44.5726 15.0561 45.7742 16.5283 45.7742C18.0062 45.7742 19.2009 44.5669 19.2009 43.085V23.4936C19.2009 22.6811 19.569 21.9258 20.2088 21.428C21.6527 20.3066 22.587 18.55 22.587 16.5703C22.5813 14.5619 21.6187 12.771 20.1239 11.661ZM17.3041 42.7359C17.3041 43.1651 16.953 43.5198 16.5283 43.5198C16.1036 43.5198 15.7526 43.1651 15.7526 42.7359V22.7555C15.7526 22.3264 16.1036 21.9716 16.5283 21.9716C16.953 21.9716 17.3041 22.3264 17.3041 22.7555V42.7359Z" fill="white"/>
</svg>
