<?xml version="1.0" standalone="no"?>
<!DOCTYPE svg PUBLIC "-//W3C//DTD SVG 20010904//EN"
 "http://www.w3.org/TR/2001/REC-SVG-20010904/DTD/svg10.dtd">
<svg version="1.0" xmlns="http://www.w3.org/2000/svg"
 width="821.000000pt" height="1004.000000pt" viewBox="0 0 821.000000 1004.000000"
 preserveAspectRatio="xMidYMid meet">

<g transform="translate(0.000000,1004.000000) scale(0.100000,-0.100000)"
fill="#4598f5" stroke="none">
<path d="M3950 9634 c-426 -37 -724 -119 -1064 -292 -795 -405 -1319 -1153
-1421 -2031 -11 -91 -15 -239 -15 -536 0 -225 -3 -420 -6 -432 -5 -17 -16 -23
-53 -28 -158 -20 -266 -40 -340 -62 -234 -67 -487 -243 -645 -447 -148 -192
-222 -361 -269 -621 l-22 -120 0 -1805 0 -1805 23 -113 c101 -500 430 -881
893 -1037 222 -74 -15 -68 3069 -66 1521 2 2797 7 2835 11 542 67 1018 501
1124 1027 41 197 42 291 39 2098 -4 1926 0 1814 -68 2018 -72 212 -166 364
-330 527 -201 201 -420 320 -695 377 -73 16 -300 17 -2627 20 l-2547 3 -7 37
c-13 68 4 828 21 953 32 232 95 439 204 665 124 256 228 403 431 605 211 211
417 356 658 465 312 142 620 208 957 208 557 -1 1085 -206 1501 -584 322 -292
551 -669 664 -1091 38 -144 70 -355 70 -468 1 -106 14 -165 47 -208 52 -69
158 -91 240 -51 85 41 118 151 102 339 -67 785 -442 1462 -1067 1927 -353 263
-790 441 -1222 497 -117 15 -399 27 -480 20z m1915 -3697 c1035 -2 1040 -3
1117 -24 117 -33 208 -75 305 -139 156 -104 256 -221 338 -398 51 -109 71
-181 85 -301 14 -129 14 -3490 -1 -3610 -50 -413 -355 -744 -765 -830 -73 -15
-300 -17 -2834 -16 -2686 0 -2757 0 -2845 19 -184 40 -336 118 -468 241 -181
170 -272 367 -297 645 -16 170 -8 3524 9 3616 56 318 275 592 577 722 106 45
227 70 374 77 125 6 1882 5 4405 -2z"/>
<path d="M4050 4378 c-33 -18 -51 -37 -70 -73 l-25 -49 -5 -406 -5 -405 -61
-61 c-84 -83 -107 -145 -102 -269 6 -117 35 -182 119 -259 94 -88 211 -115
344 -81 298 77 365 481 111 662 l-30 21 0 403 c-1 403 -1 404 -24 444 -51 89
-162 121 -252 73z"/>
</g>
</svg>
