<svg width="34" height="30" viewBox="0 0 34 30" fill="none" xmlns="http://www.w3.org/2000/svg">
<path d="M21.7995 25.0742C21.7542 25.0307 21.6939 25.0063 21.631 25.0063H12.3687C12.3059 25.0063 12.2455 25.0307 12.2002 25.0743L9.08948 28.0716C9.04197 28.1174 9.01516 28.1805 9.01516 28.2465V28.9009C9.01516 29.035 9.12387 29.1437 9.25802 29.1437H24.742C24.8761 29.1437 24.9848 29.035 24.9848 28.9009V28.2465C24.9848 28.1805 24.958 28.1174 24.9104 28.0715L21.7995 25.0742Z" fill="white"/>
<path fill-rule="evenodd" clip-rule="evenodd" d="M33.3258 0H0.674465C0.302212 0 0 0.301921 0 0.674368V23.8092C0 24.182 0.302212 24.484 0.674465 24.484H33.3257C33.6981 24.484 34 24.182 34 23.8092V0.674368C34.0001 0.301921 33.6982 0 33.3258 0ZM17 23.2361C16.5905 23.2361 16.2584 22.9038 16.2584 22.4941C16.2584 22.0842 16.5905 21.7521 17 21.7521C17.4099 21.7521 17.7419 22.0842 17.7419 22.4941C17.7419 22.9039 17.4099 23.2361 17 23.2361ZM2.71408 20.2671H31.2862V3.20475H2.71408V20.2671Z" fill="white"/>
<path d="M11.6572 11.5825H14.9514C15.0611 11.5825 15.1501 11.4936 15.1501 11.3839V7.35826C15.1501 7.29823 15.123 7.2414 15.0762 7.20371C15.0296 7.16592 14.9685 7.15144 14.9096 7.16397L11.6154 7.87224C11.5239 7.89197 11.4585 7.97289 11.4585 8.06653V11.3839C11.4585 11.4935 11.5475 11.5825 11.6572 11.5825Z" fill="white"/>
<path d="M16.1856 17.0685L20.3582 17.9651C20.3721 17.968 20.3861 17.9695 20.4 17.9695C20.445 17.9695 20.4892 17.9542 20.5249 17.9253C20.5716 17.8877 20.5988 17.8308 20.5988 17.7708V12.66C20.5988 12.5502 20.5098 12.4613 20.4001 12.4613H16.2275C16.1178 12.4613 16.0289 12.5502 16.0289 12.66V16.8744C16.0287 16.9679 16.094 17.0488 16.1856 17.0685Z" fill="white"/>
<path d="M16.2276 11.5825H20.4002C20.5099 11.5825 20.5989 11.4936 20.5989 11.3838V6.27293C20.5989 6.2129 20.5718 6.15607 20.525 6.11838C20.4784 6.08059 20.417 6.06611 20.3584 6.07864L16.1858 6.97518C16.0943 6.9949 16.0289 7.07582 16.0289 7.16946V11.3838C16.029 11.4935 16.1179 11.5825 16.2276 11.5825Z" fill="white"/>
<path d="M11.6154 16.1716L14.9096 16.8799C14.9235 16.8828 14.9375 16.8842 14.9514 16.8842C14.9964 16.8842 15.0406 16.869 15.0762 16.8401C15.123 16.8024 15.1501 16.7456 15.1501 16.6856V12.6599C15.1501 12.5501 15.0611 12.4612 14.9514 12.4612H11.6572C11.5475 12.4612 11.4585 12.5501 11.4585 12.6599V15.9772C11.4585 16.071 11.5238 16.1519 11.6154 16.1716Z" fill="white"/>
</svg>
