<?xml version="1.0" standalone="no"?>
<!DOCTYPE svg PUBLIC "-//W3C//DTD SVG 20010904//EN"
 "http://www.w3.org/TR/2001/REC-SVG-20010904/DTD/svg10.dtd">
<svg version="1.0" xmlns="http://www.w3.org/2000/svg"
 width="963.000000pt" height="954.000000pt" viewBox="0 0 963.000000 954.000000"
 preserveAspectRatio="xMidYMid meet">

<g transform="translate(0.000000,954.000000) scale(0.100000,-0.100000)"
fill="#4598f5" stroke="none">
<path d="M2187 9478 c-3 -29 -17 -94 -31 -143 -14 -50 -30 -117 -34 -150 l-7
-59 -51 -11 c-72 -16 -230 -80 -353 -142 -69 -35 -112 -51 -125 -47 -10 4 -67
37 -125 74 -131 83 -207 122 -231 118 -10 -2 -199 -182 -420 -402 -374 -371
-401 -400 -395 -426 3 -16 44 -90 91 -165 47 -75 90 -147 96 -160 13 -30 -4
-82 -68 -200 -54 -101 -102 -219 -115 -289 l-11 -53 -72 -12 c-39 -7 -109 -23
-155 -36 -46 -14 -106 -28 -133 -31 l-48 -7 0 -598 c0 -575 1 -599 18 -599 11
0 90 -18 177 -40 87 -22 170 -40 185 -40 24 0 29 -5 35 -37 11 -61 123 -336
160 -394 19 -30 35 -64 35 -77 0 -30 -30 -88 -102 -196 -33 -48 -69 -110 -80
-137 l-21 -50 313 -317 c173 -174 355 -359 406 -411 l92 -94 48 18 c26 10 93
48 148 85 122 82 157 100 190 100 14 0 93 -34 177 -75 134 -67 221 -100 312
-119 23 -6 27 -11 27 -41 0 -19 16 -95 35 -169 19 -75 35 -149 35 -166 l0 -30
603 0 603 0 11 68 c7 37 24 109 38 161 14 51 25 111 25 132 0 34 3 39 28 45
90 20 229 73 376 144 57 27 115 50 130 50 55 0 79 -52 91 -195 7 -96 81 -405
136 -567 21 -65 79 -211 128 -327 80 -188 106 -235 260 -482 146 -233 171
-278 171 -312 0 -22 -16 -89 -35 -151 -104 -335 -474 -1720 -462 -1732 8 -8
121 18 350 80 223 61 296 78 379 90 l37 5 47 -87 c26 -48 115 -197 197 -332
175 -284 297 -494 297 -509 0 -6 3 -11 8 -11 4 0 128 344 276 765 148 421 272
765 276 765 4 0 47 -18 96 -41 122 -57 338 -143 421 -169 111 -35 149 -39 217
-25 84 18 283 91 460 170 81 36 150 65 154 65 4 0 129 -346 277 -769 l269
-769 16 36 c10 20 86 150 170 287 207 338 308 510 337 573 l24 52 42 -6 c78
-12 161 -31 412 -97 138 -36 265 -68 283 -71 52 -9 53 -13 -97 525 -180 648
-351 1277 -362 1332 l-11 56 72 102 c161 229 343 570 424 794 20 55 43 114 52
130 16 30 24 55 87 295 38 141 75 322 104 500 15 93 17 232 20 1238 l4 1132
-393 -1 c-368 -2 -409 -1 -638 25 -281 31 -554 81 -720 132 -334 103 -846 346
-1021 485 l-27 21 -94 -60 c-362 -230 -723 -395 -1048 -477 -36 -9 -73 -18
-82 -21 -17 -5 -18 8 -18 169 l0 174 -43 6 c-24 3 -93 20 -153 36 -60 16 -133
33 -162 37 -41 5 -52 10 -52 25 0 42 -54 184 -125 327 -41 84 -75 160 -75 169
0 19 31 73 111 195 31 48 65 108 74 133 l18 46 -308 312 c-170 172 -352 356
-405 410 l-96 98 -44 -16 c-25 -9 -91 -47 -146 -85 -122 -82 -155 -100 -187
-100 -13 0 -89 31 -168 68 -162 77 -243 109 -309 120 l-45 8 -7 62 c-4 35 -19
103 -33 151 -14 48 -28 111 -32 139 l-6 52 -602 0 -602 0 -6 -52z m957 -305
c8 -27 22 -86 31 -132 28 -139 43 -180 68 -186 274 -60 388 -104 658 -256 48
-27 92 -49 98 -49 6 0 62 31 124 70 63 38 131 77 151 85 l38 16 235 -234 235
-233 -22 -45 c-13 -24 -52 -91 -88 -149 -36 -58 -65 -110 -65 -117 0 -6 34
-71 76 -145 43 -74 97 -188 123 -258 26 -69 51 -131 57 -137 5 -7 15 -45 22
-85 7 -40 18 -92 24 -115 13 -48 12 -48 187 -83 55 -11 118 -26 140 -33 l39
-14 3 -71 3 -72 -33 -1 c-18 0 -157 -8 -308 -18 -151 -10 -276 -18 -277 -17
-1 1 -6 37 -12 82 -32 232 -137 538 -248 727 -319 539 -961 897 -1608 897
-757 0 -1478 -479 -1723 -1145 -16 -44 -44 -116 -62 -159 -63 -157 -74 -233
-74 -501 0 -261 7 -326 65 -544 66 -252 219 -560 329 -666 23 -22 67 -73 97
-112 71 -94 153 -168 283 -255 212 -143 516 -269 765 -318 487 -95 1066 49
1465 366 41 33 81 63 88 68 9 6 12 -36 12 -197 l0 -204 -32 -7 c-17 -3 -79
-33 -137 -66 -176 -98 -271 -138 -463 -192 -100 -29 -185 -53 -187 -55 -2 -1
-21 -77 -43 -169 -21 -93 -44 -174 -50 -181 -8 -10 -80 -13 -335 -13 l-324 0
-13 32 c-8 18 -24 80 -35 138 -29 139 -49 198 -69 204 -9 2 -35 7 -57 11 -132
21 -377 117 -562 221 -77 43 -142 73 -150 69 -9 -3 -54 -29 -102 -59 -87 -54
-184 -106 -197 -106 -4 0 -112 104 -240 232 l-233 231 13 32 c8 18 41 76 75
129 102 162 99 139 34 247 -89 150 -180 368 -224 535 -17 66 -37 129 -45 141
-16 26 -70 43 -134 43 -49 0 -122 18 -183 43 l-37 16 2 333 3 333 140 33 c77
19 158 39 180 45 l39 12 21 90 c44 189 126 402 201 522 24 39 54 92 65 117
l20 47 -24 52 c-13 29 -47 88 -76 131 -28 44 -54 90 -57 103 -5 19 12 43 104
141 61 64 164 170 230 236 99 98 123 117 141 111 11 -3 80 -42 152 -86 72 -43
136 -79 142 -79 5 0 71 33 146 74 218 119 384 186 536 216 89 17 92 18 104 48
6 15 22 81 36 147 14 66 30 135 36 153 l11 32 333 0 333 0 16 -47z m-89 -908
c170 -27 339 -87 489 -173 175 -99 371 -266 478 -407 84 -111 189 -293 208
-363 11 -37 33 -106 49 -155 31 -88 51 -185 51 -244 l0 -33 -145 0 -145 0 0
-522 c0 -495 -1 -525 -20 -566 -34 -74 -200 -236 -335 -324 -350 -231 -675
-321 -1015 -283 -287 33 -534 121 -730 259 -36 26 -78 54 -94 64 -49 29 -268
259 -325 340 -168 241 -271 582 -271 895 0 160 22 288 82 477 42 134 62 183
109 257 91 146 165 240 284 358 131 131 251 218 400 291 167 81 311 123 499
144 94 11 319 3 431 -15z m4220 -1325 c374 -183 530 -229 1090 -321 184 -31
202 -32 571 -36 l381 -5 6 -471 c9 -619 8 -976 -3 -1117 -5 -63 -14 -185 -20
-270 -14 -205 -34 -336 -75 -505 -97 -397 -268 -808 -452 -1090 -152 -233
-321 -439 -534 -656 -153 -155 -203 -195 -504 -400 -265 -180 -354 -229 -620
-339 l-180 -75 -110 0 c-107 0 -113 1 -215 44 -185 77 -441 206 -573 290 -571
359 -985 810 -1310 1429 -114 217 -249 602 -297 844 -73 368 -80 497 -80 1494
l0 821 383 6 c413 6 517 15 782 68 483 97 693 175 1153 427 l163 89 122 -64
c67 -35 212 -109 322 -163z m-2091 -4668 c259 -255 320 -306 561 -463 99 -65
191 -126 204 -135 39 -28 41 -16 -196 -769 -74 -236 -138 -434 -142 -438 -5
-4 -63 86 -131 200 -68 114 -174 294 -236 399 l-113 191 -282 -83 c-155 -46
-283 -83 -284 -81 -4 4 390 1397 394 1397 3 0 104 -98 225 -218z m3747 -490
c107 -383 194 -698 193 -700 -1 -2 -125 33 -276 77 -150 45 -278 81 -283 81
-6 0 -116 -180 -245 -399 -129 -220 -237 -397 -239 -395 -9 8 -321 1004 -345
1100 -23 91 -22 100 27 131 194 123 399 265 482 334 55 46 186 170 290 276
105 106 192 192 195 193 3 0 93 -314 201 -698z"/>
<path d="M7145 5096 l-620 -614 -153 150 -153 149 -297 -290 c-163 -159 -318
-311 -344 -338 l-48 -49 494 -499 493 -500 965 960 964 960 -335 343 c-185
188 -338 342 -341 342 -3 -1 -284 -277 -625 -614z m1009 -54 l20 -26 -819
-813 -819 -814 -104 103 c-57 57 -220 223 -363 370 l-260 266 181 178 c99 98
189 183 200 191 17 12 32 1 175 -138 l156 -152 42 40 c23 22 307 298 631 612
l590 572 175 -182 c96 -100 184 -193 195 -207z"/>
</g>
</svg>
