<?xml version="1.0" standalone="no"?>
<!DOCTYPE svg PUBLIC "-//W3C//DTD SVG 20010904//EN"
 "http://www.w3.org/TR/2001/REC-SVG-20010904/DTD/svg10.dtd">
<svg version="1.0" xmlns="http://www.w3.org/2000/svg"
 width="685.000000pt" height="721.000000pt" viewBox="0 0 685.000000 721.000000"
 preserveAspectRatio="xMidYMid meet">

<g transform="translate(0.000000,721.000000) scale(0.100000,-0.100000)"
fill="#4598f5" stroke="none">
<path d="M4411 7189 c-867 -97 -1592 -680 -1864 -1499 -25 -74 -51 -163 -57
-197 l-13 -63 -192 0 -192 0 -7 -161 c-8 -174 -25 -261 -57 -295 -12 -12 -66
-39 -122 -60 -56 -20 -150 -59 -210 -85 -234 -105 -289 -105 -386 -1 -51 54
-155 132 -210 157 -43 19 -43 19 -57 0 -37 -53 -128 -149 -218 -230 -199 -180
-275 -258 -325 -330 -70 -101 -70 -100 -24 -148 22 -23 86 -95 141 -160 l101
-118 -20 -52 c-11 -28 -48 -123 -81 -212 -98 -260 -127 -308 -203 -339 -41
-18 -147 -32 -298 -41 l-107 -7 0 -468 0 -468 68 -6 c137 -13 295 -37 345 -54
63 -21 63 -20 184 -301 119 -277 120 -287 15 -410 -26 -31 -66 -81 -89 -111
-23 -31 -53 -66 -67 -79 l-25 -24 142 -146 c119 -122 280 -289 477 -494 l36
-37 94 75 c52 42 129 107 171 145 l76 69 99 -34 c120 -40 320 -122 425 -175
l76 -39 11 -73 c6 -40 21 -144 33 -231 l22 -157 463 0 462 0 6 38 c3 20 15
109 26 197 11 88 23 175 26 193 4 29 14 37 92 76 94 47 385 165 469 189 51 15
51 15 75 -10 28 -31 177 -157 252 -213 l56 -42 334 327 335 328 -44 51 c-86
101 -180 222 -197 256 -24 47 -23 140 2 221 12 35 57 137 101 226 75 152 82
163 112 168 18 3 124 23 237 43 l205 37 3 211 2 211 103 27 c257 69 525 201
751 369 105 80 300 269 386 377 253 318 419 711 471 1120 16 122 16 408 0 530
-73 555 -348 1065 -761 1413 -313 263 -698 439 -1100 502 -125 19 -441 28
-559 14z m454 -99 c386 -43 747 -189 1070 -433 112 -85 297 -273 388 -394 488
-653 562 -1503 195 -2226 -211 -415 -532 -731 -953 -938 -124 -61 -321 -134
-412 -154 l-33 -7 0 205 0 205 -107 7 c-60 3 -146 12 -191 20 -140 23 -176 59
-263 270 -38 90 -100 239 -135 320 -12 29 -10 32 59 116 40 47 103 121 141
163 l70 77 -25 46 c-40 75 -126 170 -290 318 -150 137 -241 229 -285 291 l-21
29 -44 -24 c-24 -14 -99 -66 -166 -117 -67 -50 -143 -100 -168 -110 -44 -16
-49 -16 -103 1 -71 22 -379 156 -437 191 -30 17 -48 37 -59 65 -22 54 -44 187
-52 313 l-7 106 -229 0 -230 0 7 43 c14 84 97 314 159 441 311 638 918 1076
1621 1170 121 17 377 20 500 6z m-1900 -1987 c17 -116 32 -214 35 -216 4 -5
636 -286 651 -290 12 -4 203 127 285 195 l82 67 73 -63 c90 -76 461 -456 457
-467 -2 -4 -21 -27 -44 -51 -39 -41 -156 -189 -202 -255 l-23 -32 73 -143 c47
-94 94 -209 138 -338 l65 -195 145 -22 c80 -12 182 -27 228 -33 l82 -12 0
-369 c0 -203 -3 -369 -7 -369 -18 0 -435 -59 -438 -62 -2 -2 -28 -66 -58 -143
-31 -77 -88 -210 -127 -297 -39 -86 -74 -172 -77 -191 -8 -50 27 -116 142
-271 l95 -128 -240 -248 c-132 -136 -247 -253 -255 -260 -12 -10 -22 -8 -52
11 -48 29 -149 107 -232 181 -36 32 -70 58 -76 58 -16 0 -376 -146 -547 -221
l-136 -60 -12 -67 c-6 -37 -23 -137 -38 -222 l-27 -155 -354 -3 c-195 -1 -358
1 -363 6 -5 5 -26 96 -48 203 -22 107 -42 203 -45 215 -3 13 -29 33 -77 56
-145 73 -563 248 -591 248 -7 0 -53 -35 -102 -78 -50 -44 -124 -102 -165 -130
l-75 -51 -258 258 -259 258 62 89 c34 49 72 100 84 114 77 87 101 168 76 246
-7 22 -42 104 -78 184 -35 80 -87 201 -114 270 -28 69 -51 126 -52 127 -1 2
-425 63 -437 63 -5 0 -9 167 -9 370 0 289 3 370 13 370 34 1 405 58 414 63 15
9 47 80 185 400 l119 278 -38 52 c-75 103 -138 183 -185 232 -26 28 -47 55
-47 60 1 6 121 125 267 267 l267 256 65 -57 c103 -92 184 -147 236 -161 79
-22 143 -4 446 125 l274 118 28 201 c15 111 30 209 32 219 5 16 29 17 372 15
l366 -3 31 -212z"/>
<path d="M4115 6646 c-435 -215 -777 -552 -997 -985 -32 -62 -58 -119 -58
-125 0 -6 19 -19 43 -29 32 -14 43 -15 46 -5 2 7 30 65 63 127 212 414 548
739 973 942 58 28 105 52 105 55 0 12 -33 84 -39 84 -3 0 -64 -29 -136 -64z"/>
<path d="M4085 6212 c-50 -26 -122 -69 -160 -96 -93 -66 -248 -223 -313 -318
-56 -82 -135 -229 -127 -236 3 -3 22 -13 44 -23 l39 -17 36 72 c110 223 322
433 549 544 40 19 74 36 76 38 8 7 -32 84 -43 84 -6 0 -52 -22 -101 -48z"/>
<path d="M4580 5410 c-74 -16 -163 -66 -214 -120 -189 -202 -128 -519 121
-642 63 -31 74 -33 168 -33 128 1 191 24 275 102 87 80 123 158 128 277 4 110
-17 181 -78 262 -91 120 -256 184 -400 154z m215 -124 c185 -91 226 -336 82
-484 -64 -66 -108 -85 -207 -90 -81 -4 -88 -2 -150 30 -148 77 -207 243 -140
395 69 157 258 225 415 149z"/>
<path d="M6346 4793 c-29 -109 -84 -250 -147 -374 -168 -331 -412 -605 -719
-809 -36 -24 -66 -44 -68 -46 -2 -1 8 -21 22 -43 l26 -41 43 27 c326 210 601
512 774 849 76 148 124 271 179 465 3 12 -6 19 -40 28 -25 6 -46 11 -48 11 -2
0 -12 -30 -22 -67z"/>
<path d="M5925 4678 c-61 -183 -188 -385 -323 -508 -53 -49 -123 -104 -200
-156 -2 -1 8 -21 23 -43 l26 -42 76 53 c158 109 315 288 405 464 44 86 108
251 108 279 0 12 -55 35 -82 35 -3 0 -19 -37 -33 -82z"/>
<path d="M2440 4169 c-185 -19 -429 -99 -577 -187 -305 -184 -498 -462 -570
-822 -23 -116 -23 -371 0 -498 106 -574 506 -991 1035 -1078 127 -21 346 -14
487 16 297 63 579 230 757 448 214 261 310 547 295 872 -19 388 -182 716 -480
965 -80 67 -132 100 -242 155 -157 78 -273 113 -436 130 -113 11 -147 11 -269
-1z m430 -128 c232 -67 390 -160 546 -323 229 -240 345 -522 347 -843 1 -313
-105 -578 -322 -808 -170 -179 -403 -307 -661 -363 -65 -14 -127 -19 -260 -19
-151 0 -187 3 -263 23 -189 50 -338 131 -474 256 -181 169 -305 382 -369 638
-34 139 -44 370 -20 504 41 239 134 430 285 588 187 194 422 310 751 370 14 2
102 3 195 1 137 -2 184 -7 245 -24z"/>
<path d="M580 370 l0 -50 675 0 675 0 0 50 0 50 -675 0 -675 0 0 -50z"/>
<path d="M3220 370 l0 -50 1405 0 1405 0 0 50 0 50 -1405 0 -1405 0 0 -50z"/>
<path d="M800 60 l0 -50 2045 0 2045 0 0 50 0 50 -2045 0 -2045 0 0 -50z"/>
</g>
</svg>
