<?xml version="1.0" standalone="no"?>
<!DOCTYPE svg PUBLIC "-//W3C//DTD SVG 20010904//EN"
 "http://www.w3.org/TR/2001/REC-SVG-20010904/DTD/svg10.dtd">
<svg version="1.0" xmlns="http://www.w3.org/2000/svg"
 width="1228.000000pt" height="1127.000000pt" viewBox="0 0 1228.000000 1127.000000"
 preserveAspectRatio="xMidYMid meet">

<g transform="translate(0.000000,1127.000000) scale(0.100000,-0.100000)"
fill="#4598f5" stroke="none">
<path d="M8195 11260 c-290 -15 -596 -57 -805 -110 -195 -50 -514 -175 -678
-267 -102 -57 -247 -193 -280 -263 -73 -154 -33 -308 117 -461 271 -274 778
-455 1531 -546 209 -25 785 -25 990 0 572 71 1031 229 1303 446 222 179 292
372 201 559 -33 69 -151 190 -244 251 -304 199 -817 336 -1420 380 -206 15
-537 20 -715 11z m630 -260 c598 -40 1077 -150 1348 -311 211 -126 255 -259
126 -388 -185 -185 -675 -338 -1309 -408 -131 -14 -244 -18 -545 -18 -397 0
-508 8 -783 56 -512 89 -931 280 -997 454 -16 39 -16 51 -4 92 42 152 355 317
813 428 223 55 351 74 661 98 97 8 554 6 690 -3z"/>
<path d="M10445 9440 c-85 -22 -151 -47 -357 -134 -207 -87 -309 -121 -475
-156 -593 -124 -1407 -143 -1980 -44 -258 44 -462 103 -793 232 -85 33 -177
67 -205 75 -41 14 -160 37 -187 37 -12 0 -9 -120 3 -165 25 -89 64 -115 339
-220 450 -172 772 -229 1433 -256 294 -12 700 -1 995 26 754 69 1234 230 1355
454 33 60 47 148 26 162 -22 13 -77 10 -154 -11z"/>
<path d="M10440 8610 c-36 -10 -155 -53 -265 -95 -409 -156 -478 -177 -775
-229 -372 -66 -873 -93 -1220 -67 -469 36 -808 109 -1380 296 -157 51 -305 96
-329 100 l-44 7 8 -48 c34 -234 279 -368 921 -504 347 -73 611 -100 1041 -107
586 -9 945 28 1476 152 425 100 636 207 693 353 16 40 15 126 -1 152 -9 15
-51 11 -125 -10z"/>
<path d="M10462 7799 c-24 -4 -82 -26 -130 -48 -48 -21 -136 -61 -197 -89
-255 -115 -510 -178 -894 -222 -527 -59 -1182 -51 -1617 20 -258 42 -334 63
-679 192 -262 97 -392 138 -441 138 -38 0 -48 -19 -47 -91 2 -175 264 -325
733 -419 660 -133 1734 -155 2390 -49 145 23 486 108 610 151 260 91 390 215
390 371 l0 57 -37 -1 c-21 -1 -57 -5 -81 -10z"/>
<path d="M10449 6986 c-19 -7 -87 -40 -150 -73 -257 -137 -543 -224 -929 -282
-676 -101 -1537 -71 -2113 74 -188 48 -309 94 -459 177 -69 38 -144 74 -164
80 -73 20 -194 -15 -194 -56 0 -41 51 -128 104 -179 62 -60 191 -131 316 -175
115 -40 462 -127 601 -151 507 -87 1316 -93 1959 -16 625 76 1047 227 1142
409 15 28 22 60 22 100 1 51 -3 61 -27 82 -31 27 -55 29 -108 10z"/>
<path d="M10378 6130 c-249 -135 -391 -191 -643 -254 -786 -196 -1588 -194
-2390 5 -177 44 -301 81 -585 174 -140 45 -270 85 -287 89 -32 5 -33 5 -33
-32 0 -53 49 -149 103 -203 190 -190 607 -319 1247 -386 131 -14 263 -17 640
-18 484 0 585 5 910 45 563 70 993 206 1174 371 63 58 106 120 106 152 0 29
-103 107 -140 107 -6 0 -51 -23 -102 -50z"/>
<path d="M790 5219 c-320 -12 -696 -38 -767 -54 l-23 -5 0 -1990 0 -1989 29
-16 c50 -25 172 -54 276 -64 59 -6 396 -8 815 -5 594 3 725 7 775 19 83 21
108 42 116 96 4 24 12 728 18 1564 6 836 14 1710 18 1942 l6 423 -48 21 c-136
60 -583 82 -1215 58z m1018 -2066 l-3 -1798 -85 -9 c-47 -5 -337 -9 -645 -10
-477 -1 -574 2 -655 15 -52 9 -107 22 -123 28 l-27 11 -2 1410 c-2 775 -3
1573 -3 1773 l0 362 385 5 c212 3 559 6 773 8 l387 2 -2 -1797z"/>
<path d="M4490 4920 c-499 -23 -1130 -119 -1610 -246 -172 -46 -459 -139 -485
-158 -16 -11 -20 -29 -23 -90 l-4 -76 38 -16 c32 -13 64 -15 169 -11 143 5
239 27 570 126 259 79 676 157 1025 193 190 19 709 16 890 -6 378 -45 582
-109 1020 -316 270 -127 426 -192 630 -261 495 -166 1063 -265 1885 -329 429
-33 599 -56 821 -110 282 -68 463 -177 527 -318 50 -112 14 -303 -77 -408 -92
-105 -217 -141 -521 -151 -208 -6 -402 3 -1020 47 -225 16 -537 35 -693 41
-708 28 -1128 -51 -1314 -245 -27 -27 -48 -53 -48 -58 0 -5 16 -34 36 -63 45
-69 57 -74 449 -215 662 -238 964 -326 1337 -390 562 -95 1264 -67 1736 69
350 101 749 303 1159 585 367 254 527 329 728 343 98 6 247 -17 277 -44 19
-17 20 -26 15 -133 -7 -132 -33 -237 -79 -320 -48 -86 -36 -71 -455 -550 -294
-336 -510 -530 -863 -775 -91 -62 -199 -132 -240 -154 -300 -160 -1276 -371
-2470 -535 -440 -61 -540 -69 -790 -63 -241 6 -356 19 -555 67 -335 80 -603
193 -1160 492 -310 167 -847 437 -1178 594 -616 293 -1098 484 -1422 565 -156
39 -323 50 -389 25 l-44 -17 5 -57 c11 -113 10 -111 255 -181 633 -181 1068
-367 2238 -955 1108 -557 1365 -668 1731 -750 444 -98 773 -85 1564 64 402 76
541 99 890 150 1094 160 1507 315 1985 742 192 171 890 884 1003 1025 129 160
192 297 223 488 33 203 5 314 -107 430 -204 212 -437 227 -806 50 -133 -63
-225 -116 -553 -320 -324 -201 -434 -263 -625 -356 -392 -190 -744 -259 -1324
-259 -682 0 -1362 120 -1781 312 -120 55 -242 138 -204 138 3 0 50 9 103 20
245 50 549 46 1271 -15 573 -48 773 -58 1020 -52 574 15 842 141 947 444 23
68 27 93 27 203 0 292 -118 477 -392 614 -283 142 -622 205 -1397 261 -651 47
-948 85 -1240 160 -231 60 -328 98 -815 323 -365 168 -723 301 -993 367 -236
58 -545 81 -897 65z"/>
</g>
</svg>
