<?xml version="1.0" standalone="no"?>
<!DOCTYPE svg PUBLIC "-//W3C//DTD SVG 20010904//EN"
 "http://www.w3.org/TR/2001/REC-SVG-20010904/DTD/svg10.dtd">
<svg version="1.0" xmlns="http://www.w3.org/2000/svg"
 width="1018.000000pt" height="1020.000000pt" viewBox="0 0 1018.000000 1020.000000"
 preserveAspectRatio="xMidYMid meet">

<g transform="translate(0.000000,1020.000000) scale(0.100000,-0.100000)"
fill="#4598f5" stroke="none">
<path d="M5185 10179 c-796 -69 -1580 -349 -2225 -797 -176 -123 -430 -324
-430 -342 0 -4 72 -89 161 -189 l161 -182 28 23 c258 211 442 342 634 452 841
484 1809 656 2764 491 1285 -223 2382 -1044 2971 -2224 204 -409 333 -842 398
-1336 28 -219 26 -770 -5 -995 -109 -803 -409 -1494 -916 -2110 -38 -47 -142
-158 -230 -247 l-161 -162 -85 102 c-47 56 -215 233 -375 392 -477 478 -700
661 -960 786 -166 80 -271 110 -416 116 -158 8 -228 -9 -405 -96 -257 -126
-474 -261 -799 -496 -397 -288 -479 -335 -600 -343 -78 -5 -137 9 -230 56
-190 94 -527 372 -757 625 -310 341 -574 745 -654 1002 l-26 85 47 83 c49 85
152 235 404 590 306 431 405 628 447 886 23 141 14 337 -21 455 -34 115 -100
243 -184 355 -178 239 -689 785 -929 992 -395 343 -685 462 -1043 429 -210
-19 -377 -73 -493 -158 -164 -119 -686 -624 -841 -812 -202 -245 -309 -468
-369 -770 -86 -432 -44 -926 130 -1514 299 -1012 1077 -2161 2231 -3296 568
-559 997 -894 1595 -1243 563 -330 1046 -534 1563 -662 532 -132 951 -149
1355 -55 448 105 805 331 1189 753 281 309 438 542 513 757 31 91 33 102 33
245 0 130 -3 160 -24 227 l-23 76 194 194 c200 199 296 308 448 509 832 1102
1122 2549 780 3894 -386 1520 -1518 2738 -3006 3234 -339 113 -716 189 -1089
221 -141 12 -607 11 -750 -1z m-3133 -2126 c91 -36 239 -131 368 -238 248
-204 843 -846 953 -1027 52 -86 67 -144 67 -257 0 -227 -72 -369 -459 -909
-330 -461 -416 -612 -441 -768 -43 -268 213 -785 657 -1324 119 -145 431 -455
588 -584 248 -206 490 -348 675 -398 121 -32 311 -32 425 0 174 50 309 128
664 387 374 271 733 488 868 524 86 23 264 -38 427 -148 303 -205 1007 -905
1205 -1199 154 -228 153 -334 -2 -570 -96 -145 -215 -290 -376 -455 -330 -338
-558 -471 -936 -547 -138 -28 -432 -38 -586 -20 -229 26 -550 101 -815 189
-584 195 -1341 619 -1889 1056 -597 477 -1324 1236 -1822 1900 -637 851 -985
1604 -1099 2380 -23 150 -26 512 -6 625 40 224 110 398 220 545 125 167 430
477 712 723 111 97 147 116 255 136 122 24 252 15 347 -21z"/>
<path d="M5345 7786 c-200 -33 -340 -100 -460 -220 -90 -90 -137 -170 -178
-301 -33 -107 -53 -225 -39 -234 6 -4 116 -17 243 -29 252 -25 249 -26 249 32
0 40 28 143 51 188 29 56 96 115 159 139 63 24 189 29 257 10 221 -62 288
-350 141 -603 -44 -73 -164 -202 -394 -423 -450 -431 -597 -610 -690 -840 -32
-81 -66 -201 -79 -282 l-7 -43 876 0 876 0 0 230 0 230 -495 0 c-283 0 -495 4
-495 9 0 27 108 146 271 301 411 389 517 511 614 707 67 134 96 259 97 408 0
218 -56 360 -202 505 -102 103 -201 159 -348 196 -121 31 -326 40 -447 20z"/>
<path d="M7161 6973 l-561 -828 0 -217 0 -218 528 -2 527 -3 3 -262 2 -263
240 0 240 0 2 263 3 262 158 3 157 3 0 214 0 215 -160 0 -160 0 0 830 0 830
-209 0 -208 0 -562 -827z m499 -388 l0 -445 -300 0 -300 0 297 445 c163 245
298 445 300 445 1 0 3 -200 3 -445z"/>
</g>
</svg>
