<?xml version="1.0" standalone="no"?>
<!DOCTYPE svg PUBLIC "-//W3C//DTD SVG 20010904//EN"
 "http://www.w3.org/TR/2001/REC-SVG-20010904/DTD/svg10.dtd">
<svg version="1.0" xmlns="http://www.w3.org/2000/svg"
 width="447.000000pt" height="447.000000pt" viewBox="0 0 447.000000 447.000000"
 preserveAspectRatio="xMidYMid meet">

<g transform="translate(0.000000,447.000000) scale(0.100000,-0.100000)"
fill="#4598f5" stroke="none">
<path d="M70 4463 c-19 -3 -41 -9 -47 -15 -10 -8 -13 -75 -13 -274 l0 -264 70
0 70 0 0 205 0 205 205 0 205 0 0 68 0 69 -152 6 c-156 7 -277 7 -338 0z"/>
<path d="M1210 4397 l0 -64 107 -6 c58 -4 213 -7 345 -7 l238 0 0 70 0 70
-345 0 -345 0 0 -63z"/>
<path d="M2540 4390 l0 -70 340 0 340 0 0 70 0 70 -340 0 -340 0 0 -70z"/>
<path d="M3910 4390 l0 -70 205 0 205 0 0 -167 c0 -93 3 -185 6 -205 l7 -38
62 0 62 0 6 93 c9 121 9 261 1 370 l-7 87 -273 0 -274 0 0 -70z"/>
<path d="M3013 3673 l-263 -3 0 -65 0 -65 346 -2 345 -3 -542 -540 c-299 -297
-594 -591 -656 -654 l-112 -115 -1008 3 c-554 1 -1032 -1 -1061 -5 l-52 -7 0
-1103 0 -1104 1110 0 1110 0 0 1054 0 1054 27 34 c16 18 309 313 653 655 l625
622 3 -350 2 -349 70 0 70 0 0 475 0 475 -202 -2 c-112 -2 -321 -4 -465 -5z
m-925 -2555 l2 -968 -970 0 -970 0 0 788 c0 434 3 871 7 970 l6 182 961 -2
961 -3 3 -967z"/>
<path d="M17 3223 c-4 -3 -7 -159 -7 -345 l0 -338 70 0 70 0 0 345 0 345 -63
0 c-35 0 -67 -3 -70 -7z"/>
<path d="M4325 3217 c-3 -6 -4 -161 -3 -342 l3 -330 68 -3 67 -3 0 346 0 345
-65 0 c-44 0 -67 -4 -70 -13z"/>
<path d="M4330 1561 l0 -339 63 -4 c34 -3 63 -5 64 -4 8 6 14 419 8 539 l-7
147 -64 0 -64 0 0 -339z"/>
<path d="M4320 355 l0 -205 -202 -2 -203 -3 -3 -68 -3 -67 276 0 275 0 0 275
0 275 -70 0 -70 0 0 -205z"/>
<path d="M2540 80 l0 -70 340 0 340 0 0 70 0 70 -340 0 -340 0 0 -70z"/>
</g>
</svg>
