<?xml version="1.0" standalone="no"?>
<!DOCTYPE svg PUBLIC "-//W3C//DTD SVG 20010904//EN"
 "http://www.w3.org/TR/2001/REC-SVG-20010904/DTD/svg10.dtd">
<svg version="1.0" xmlns="http://www.w3.org/2000/svg"
 width="693.000000pt" height="778.000000pt" viewBox="0 0 693.000000 778.000000"
 preserveAspectRatio="xMidYMid meet">

<g transform="translate(0.000000,778.000000) scale(0.100000,-0.100000)"
fill="#4598f5" stroke="none">
<path d="M3388 7746 c-25 -13 -127 -85 -228 -160 -408 -306 -707 -480 -1045
-611 -82 -32 -207 -80 -276 -106 -185 -72 -253 -118 -295 -202 -55 -108 -55
-270 1 -682 96 -714 185 -1057 369 -1430 140 -282 227 -408 405 -585 164 -163
280 -250 451 -339 233 -121 391 -156 660 -148 494 16 850 149 1149 432 328
309 603 886 715 1495 58 317 86 790 77 1267 -2 57 -38 85 -178 138 -309 115
-726 310 -965 451 -209 124 -334 211 -545 381 -161 130 -208 145 -295 99z
m272 -412 c229 -168 350 -250 510 -346 301 -181 625 -330 885 -408 l70 -20 -2
-128 c-18 -943 -251 -1712 -671 -2213 -141 -168 -304 -297 -487 -385 -295
-142 -580 -159 -883 -52 -178 62 -334 162 -490 312 -414 399 -676 1029 -767
1846 -16 145 -41 607 -33 615 2 3 51 19 109 36 315 93 732 300 1109 552 149
99 333 235 395 290 22 20 47 36 55 36 8 1 98 -60 200 -135z"/>
<path d="M4285 6263 c-101 -22 -149 -65 -240 -211 -36 -59 -132 -197 -212
-307 -80 -110 -207 -288 -281 -395 -74 -107 -167 -238 -205 -290 -71 -95 -163
-200 -177 -200 -4 0 -43 55 -86 123 -183 287 -323 462 -411 514 l-44 26 -55
-38 c-30 -21 -59 -46 -64 -56 -17 -30 -11 -78 14 -127 27 -51 29 -55 161 -228
50 -66 147 -197 215 -293 137 -191 230 -296 273 -306 84 -21 127 23 377 390
79 116 292 415 474 665 182 250 343 477 358 505 39 70 36 109 -9 178 -37 55
-45 60 -88 50z"/>
<path d="M417 6430 c-127 -23 -231 -112 -287 -247 -72 -172 -90 -360 -90 -927
0 -221 -7 -558 -15 -751 -23 -535 -30 -1056 -16 -1223 31 -392 96 -505 602
-1054 122 -132 306 -316 440 -440 251 -231 334 -325 386 -433 53 -111 67 -194
66 -390 -1 -128 -9 -229 -32 -410 -17 -132 -31 -274 -31 -315 0 -140 52 -198
200 -221 89 -14 1192 -4 1250 11 40 11 83 51 99 92 16 42 26 1077 12 1313 -20
340 -53 568 -116 784 -61 210 -117 323 -253 504 -91 123 -434 468 -577 581
-55 44 -158 136 -229 204 -150 145 -263 232 -361 278 -77 37 -172 64 -221 64
-27 0 -33 4 -38 28 -7 35 -227 1439 -261 1672 -79 531 -175 778 -334 859 -47
24 -127 33 -194 21z m330 -1485 c113 -667 202 -1219 203 -1255 0 -36 -7 -101
-16 -145 l-17 -80 26 -73 c48 -138 508 -970 563 -1020 22 -19 36 -22 114 -22
l88 0 12 52 c28 116 24 125 -178 444 -200 317 -273 460 -313 613 -27 107 -28
105 34 97 78 -11 129 -38 204 -108 37 -35 104 -92 148 -128 44 -35 139 -119
210 -185 72 -66 200 -182 286 -257 169 -149 246 -230 334 -354 186 -259 283
-637 301 -1181 6 -161 5 -193 -7 -197 -52 -15 -809 -85 -936 -86 l-53 0 0 58
c0 80 -25 236 -49 306 -54 154 -132 251 -401 499 -225 207 -560 542 -674 674
-114 132 -189 236 -241 335 -121 230 -146 423 -110 868 9 114 26 606 40 1190
15 641 27 1008 35 1032 22 74 85 119 160 115 l34 -2 203 -1190z m1963 -4365
l0 -270 -238 0 c-166 0 -294 -6 -427 -20 -105 -11 -214 -20 -242 -20 l-53 0 0
248 0 249 103 7 c80 5 453 45 642 69 17 2 72 5 123 6 l92 1 0 -270z"/>
<path d="M6380 6427 c-68 -16 -91 -28 -146 -79 -119 -109 -170 -275 -249 -804
-24 -165 -96 -611 -159 -991 -64 -381 -116 -694 -116 -696 0 -2 -22 -7 -49
-10 -156 -19 -392 -166 -687 -430 -209 -188 -610 -598 -681 -697 -203 -287
-306 -575 -360 -1010 -16 -127 -18 -229 -17 -825 0 -672 1 -681 22 -752 l23
-73 40 0 c23 0 337 -9 700 -20 597 -19 662 -19 689 -5 38 20 57 56 70 141 12
76 9 145 -21 424 -39 363 -36 589 10 710 43 112 138 219 499 559 89 84 202
201 249 259 48 59 153 175 234 259 240 248 333 367 408 522 78 161 76 136 76
1021 0 619 -3 799 -14 850 -9 46 -16 213 -21 570 -6 382 -12 529 -24 605 -31
191 -84 324 -159 391 -82 74 -206 106 -317 81z m131 -279 c75 -58 79 -73 78
-307 -1 -152 4 -236 17 -321 15 -97 18 -190 20 -590 2 -393 6 -517 24 -715 27
-303 37 -692 21 -835 -32 -278 -76 -370 -336 -695 -217 -270 -332 -394 -689
-739 -239 -230 -321 -323 -380 -429 -52 -92 -86 -222 -93 -349 l-6 -108 -27 0
c-59 0 -296 22 -495 46 -115 14 -267 28 -337 33 -70 4 -130 10 -134 13 -3 4
17 209 45 456 54 479 62 519 136 693 106 247 243 410 605 724 102 87 223 196
270 240 47 44 105 97 130 117 59 47 341 220 348 213 9 -9 -15 -166 -35 -225
-10 -30 -47 -102 -82 -160 -35 -58 -99 -166 -141 -240 -43 -74 -104 -178 -137
-230 -119 -189 -126 -218 -67 -316 19 -32 38 -62 42 -66 11 -11 103 35 144 71
41 36 68 77 249 381 158 266 244 433 284 550 29 83 29 89 31 310 1 211 3 239
38 440 50 294 171 1055 202 1275 49 349 98 576 150 694 24 53 59 101 75 101 4
0 26 -15 50 -32z m-1821 -5337 c135 -16 298 -33 363 -37 l117 -7 0 -248 c0
-193 -3 -249 -12 -249 -7 0 -206 9 -443 20 -236 11 -446 20 -466 20 l-37 0 -5
213 c-5 194 -9 236 -32 306 l-7 24 138 -6 c77 -4 249 -20 384 -36z"/>
</g>
</svg>
