<?xml version="1.0" standalone="no"?>
<!DOCTYPE svg PUBLIC "-//W3C//DTD SVG 20010904//EN"
 "http://www.w3.org/TR/2001/REC-SVG-20010904/DTD/svg10.dtd">
<svg version="1.0" xmlns="http://www.w3.org/2000/svg"
 width="2161.000000pt" height="2161.000000pt" viewBox="0 0 2161.000000 2161.000000"
 preserveAspectRatio="xMidYMid meet">
<metadata>
Created by potrace 1.16, written by Peter Selinger 2001-2019
</metadata>
<g transform="translate(0.000000,2161.000000) scale(0.100000,-0.100000)"
fill="#4598f5" stroke="none">
<path d="M11385 20068 c-28 -5 -182 -6 -355 -3 -495 10 -824 -10 -1525 -95
-495 -61 -545 -69 -751 -130 -209 -63 -361 -96 -515 -114 -151 -18 -199 -34
-619 -206 -178 -73 -363 -147 -411 -165 -133 -51 -995 -486 -1164 -588 -82
-49 -266 -168 -408 -263 -142 -96 -266 -174 -275 -174 -9 0 -35 -21 -58 -48
-22 -26 -79 -70 -125 -99 -46 -29 -122 -86 -169 -128 -47 -42 -193 -165 -325
-273 -293 -240 -318 -263 -365 -332 -40 -58 -91 -110 -174 -175 -69 -54 -96
-85 -258 -285 -184 -227 -276 -337 -365 -433 -40 -44 -77 -95 -84 -115 -15
-47 -35 -70 -76 -87 -22 -9 -38 -26 -49 -52 -51 -117 -83 -170 -170 -288 -205
-276 -268 -384 -596 -1029 -258 -506 -260 -511 -338 -746 -107 -322 -211 -588
-269 -690 -42 -74 -50 -95 -56 -160 -10 -108 -48 -293 -95 -460 -65 -228 -67
-242 -125 -757 -93 -834 -122 -1274 -110 -1678 5 -175 3 -239 -9 -313 -15 -93
-15 -94 9 -158 33 -87 50 -185 80 -454 29 -259 74 -491 179 -927 41 -169 91
-382 111 -471 27 -124 47 -190 84 -270 91 -201 180 -459 230 -668 17 -70 31
-98 103 -205 57 -84 148 -251 282 -514 110 -214 219 -426 244 -470 64 -114
242 -384 318 -481 81 -104 138 -201 165 -281 18 -56 26 -66 62 -85 67 -34 154
-125 255 -268 53 -74 143 -184 202 -245 125 -130 177 -192 254 -300 46 -65 65
-83 99 -95 34 -13 44 -23 57 -57 12 -34 31 -53 101 -102 46 -34 163 -133 259
-222 96 -88 252 -218 345 -289 144 -109 176 -137 207 -188 34 -56 40 -61 100
-79 46 -15 105 -49 218 -129 86 -60 211 -143 278 -184 206 -125 294 -185 360
-245 52 -48 72 -59 125 -71 39 -10 119 -46 217 -99 85 -46 223 -116 305 -155
83 -39 175 -83 205 -97 30 -15 72 -43 95 -63 34 -31 57 -40 155 -64 163 -40
441 -133 609 -206 128 -55 175 -69 405 -120 144 -32 367 -84 496 -115 528
-126 886 -186 1285 -214 87 -7 151 -17 194 -32 60 -21 70 -21 175 -11 61 7
262 14 446 16 455 6 790 35 1501 131 294 39 338 48 465 89 227 73 470 126 585
126 27 0 73 9 102 19 222 82 870 330 956 366 58 25 142 66 186 91 44 25 258
145 475 266 525 293 671 379 865 509 90 60 197 125 238 143 55 26 84 46 113
81 21 26 99 94 174 150 200 152 329 263 482 412 102 100 150 139 190 157 46
20 61 35 96 88 49 75 77 103 152 150 41 26 62 48 84 89 40 74 73 115 200 249
60 63 186 207 279 320 94 113 192 228 218 255 27 28 55 69 63 92 8 22 121 202
251 398 292 442 301 457 484 823 83 163 175 340 205 393 37 64 102 217 195
455 76 198 170 438 209 534 68 170 71 180 91 340 20 156 37 232 125 545 59
212 140 850 187 1480 9 118 26 770 31 1190 0 36 -10 99 -26 159 -15 54 -41
189 -57 300 -67 459 -102 639 -204 1071 -41 171 -85 364 -99 430 -27 132 -38
166 -86 270 -76 167 -162 427 -190 577 -9 53 -21 79 -54 121 -54 69 -95 148
-194 372 -81 183 -316 624 -437 822 -37 59 -114 173 -170 253 -134 190 -221
323 -285 440 -29 52 -73 120 -99 150 -26 30 -164 195 -306 365 -413 495 -489
576 -597 638 -70 40 -178 130 -308 253 -63 60 -182 163 -265 229 -82 65 -172
143 -200 173 -87 94 -97 102 -240 186 -77 46 -279 176 -449 290 -301 203 -316
212 -645 372 -490 239 -658 329 -727 387 -21 17 -72 35 -174 60 -195 48 -368
107 -524 179 -110 51 -155 66 -305 98 -97 21 -279 63 -406 94 -490 117 -780
172 -1070 201 -225 22 -293 33 -381 61 -82 26 -100 27 -179 12z m-663 -533
c199 -42 393 -175 466 -321 23 -46 48 -74 100 -117 157 -127 294 -367 368
-641 22 -84 31 -104 64 -135 29 -28 43 -53 59 -109 12 -40 46 -126 76 -191 90
-200 126 -314 143 -451 7 -54 17 -86 36 -114 36 -53 58 -130 185 -636 76 -301
116 -481 130 -584 17 -124 24 -151 41 -163 17 -12 20 -25 20 -84 l0 -69 -1794
0 -1794 0 -4 42 c-7 78 11 187 48 281 71 184 74 195 74 265 0 191 34 345 132
592 27 68 67 197 88 285 107 441 224 750 349 919 28 38 54 81 57 95 31 147 82
259 197 434 40 62 87 136 103 166 36 67 99 138 165 187 36 26 52 45 56 68 10
51 122 153 231 209 155 81 269 101 404 72z m1140 -124 c327 -85 648 -222 808
-347 30 -23 84 -54 120 -67 87 -32 199 -90 285 -145 242 -155 800 -655 1019
-912 57 -67 469 -604 675 -880 224 -300 311 -443 326 -538 5 -32 20 -58 57
-100 62 -70 103 -133 155 -237 38 -74 93 -229 93 -259 0 -11 -188 -15 -1012
-21 -1291 -11 -1284 -11 -1338 4 -107 31 -133 77 -161 294 -19 147 -38 227
-114 502 -43 158 -75 329 -75 406 0 45 -8 75 -36 136 -63 138 -94 221 -230
626 -210 626 -231 671 -529 1206 -78 141 -154 280 -169 309 -32 64 -34 64 126
23z m-2482 -182 c0 -19 -96 -207 -256 -500 -77 -143 -103 -201 -139 -310 -35
-108 -67 -175 -105 -218 -17 -19 -33 -44 -35 -55 -3 -12 -14 -67 -25 -123 -28
-140 -94 -368 -142 -488 -75 -186 -111 -319 -266 -975 -16 -69 -46 -166 -66
-217 -34 -83 -37 -97 -30 -151 12 -107 0 -148 -61 -207 l-53 -52 -443 -6
c-244 -4 -685 -7 -980 -7 l-536 0 -11 25 c-17 36 -15 42 13 49 19 5 25 13 25
34 0 68 108 302 139 302 4 0 18 26 31 58 91 223 300 573 543 907 320 439 879
1023 1317 1375 234 187 384 276 705 418 88 39 205 91 260 116 55 25 103 46
108 46 4 0 7 -9 7 -21z m-1470 -192 c0 -11 -282 -267 -615 -559 -66 -58 -131
-124 -145 -147 -51 -86 -81 -122 -115 -138 -21 -10 -38 -28 -45 -47 -24 -65
-40 -96 -49 -96 -16 0 -235 -283 -316 -407 -42 -65 -232 -361 -422 -658 -339
-529 -349 -545 -460 -785 -63 -135 -121 -252 -129 -260 -13 -13 -83 -16 -477
-19 -521 -4 -1358 7 -1377 19 -28 17 83 194 268 425 106 132 804 842 1012
1029 384 345 871 702 1085 794 50 22 100 53 134 84 137 124 422 281 836 459
229 98 801 326 808 322 4 -2 7 -10 7 -16z m6073 -71 c248 -82 402 -151 540
-243 61 -40 129 -78 151 -83 137 -35 320 -124 489 -238 62 -41 153 -96 202
-121 72 -37 98 -56 127 -96 30 -40 46 -52 82 -61 90 -23 269 -142 546 -362
168 -135 222 -182 585 -513 320 -291 532 -506 751 -759 276 -319 296 -346 329
-432 15 -41 22 -48 45 -48 29 0 40 -19 40 -71 l0 -26 -332 -6 c-412 -9 -1178
-7 -1357 2 l-134 7 -64 69 c-78 85 -102 129 -114 209 -14 87 -14 87 -74 163
-30 37 -88 132 -129 210 -196 371 -469 789 -965 1478 -164 229 -182 250 -286
345 -51 47 -159 148 -242 225 -82 77 -204 189 -272 249 -151 135 -175 166
-131 166 11 0 107 -29 213 -64z m4138 -3560 c99 -22 143 -48 194 -118 113
-152 257 -422 305 -569 19 -57 47 -115 80 -162 135 -199 281 -581 486 -1267
37 -124 87 -290 111 -370 115 -377 146 -542 148 -775 1 -159 3 -187 23 -240
38 -105 54 -226 59 -471 3 -127 2 -265 -2 -308 l-7 -76 -1231 2 -1231 3 -20
35 c-20 33 -21 51 -21 275 0 221 -2 250 -27 370 -33 160 -53 324 -73 610 -19
259 -27 320 -60 468 -47 207 -66 342 -74 512 -8 158 -10 175 -39 246 -18 42
-47 144 -66 225 -135 582 -186 773 -229 870 -70 157 -124 336 -147 490 -14 95
-25 124 -44 124 -19 0 -25 21 -19 68 5 36 9 42 37 48 17 4 299 8 626 10 327 2
645 7 705 13 146 12 433 5 516 -13z m-12721 1 c0 -8 -16 -72 -35 -142 -67
-245 -223 -683 -290 -815 -21 -41 -29 -76 -36 -154 -12 -146 -63 -381 -124
-573 -26 -83 -35 -131 -91 -477 -46 -284 -68 -396 -105 -530 -30 -105 -31
-116 -33 -340 -2 -189 -8 -265 -30 -416 -15 -109 -30 -271 -36 -395 -5 -115
-14 -239 -20 -275 -17 -105 -42 -201 -54 -205 -6 -3 -568 -6 -1250 -7 l-1239
-3 6 70 c3 39 17 144 32 235 25 151 27 172 16 250 -10 75 -9 108 14 290 103
825 240 1413 384 1643 32 51 43 82 60 174 24 126 84 322 137 445 19 46 68 142
109 213 40 72 88 166 105 209 38 98 77 176 215 430 158 294 170 312 240 349
36 20 60 23 255 27 118 3 565 7 993 8 641 2 777 0 777 -11z m2613 6 l157 -6 0
-26 c0 -15 -16 -132 -35 -261 -19 -129 -48 -327 -64 -440 -17 -113 -44 -362
-61 -555 -35 -402 -61 -614 -91 -752 -18 -83 -20 -116 -14 -213 4 -77 1 -170
-9 -280 -27 -290 -39 -613 -41 -1095 -1 -408 -3 -478 -18 -527 -24 -83 -56
-147 -81 -160 -25 -14 -814 -26 -1741 -27 -693 0 -851 6 -871 34 -23 31 -28
106 -15 240 6 72 31 380 56 685 52 638 51 632 75 685 14 31 19 77 24 195 6
187 23 284 81 494 25 88 57 220 71 295 103 549 140 685 227 828 34 57 44 85
59 174 9 59 34 153 54 210 20 57 60 176 90 264 69 203 82 218 199 235 63 9
1735 12 1948 3z m4507 -22 c16 -28 49 -245 109 -726 46 -374 48 -392 101 -975
71 -776 78 -860 94 -1115 34 -547 62 -1482 45 -1499 -3 -3 -838 -9 -1855 -13
-1752 -6 -2247 -1 -2591 23 l-83 6 0 271 c0 226 4 298 22 425 19 137 20 168
11 290 -9 129 -7 181 52 912 45 555 67 785 78 812 12 29 14 63 10 170 -7 154
4 262 53 533 18 105 56 339 84 520 27 182 53 343 56 358 l6 28 1899 -3 c1646
-3 1901 -5 1909 -17z m3115 11 c17 -12 103 -204 147 -325 22 -62 73 -224 114
-360 40 -137 89 -283 108 -325 71 -160 121 -363 131 -542 9 -145 19 -196 76
-393 80 -279 112 -455 178 -982 66 -522 94 -855 95 -1110 1 -227 -8 -269 -59
-291 -29 -12 -259 -14 -1534 -14 -945 0 -1502 4 -1506 10 -3 5 -10 204 -15
442 -15 683 -44 1181 -141 2363 -31 392 -54 601 -104 968 -58 424 -63 471 -50
495 30 56 30 56 127 63 135 9 2421 10 2433 1z m-11082 -4860 l32 -32 6 -238
c4 -185 9 -248 23 -287 35 -104 57 -279 81 -640 18 -277 35 -412 75 -610 42
-206 60 -355 60 -492 0 -107 3 -122 34 -207 46 -122 114 -374 191 -701 41
-178 74 -295 95 -340 42 -92 57 -149 70 -269 11 -94 14 -102 60 -170 76 -112
124 -251 137 -394 l6 -72 -989 2 -988 3 -66 113 c-36 61 -101 161 -145 222
-104 142 -195 316 -241 460 -26 80 -50 134 -82 180 -129 186 -347 722 -431
1058 -22 86 -79 279 -127 427 -144 448 -184 636 -184 872 0 104 -4 142 -20
188 -26 74 -55 230 -71 375 -17 150 -17 481 0 538 10 38 15 42 44 43 18 1 446
1 952 1 506 -1 1001 2 1100 6 99 4 217 4 263 1 76 -5 85 -8 115 -37z m3276 2
c3 -3 7 -311 8 -685 2 -556 5 -687 17 -722 7 -23 17 -82 20 -132 3 -49 18
-256 32 -460 14 -203 36 -473 49 -598 16 -140 25 -287 25 -381 0 -137 3 -165
30 -267 69 -267 136 -738 156 -1096 l7 -123 -1070 0 -1070 0 -66 128 c-109
213 -211 491 -288 789 -22 84 -58 196 -80 248 -74 178 -120 381 -134 585 -5
79 -12 108 -41 171 -56 122 -101 357 -159 814 -47 380 -155 1486 -155 1593 0
68 16 111 52 137 21 16 121 17 1342 11 726 -3 1322 -9 1325 -12z m5035 -32 c3
-26 2 -146 -4 -267 -5 -121 -14 -384 -20 -585 -17 -584 -38 -931 -100 -1592
-17 -175 -43 -463 -60 -640 -35 -380 -44 -441 -77 -528 -22 -58 -25 -83 -28
-230 -3 -175 -19 -277 -73 -475 l-27 -100 -65 -9 c-85 -12 -3568 -12 -3639 0
l-54 9 -23 110 c-12 61 -32 153 -44 205 -16 69 -24 148 -29 290 -7 192 -8 196
-40 264 -64 136 -92 334 -116 811 -8 171 -22 382 -31 470 -12 116 -14 202 -9
311 5 125 4 157 -9 188 -25 60 -45 183 -55 348 -8 120 -24 1441 -18 1450 6 8
980 14 2618 16 l1896 2 7 -48z m3607 21 c11 -12 13 -48 12 -147 -6 -286 -55
-961 -93 -1275 -25 -205 -44 -298 -78 -381 -22 -55 -25 -78 -24 -155 3 -127
-12 -230 -58 -385 -21 -74 -57 -236 -80 -360 -69 -379 -138 -616 -215 -741
-29 -47 -39 -77 -50 -151 -32 -208 -132 -498 -240 -695 -18 -34 -39 -80 -46
-102 -23 -78 -16 -76 -333 -75 -154 0 -721 4 -1258 9 l-978 8 0 32 c0 64 98
808 136 1029 8 48 21 98 29 110 10 15 13 61 13 176 0 98 8 213 21 315 24 191
29 251 81 1010 26 385 46 611 56 650 20 74 20 100 4 193 -10 59 -10 126 -1
325 6 139 11 325 11 414 0 89 4 173 10 187 l10 26 1529 0 c1410 0 1530 -1
1542 -17z m3079 -60 c0 -118 -18 -287 -42 -387 -15 -65 -19 -106 -14 -150 16
-162 -101 -869 -225 -1354 -80 -317 -152 -525 -223 -645 -20 -34 -35 -81 -48
-155 -35 -197 -121 -413 -229 -577 -29 -44 -68 -120 -86 -169 -109 -287 -290
-613 -421 -758 -27 -29 -59 -74 -71 -100 -19 -41 -32 -52 -84 -77 -93 -45
-174 -56 -412 -55 -1332 7 -1555 15 -1555 55 0 5 90 251 201 547 195 523 201
540 210 642 19 206 49 343 134 610 25 79 58 210 72 290 14 80 54 292 89 472
35 180 71 385 78 455 19 163 44 624 56 998 5 167 13 307 20 330 7 21 27 54 45
72 l33 33 1236 0 1236 0 0 -77z m-13941 -4902 l63 -6 28 -75 c47 -130 87 -202
160 -289 55 -66 92 -128 172 -285 104 -206 148 -283 296 -516 121 -190 210
-313 407 -560 193 -243 221 -281 293 -400 54 -89 119 -151 713 -686 90 -81
168 -153 172 -161 26 -44 -110 -8 -390 103 -230 91 -361 154 -454 220 -65 46
-99 62 -182 85 -174 50 -350 147 -541 298 -27 22 -69 45 -93 51 -58 17 -112
53 -147 100 -20 27 -46 46 -85 61 -135 54 -254 133 -561 375 -415 326 -451
359 -834 774 -164 179 -368 399 -452 490 -284 308 -312 340 -316 364 -7 37 4
47 63 56 64 9 1596 10 1688 1z m2636 -16 c57 -29 72 -63 90 -205 9 -69 27
-165 41 -215 15 -49 43 -149 64 -222 50 -172 70 -272 79 -397 7 -90 13 -114
59 -221 89 -209 197 -538 306 -927 46 -165 105 -297 245 -543 62 -110 147
-260 188 -333 42 -73 73 -136 69 -139 -10 -11 -105 17 -184 53 -40 18 -123 68
-185 110 -64 44 -148 92 -196 111 -225 91 -340 169 -724 491 -346 289 -627
580 -896 927 -412 532 -534 697 -603 825 -39 71 -81 183 -92 243 -5 25 -25 58
-66 104 -65 73 -119 174 -146 270 -29 104 -135 94 953 91 935 -3 959 -3 998
-23z m7057 7 c4 -4 -18 -59 -48 -122 -31 -63 -78 -169 -106 -235 -80 -191
-154 -326 -293 -535 -317 -473 -587 -801 -1005 -1222 -245 -246 -400 -385
-575 -518 -211 -159 -384 -264 -556 -339 -47 -21 -121 -62 -164 -91 -43 -29
-110 -67 -149 -85 -100 -46 -320 -127 -457 -169 -110 -33 -269 -68 -269 -59 0
11 53 104 184 320 159 265 180 303 267 500 33 76 87 189 120 251 41 80 72 158
104 265 24 84 79 253 120 377 110 326 148 459 221 788 79 358 103 443 154 551
39 82 40 85 34 162 l-7 79 84 40 c55 26 106 42 149 47 80 10 2182 5 2192 -5z
m2441 -29 c-56 -136 -278 -413 -578 -722 -189 -194 -758 -711 -964 -875 -361
-288 -631 -471 -755 -512 -32 -11 -75 -39 -121 -79 -164 -143 -443 -298 -738
-411 -48 -19 -107 -47 -130 -63 -117 -80 -475 -234 -646 -277 -159 -41 -195
-26 -98 38 76 51 187 156 540 509 289 289 329 334 506 562 333 427 453 605
711 1047 79 135 177 298 218 363 59 93 178 337 215 440 6 16 59 17 931 17
l925 0 -16 -37z m-5378 -60 c-13 -175 -34 -260 -92 -376 -30 -61 -35 -84 -48
-215 -21 -200 -53 -327 -121 -475 -77 -165 -341 -871 -360 -960 -19 -96 -47
-179 -105 -315 -141 -330 -316 -592 -480 -718 -44 -33 -63 -58 -85 -104 -31
-67 -60 -90 -137 -109 -32 -8 -57 -22 -73 -40 -13 -15 -50 -40 -82 -54 -236
-106 -533 6 -737 278 -29 39 -73 91 -98 117 -24 25 -50 63 -57 85 -7 21 -36
62 -65 93 -104 108 -239 354 -325 590 -22 63 -70 174 -105 245 -92 186 -165
411 -195 598 -7 43 -26 98 -50 146 -75 150 -149 395 -240 798 -50 223 -90 434
-90 479 l0 24 1776 0 1776 0 -7 -87z"/>
</g>
</svg>
