<?xml version="1.0" standalone="no"?>
<!DOCTYPE svg PUBLIC "-//W3C//DTD SVG 20010904//EN"
 "http://www.w3.org/TR/2001/REC-SVG-20010904/DTD/svg10.dtd">
<svg version="1.0" xmlns="http://www.w3.org/2000/svg"
 width="938.000000pt" height="799.000000pt" viewBox="0 0 938.000000 799.000000"
 preserveAspectRatio="xMidYMid meet">

<g transform="translate(0.000000,799.000000) scale(0.100000,-0.100000)"
fill="#4598f5" stroke="none">
<path d="M2675 7968 c-76 -56 -236 -189 -402 -336 -100 -89 -550 -473 -1000
-853 -450 -381 -920 -780 -1045 -886 l-228 -194 0 -70 0 -69 143 -162 c274
-314 807 -955 1746 -2103 765 -934 1927 -2364 2260 -2780 158 -197 266 -321
364 -417 l88 -88 73 0 72 0 95 97 c262 270 929 1067 2269 2713 777 955 960
1177 1664 2029 l606 734 0 46 c0 25 -4 51 -8 57 -24 35 -387 351 -942 820
-228 193 -503 429 -610 524 -630 557 -784 688 -1007 858 l-136 102 -1986 0
-1986 -1 -30 -21z m773 -337 c128 -5 236 -11 239 -14 3 -3 -174 -315 -393
-694 -219 -378 -429 -747 -467 -820 -80 -152 -125 -214 -185 -260 l-44 -33
-921 0 -921 0 54 56 c131 133 463 421 1180 1021 250 210 516 436 590 503 277
251 312 261 868 241z m2965 -6 c91 -19 170 -63 285 -160 957 -801 1704 -1442
1857 -1591 l60 -59 -910 -3 c-500 -1 -920 0 -933 3 -36 9 -101 74 -129 129
-36 72 -217 381 -382 653 -327 540 -591 1007 -576 1021 7 8 268 19 480 20 123
1 201 -3 248 -13z m-1347 -2 l141 -6 130 -206 c189 -299 402 -654 595 -991
168 -293 326 -595 316 -605 -2 -3 -705 -4 -1561 -3 l-1556 3 38 85 c108 241
629 1140 948 1633 l63 97 372 0 c205 0 437 -3 514 -7z m-1727 -4251 c398
-1142 727 -2084 729 -2092 11 -33 -47 32 -196 220 -192 241 -295 366 -1197
1455 -1435 1732 -1950 2365 -2008 2464 l-18 31 983 0 983 0 724 -2078z m2918
2072 l51 -7 -19 -71 c-136 -494 -1567 -4516 -1608 -4516 -5 0 -1573 4519
-1588 4578 l-5 22 1558 0 c858 0 1582 -3 1611 -6z m2464 -13 c-33 -61 -209
-283 -541 -681 -108 -129 -303 -370 -435 -535 -268 -337 -518 -640 -1025
-1240 -637 -755 -891 -1064 -1187 -1440 -132 -168 -227 -275 -237 -264 -2 2
330 943 738 2091 l741 2088 978 0 c950 0 977 -1 968 -19z"/>
</g>
</svg>
