<?xml version="1.0" standalone="no"?>
<!DOCTYPE svg PUBLIC "-//W3C//DTD SVG 20010904//EN"
 "http://www.w3.org/TR/2001/REC-SVG-20010904/DTD/svg10.dtd">
<svg version="1.0" xmlns="http://www.w3.org/2000/svg"
 width="397.000000pt" height="640.000000pt" viewBox="0 0 397.000000 640.000000"
 preserveAspectRatio="xMidYMid meet">

<g transform="translate(0.000000,640.000000) scale(0.100000,-0.100000)"
fill="#4598f5" stroke="none">
<path d="M287 6379 c-97 -23 -191 -99 -240 -194 l-32 -60 0 -2925 0 -2925 29
-58 c36 -71 108 -140 184 -175 l57 -27 1700 0 1700 0 63 29 c80 37 161 122
194 203 l23 58 0 2895 0 2895 -23 58 c-33 81 -114 166 -194 203 l-63 29 -1680
2 c-959 0 -1696 -3 -1718 -8z m3406 -85 c61 -21 132 -84 164 -148 25 -47 27
-63 31 -199 l4 -147 -1903 2 -1904 3 0 140 c1 125 3 146 24 193 28 63 103 134
164 155 37 14 256 16 1708 16 1491 1 1670 -1 1712 -15z m195 -2966 l2 -2398
-1905 0 -1905 0 0 2393 c0 1317 3 2397 7 2400 3 4 859 6 1902 5 l1896 -3 3
-2397z m0 -2750 c-3 -234 -6 -278 -21 -311 -24 -51 -92 -124 -142 -150 l-40
-22 -1680 -3 c-1885 -3 -1732 -9 -1823 73 -30 27 -59 66 -73 97 -23 51 -24 65
-27 306 -2 140 -1 260 2 268 5 12 273 14 1906 14 l1901 0 -3 -272z"/>
<path d="M1913 6226 c-69 -33 -105 -87 -111 -166 -5 -75 9 -117 57 -164 122
-119 328 -47 348 121 14 125 -85 233 -212 233 -16 0 -53 -11 -82 -24z m184
-100 c27 -29 33 -44 33 -79 0 -59 -33 -108 -86 -126 -52 -18 -88 -9 -130 33
-42 42 -52 91 -28 141 25 54 67 77 128 72 42 -4 55 -10 83 -41z"/>
<path d="M1550 495 l0 -35 440 0 440 0 0 35 0 35 -440 0 -440 0 0 -35z"/>
</g>
</svg>
