<svg width="26" height="44" viewBox="0 0 26 44" fill="none" xmlns="http://www.w3.org/2000/svg">
<path d="M12.5229 22.3386C17.9438 22.3386 22.3383 17.9441 22.3383 12.5232C22.3383 7.10227 17.9438 2.70777 12.5229 2.70777C7.10202 2.70777 2.70752 7.10227 2.70752 12.5232C2.70752 17.9441 7.10202 22.3386 12.5229 22.3386Z" fill="white" fill-opacity="0.5"/>
<path d="M12.6921 20.3078C16.8979 20.3078 20.3074 16.8225 20.3074 12.5232C20.3074 8.22382 16.8979 4.73853 12.6921 4.73853C8.48619 4.73853 5.07666 8.22382 5.07666 12.5232C5.07666 16.8225 8.48619 20.3078 12.6921 20.3078Z" fill="white" fill-opacity="0.7"/>
<path d="M12.6922 16.9231C15.0288 16.9231 16.923 15.0289 16.923 12.6923C16.923 10.3557 15.0288 8.46156 12.6922 8.46156C10.3556 8.46156 8.46143 10.3557 8.46143 12.6923C8.46143 15.0289 10.3556 16.9231 12.6922 16.9231Z" fill="white"/>
<path d="M15.7404 25.8574C14.8498 25.7151 14.0801 26.3869 14.0801 27.2353V12.5663C14.0801 11.7178 13.3104 11.046 12.4198 11.1883C11.7208 11.2999 11.2369 11.945 11.2369 12.641V24.4413C11.2369 23.5927 10.4673 22.921 9.57668 23.0632C8.8777 23.1749 8.39379 23.82 8.39379 24.5159V25.8383C8.39379 24.9898 7.62414 24.3181 6.73354 24.4603C6.03457 24.572 5.55065 25.2171 5.55065 25.913V27.2354C5.55065 26.3869 4.78101 25.7152 3.89041 25.8574C3.19144 25.9691 2.70752 26.6142 2.70752 27.3101V31.7919C2.70752 32.4772 2.79306 33.1599 2.9622 33.8248L3.87441 37.4107C4.04355 38.0756 4.12909 38.7583 4.12909 39.4436V43.3015C4.12909 43.6872 4.44727 44 4.83987 44H14.7907C15.1832 44 15.5014 43.6873 15.5014 43.3015V40.0304C15.5014 39.4189 15.5696 38.8091 15.7045 38.2122L16.7198 33.7218C16.8549 33.1248 16.9229 32.5149 16.9229 31.9033V27.31C16.9231 26.6142 16.4393 25.9692 15.7404 25.8574Z" fill="white"/>
<path d="M19.1877 23.0154C18.9645 23.0154 18.7446 22.909 18.6095 22.7111C18.3916 22.3937 18.4743 21.9606 18.7931 21.7441C19.1543 21.4991 19.5053 21.2298 19.8357 20.9443C20.1272 20.6932 20.569 20.7231 20.8216 21.014C21.0748 21.3043 21.0434 21.7438 20.7519 21.996C20.3812 22.3165 19.9865 22.6191 19.581 22.8944C19.4602 22.9763 19.323 23.0154 19.1877 23.0154ZM5.51104 22.7982C5.36832 22.7982 5.22431 22.7547 5.10001 22.6645C4.70196 22.3756 4.31759 22.0606 3.95774 21.7285C3.67436 21.467 3.65802 21.0266 3.92014 20.7447C4.18235 20.4619 4.6247 20.4456 4.90808 20.7074C5.22827 21.0027 5.56963 21.2825 5.92329 21.5395C6.23531 21.7662 6.30421 22.2016 6.07624 22.5123C5.9398 22.6989 5.7268 22.7982 5.51104 22.7982ZM22.172 20.1129C22.0314 20.1129 21.8893 20.0708 21.7665 19.983C21.4517 19.7594 21.3794 19.3247 21.604 19.0119C21.8586 18.6567 22.0955 18.2835 22.3066 17.9031C22.4923 17.5669 22.9176 17.4442 23.2562 17.6302C23.5941 17.8162 23.7171 18.2397 23.53 18.5762C23.293 19.0034 23.0282 19.4226 22.7414 19.8216C22.6049 20.0116 22.3905 20.1129 22.172 20.1129ZM2.62096 19.8022C2.39565 19.8022 2.17448 19.6941 2.03924 19.4936C1.7655 19.0867 1.51353 18.6587 1.29029 18.2223C1.11479 17.8797 1.2514 17.4605 1.59551 17.2859C1.93962 17.1097 2.3609 17.2478 2.53562 17.5901C2.73426 17.978 2.95827 18.3573 3.2013 18.7186C3.41568 19.0378 3.33034 19.4705 3.00946 19.6843C2.88996 19.7641 2.75482 19.8022 2.62096 19.8022ZM23.9684 16.3626C23.9069 16.3626 23.8441 16.3545 23.7819 16.3371C23.4099 16.2352 23.1914 15.852 23.2938 15.4812C23.4092 15.0627 23.5007 14.632 23.5656 14.2011C23.623 13.8214 23.9725 13.5576 24.361 13.6158C24.7426 13.6726 25.0055 14.027 24.9488 14.4071C24.8758 14.8932 24.7719 15.3789 24.6416 15.8511C24.5562 16.1597 24.2749 16.3626 23.9684 16.3626ZM0.945577 15.9965C0.630115 15.9965 0.343387 15.782 0.26622 15.4628C0.152234 14.99 0.0648307 14.5019 0.00676231 14.0128C-0.038316 13.6311 0.235508 13.2847 0.61919 13.2395C0.995387 13.1966 1.34973 13.4672 1.3955 13.8489C1.44737 14.2843 1.52454 14.7178 1.62631 15.1379C1.71647 15.5118 1.48497 15.8874 1.10946 15.9771C1.05475 15.9903 0.999516 15.9965 0.945577 15.9965ZM24.3466 12.2238C23.9869 12.2238 23.6816 11.9495 23.6509 11.5861C23.614 11.1528 23.5512 10.7166 23.4638 10.29C23.3866 9.91336 23.6304 9.54562 24.0086 9.46879C24.3855 9.39401 24.7562 9.63531 24.8334 10.012C24.9317 10.4916 25.0027 10.9817 25.0436 11.4692C25.0764 11.8523 24.791 12.1892 24.4059 12.2215C24.3862 12.2231 24.3664 12.2238 24.3466 12.2238ZM0.699711 11.8492C0.673043 11.8492 0.645772 11.8478 0.61919 11.8447C0.235508 11.8005 -0.0396926 11.4552 0.00469748 11.0731C0.0613894 10.5854 0.147417 10.0968 0.261403 9.62169C0.350871 9.24744 0.730423 9.01864 1.10387 9.10602C1.47938 9.1951 1.71079 9.57072 1.62141 9.94463C1.52033 10.3662 1.44393 10.7995 1.39335 11.2329C1.35249 11.5878 1.05001 11.8492 0.699711 11.8492ZM23.272 8.21078C23.0085 8.21078 22.7565 8.06259 22.6377 7.80972C22.4533 7.41714 22.2431 7.0303 22.0116 6.66016C21.8081 6.33389 21.9085 5.90456 22.2362 5.70163C22.5646 5.4987 22.9954 5.59901 23.1995 5.92529C23.4597 6.34202 23.6966 6.77743 23.9048 7.2197C24.068 7.56808 23.9171 7.9825 23.5675 8.14525C23.472 8.18971 23.3709 8.21078 23.272 8.21078ZM1.90272 7.87148C1.79622 7.87148 1.68834 7.84733 1.58657 7.79602C1.24246 7.62196 1.10524 7.20291 1.28005 6.86027C1.50329 6.42212 1.75458 5.99416 2.02694 5.58796C2.24132 5.2681 2.67421 5.18073 2.99716 5.39557C3.31804 5.60903 3.40475 6.04144 3.19037 6.36095C2.94803 6.72158 2.7254 7.10166 2.52676 7.49047C2.40322 7.73246 2.15813 7.87148 1.90272 7.87148ZM20.8666 4.81805C20.6892 4.81805 20.5109 4.75072 20.3744 4.61649C20.0644 4.31094 19.7326 4.01961 19.3872 3.75106C19.0833 3.51413 19.0294 3.07666 19.267 2.77377C19.5039 2.47053 19.9422 2.41648 20.2488 2.65376C20.6366 2.95597 21.0101 3.28362 21.359 3.62729C21.6327 3.89789 21.6348 4.33869 21.3631 4.61169C21.2264 4.74943 21.0469 4.81805 20.8666 4.81805ZM4.41729 4.55498C4.22958 4.55498 4.04247 4.4802 3.90457 4.33235C3.64236 4.05053 3.65879 3.61007 3.94148 3.34863C4.30193 3.01619 4.68501 2.70079 5.08168 2.41186C5.39301 2.18443 5.83201 2.25176 6.05869 2.5621C6.28675 2.87245 6.21913 3.30786 5.9078 3.53494C5.55483 3.79261 5.21348 4.07306 4.89328 4.3691C4.75796 4.49348 4.58797 4.55498 4.41729 4.55498ZM17.4331 2.45631C17.3362 2.45631 17.2378 2.43593 17.1436 2.39344C16.7442 2.21227 16.3312 2.0532 15.9167 1.92059C15.5487 1.80333 15.3459 1.41143 15.4641 1.04532C15.5822 0.679552 15.9768 0.476281 16.3427 0.59492C16.8097 0.743797 17.2747 0.92257 17.7239 1.12618C18.0748 1.2856 18.2298 1.69856 18.0701 2.0484C17.9526 2.30469 17.6987 2.45631 17.4331 2.45631ZM7.92247 2.30469C7.64934 2.30469 7.38996 2.14391 7.27727 1.87708C7.12844 1.52219 7.29637 1.11428 7.65278 0.966085C8.10683 0.776776 8.57654 0.612909 9.049 0.478679C9.42107 0.374688 9.8075 0.58781 9.91331 0.957605C10.0191 1.3274 9.80337 1.71253 9.43268 1.81789C9.01278 1.93687 8.59564 2.08232 8.19217 2.2503C8.10408 2.28705 8.01263 2.30469 7.92247 2.30469ZM13.3926 1.42574C13.3756 1.42574 13.3578 1.42505 13.34 1.42368C13.0567 1.40261 12.7679 1.39987 12.4839 1.3931C12.3296 1.3931 12.1767 1.39653 12.0244 1.40295C12.0149 1.40329 12.0046 1.40364 11.9944 1.40364C11.6223 1.40364 11.3124 1.11094 11.2966 0.73703C11.2803 0.352931 11.5793 0.028279 11.9658 0.0120036C12.1446 0.0042085 12.318 -0.00230166 12.5058 0.0007821C12.8206 0.0007821 13.1333 0.0123462 13.444 0.0354744C13.829 0.0639992 14.1178 0.397816 14.0892 0.781231C14.0617 1.147 13.7552 1.42574 13.3926 1.42574Z" fill="white"/>
</svg>
