<svg id="svg" version="1.1" xmlns="http://www.w3.org/2000/svg" xmlns:xlink="http://www.w3.org/1999/xlink" width="400" height="427.648839556004" viewBox="0, 0, 400,427.648839556004"><g id="svgg"><path id="path0" d="M123.060 141.414 C 123.311 141.462,123.674 141.461,123.867 141.410 C 124.060 141.360,123.855 141.320,123.411 141.322 C 122.967 141.325,122.809 141.366,123.060 141.414 M135.772 141.419 C 136.244 141.462,137.016 141.462,137.487 141.419 C 137.959 141.377,137.573 141.342,136.630 141.342 C 135.686 141.342,135.300 141.377,135.772 141.419 M191.767 141.421 C 192.512 141.460,193.783 141.460,194.593 141.421 C 195.402 141.383,194.793 141.351,193.239 141.351 C 191.685 141.351,191.023 141.382,191.767 141.421 M215.893 141.420 C 216.476 141.461,217.429 141.461,218.012 141.420 C 218.595 141.379,218.118 141.346,216.953 141.346 C 215.787 141.346,215.310 141.379,215.893 141.420 M0.055 171.544 C 0.055 172.043,0.094 172.248,0.142 171.998 C 0.191 171.748,0.191 171.340,0.142 171.090 C 0.094 170.840,0.055 171.044,0.055 171.544 M301.205 184.157 C 301.204 190.595,301.230 193.258,301.261 190.075 C 301.292 186.892,301.292 181.624,301.261 178.370 C 301.230 175.115,301.205 177.719,301.205 184.157 M301.199 259.435 C 301.199 262.654,301.227 263.942,301.261 262.298 C 301.295 260.654,301.295 258.021,301.261 256.446 C 301.227 254.871,301.199 256.216,301.199 259.435 M98.572 264.480 C 98.573 266.922,98.602 267.894,98.637 266.639 C 98.673 265.384,98.672 263.386,98.637 262.199 C 98.601 261.012,98.572 262.038,98.572 264.480 M229.765 366.398 C 229.765 379.717,229.789 385.196,229.818 378.573 C 229.848 371.949,229.848 361.051,229.818 354.355 C 229.789 347.658,229.765 353.078,229.765 366.398 M115.288 347.225 C 115.290 347.669,115.332 347.827,115.380 347.576 C 115.428 347.325,115.426 346.962,115.376 346.769 C 115.325 346.576,115.286 346.781,115.288 347.225 M115.292 357.417 C 115.292 357.916,115.331 358.121,115.380 357.871 C 115.428 357.621,115.428 357.212,115.380 356.963 C 115.331 356.713,115.292 356.917,115.292 357.417 M115.292 362.260 C 115.292 362.760,115.331 362.964,115.380 362.714 C 115.428 362.465,115.428 362.056,115.380 361.806 C 115.331 361.557,115.292 361.761,115.292 362.260 " stroke="none" fill="#2c2c2c" fill-rule="evenodd"></path><path id="path1" d="M126.529 0.267 C 123.881 1.004,122.112 3.220,122.103 5.811 C 122.097 7.703,123.000 9.886,127.423 18.668 C 130.846 25.466,132.589 29.393,132.923 31.061 C 133.066 31.780,132.573 32.363,130.214 34.259 C 129.144 35.119,127.910 36.163,127.472 36.579 C 127.034 36.995,126.639 37.336,126.596 37.336 C 126.388 37.336,121.695 41.451,121.695 41.634 C 121.695 41.749,121.640 41.788,121.573 41.721 C 121.245 41.393,111.604 50.177,111.604 50.804 C 111.604 50.945,111.516 51.060,111.407 51.060 C 111.178 51.060,107.801 54.895,107.765 55.197 C 107.752 55.308,107.614 55.470,107.458 55.557 C 106.438 56.128,97.053 69.842,96.815 71.110 C 96.791 71.238,96.714 71.387,96.644 71.443 C 96.259 71.750,92.556 79.652,92.389 80.525 C 92.357 80.691,92.273 80.873,92.202 80.928 C 92.007 81.081,90.325 85.807,89.537 88.415 C 88.324 92.428,86.785 99.679,86.498 102.725 C 86.451 103.224,86.360 103.860,86.295 104.137 C 86.073 105.085,85.784 110.427,85.907 111.320 L 86.029 112.210 200.018 112.210 L 314.007 112.210 313.942 109.435 C 313.906 107.909,313.820 106.160,313.751 105.550 C 313.587 104.106,312.838 99.684,312.691 99.294 C 312.628 99.127,312.533 98.632,312.480 98.192 C 312.427 97.753,312.324 97.299,312.252 97.183 C 312.179 97.067,312.113 96.882,312.105 96.771 C 312.047 95.980,311.728 94.627,311.578 94.535 C 311.478 94.473,311.441 94.349,311.497 94.259 C 311.587 94.113,311.171 92.406,310.855 91.625 C 310.788 91.458,310.745 91.262,310.759 91.188 C 310.785 91.058,309.918 88.396,309.653 87.790 C 309.580 87.624,309.510 87.442,309.498 87.386 C 309.320 86.583,308.898 85.368,308.796 85.368 C 308.723 85.368,308.650 85.189,308.633 84.970 C 308.558 83.973,304.362 74.674,303.910 74.503 C 303.812 74.466,303.771 74.371,303.820 74.292 C 303.914 74.140,301.416 69.677,300.899 69.074 C 300.732 68.878,300.597 68.659,300.600 68.587 C 300.610 68.332,297.033 62.967,296.853 62.967 C 296.752 62.967,296.692 62.899,296.719 62.815 C 296.787 62.604,294.641 59.536,294.425 59.536 C 294.328 59.536,294.271 59.458,294.299 59.362 C 294.365 59.133,292.616 56.710,292.385 56.710 C 292.287 56.710,292.252 56.637,292.308 56.546 C 292.363 56.456,292.051 55.991,291.613 55.512 C 291.175 55.033,290.817 54.568,290.817 54.480 C 290.817 54.391,290.593 54.142,290.320 53.926 C 290.046 53.711,289.868 53.489,289.925 53.432 C 289.981 53.376,289.751 53.097,289.413 52.813 C 289.075 52.529,288.799 52.210,288.799 52.104 C 288.799 51.863,281.354 44.198,281.121 44.198 C 281.028 44.198,280.477 43.696,279.897 43.083 C 279.317 42.470,276.475 40.177,273.580 37.987 C 266.637 32.735,266.096 32.215,266.267 30.966 C 266.460 29.560,267.596 26.866,270.154 21.746 C 271.416 19.220,272.381 17.153,272.299 17.151 C 272.217 17.150,272.251 17.081,272.376 17.000 C 272.640 16.828,274.532 13.118,274.357 13.118 C 274.292 13.118,274.383 12.975,274.559 12.799 C 274.734 12.624,274.826 12.397,274.763 12.295 C 274.700 12.192,274.729 12.109,274.827 12.109 C 275.034 12.109,276.564 8.398,276.901 7.075 C 277.617 4.274,275.686 1.146,272.708 0.280 C 271.462 -0.082,269.672 0.009,269.393 0.449 C 269.303 0.590,269.228 0.628,269.226 0.532 C 269.224 0.436,268.973 0.518,268.668 0.715 C 267.844 1.247,265.807 3.292,265.920 3.475 C 265.974 3.562,265.930 3.633,265.822 3.633 C 265.588 3.633,263.909 6.243,263.909 6.607 C 263.909 6.747,263.837 6.862,263.751 6.862 C 263.524 6.862,261.265 11.570,259.343 16.044 C 258.438 18.153,257.096 21.129,256.361 22.656 L 255.025 25.434 254.303 25.306 C 253.026 25.079,249.940 24.033,247.236 22.911 C 245.787 22.309,244.600 21.881,244.598 21.958 C 244.597 22.036,244.529 22.001,244.447 21.881 C 243.983 21.199,230.983 17.178,227.495 16.637 C 226.266 16.447,226.154 16.424,225.732 16.287 C 225.510 16.215,225.010 16.108,224.622 16.050 C 224.233 15.991,222.916 15.762,221.695 15.541 C 220.474 15.320,219.021 15.092,218.466 15.034 C 217.911 14.977,216.322 14.799,214.934 14.638 C 207.028 13.725,199.456 13.721,189.001 14.624 C 185.631 14.914,175.574 16.409,175.119 16.686 C 175.033 16.739,174.624 16.825,174.211 16.876 C 173.799 16.927,172.916 17.103,172.250 17.268 C 171.584 17.432,170.858 17.598,170.636 17.637 C 169.327 17.866,168.595 18.028,168.425 18.127 C 168.319 18.188,167.964 18.268,167.636 18.304 C 167.308 18.340,166.933 18.458,166.801 18.567 C 166.670 18.676,166.517 18.720,166.462 18.665 C 166.184 18.387,149.716 23.456,148.256 24.269 C 148.022 24.400,147.785 24.515,147.730 24.525 C 147.137 24.634,146.174 24.896,146.014 24.992 C 145.401 25.358,143.864 25.255,143.756 24.840 C 143.696 24.609,143.585 24.420,143.511 24.420 C 143.436 24.420,143.363 24.261,143.348 24.067 C 143.300 23.451,137.097 10.451,136.792 10.326 C 136.701 10.289,136.674 10.182,136.731 10.090 C 136.788 9.997,136.695 9.781,136.523 9.610 C 136.352 9.438,136.226 9.244,136.244 9.179 C 136.284 9.034,135.187 6.398,135.028 6.256 C 134.965 6.201,134.887 6.019,134.853 5.853 C 134.375 3.497,131.844 0.573,130.002 0.250 C 128.711 0.023,127.380 0.030,126.529 0.267 M206.862 26.648 C 213.896 26.988,219.927 27.707,225.732 28.898 C 227.397 29.240,228.897 29.534,229.065 29.552 C 229.234 29.570,229.483 29.654,229.620 29.739 C 229.757 29.823,229.953 29.840,230.057 29.777 C 230.160 29.713,230.295 29.742,230.357 29.843 C 230.419 29.943,230.811 30.089,231.229 30.167 C 231.646 30.245,233.486 30.763,235.318 31.319 C 237.149 31.875,238.739 32.346,238.850 32.366 C 238.961 32.386,239.146 32.462,239.262 32.534 C 239.735 32.831,242.180 33.675,242.183 33.543 C 242.184 33.465,242.253 33.498,242.334 33.616 C 242.524 33.892,244.197 34.557,244.201 34.358 C 244.203 34.275,244.271 34.300,244.352 34.413 C 244.533 34.664,248.877 36.650,249.091 36.579 C 249.175 36.551,249.243 36.625,249.243 36.742 C 249.243 36.860,249.334 36.900,249.445 36.831 C 249.556 36.763,249.647 36.797,249.647 36.907 C 249.647 37.092,250.456 37.454,250.633 37.348 C 250.676 37.323,250.767 37.383,250.835 37.482 C 250.903 37.581,251.685 38.057,252.573 38.539 C 254.703 39.696,256.817 40.973,258.981 42.410 C 259.952 43.056,260.747 43.547,260.747 43.502 C 260.747 43.458,260.951 43.593,261.201 43.803 C 261.451 44.013,262.836 45.062,264.279 46.135 C 265.721 47.207,267.935 48.958,269.197 50.026 C 270.458 51.094,271.623 52.059,271.783 52.170 C 271.944 52.281,272.445 52.710,272.897 53.123 C 273.349 53.536,273.787 53.832,273.871 53.780 C 273.956 53.728,274.076 53.821,274.140 53.987 C 274.204 54.153,274.372 54.295,274.514 54.304 C 274.812 54.321,277.581 57.374,279.124 59.384 C 279.699 60.134,280.264 60.747,280.381 60.747 C 280.497 60.747,280.540 60.799,280.476 60.863 C 280.353 60.986,284.991 67.129,285.531 67.558 C 285.706 67.697,285.787 67.810,285.710 67.810 C 285.634 67.810,286.191 68.650,286.950 69.677 C 290.008 73.817,292.901 78.461,295.090 82.745 C 295.856 84.243,296.574 85.583,296.685 85.721 C 296.797 85.860,296.846 85.974,296.795 85.974 C 296.707 85.974,297.821 88.907,298.327 90.010 C 298.454 90.288,298.576 90.583,298.598 90.666 C 298.620 90.749,298.656 90.840,298.678 90.868 C 298.701 90.896,298.748 91.066,298.783 91.247 C 298.818 91.428,298.999 92.096,299.184 92.733 C 299.861 95.063,300.402 98.009,300.343 99.041 L 300.282 100.101 200.402 100.101 L 100.523 100.101 100.463 98.739 C 100.380 96.828,101.243 92.858,102.426 89.715 C 102.690 89.015,102.850 88.386,102.781 88.318 C 102.713 88.250,102.763 88.194,102.893 88.194 C 103.022 88.194,103.128 88.093,103.128 87.970 C 103.128 87.847,103.811 86.144,104.646 84.186 C 105.481 82.228,106.155 80.545,106.143 80.446 C 106.131 80.348,106.212 80.211,106.324 80.142 C 106.435 80.073,106.557 79.883,106.593 79.720 C 106.630 79.558,106.774 79.301,106.914 79.151 C 107.054 79.001,107.117 78.794,107.054 78.692 C 106.990 78.590,107.040 78.507,107.164 78.507 C 107.289 78.507,107.339 78.423,107.276 78.322 C 107.213 78.220,107.234 78.107,107.323 78.070 C 107.559 77.970,108.809 75.682,108.629 75.678 C 108.545 75.676,108.571 75.608,108.687 75.527 C 108.803 75.445,109.594 74.237,110.446 72.842 C 111.297 71.447,112.584 69.471,113.305 68.452 C 114.026 67.433,114.557 66.599,114.484 66.599 C 114.412 66.599,114.497 66.486,114.673 66.347 C 114.849 66.208,115.797 65.084,116.780 63.849 C 119.847 59.994,127.718 51.665,128.294 51.665 C 128.466 51.665,131.584 48.942,131.584 48.792 C 131.584 48.694,131.668 48.666,131.770 48.729 C 131.872 48.792,132.132 48.619,132.349 48.344 C 132.565 48.069,132.783 47.885,132.833 47.935 C 132.883 47.986,133.258 47.721,133.667 47.346 C 134.075 46.972,134.410 46.709,134.410 46.761 C 134.410 46.813,134.750 46.588,135.166 46.262 C 135.583 45.936,136.718 45.143,137.689 44.500 C 138.660 43.856,139.455 43.247,139.455 43.146 C 139.455 43.046,139.540 43.016,139.645 43.080 C 139.749 43.145,139.924 43.036,140.034 42.840 C 140.144 42.643,140.287 42.507,140.351 42.537 C 140.557 42.633,141.675 41.976,141.675 41.759 C 141.675 41.644,141.752 41.598,141.846 41.656 C 141.941 41.714,142.211 41.582,142.448 41.361 C 142.685 41.141,142.903 40.971,142.933 40.983 C 143.101 41.054,144.097 40.468,144.097 40.297 C 144.097 40.186,144.144 40.142,144.202 40.200 C 144.260 40.258,145.544 39.644,147.054 38.837 C 148.565 38.029,150.765 36.931,151.944 36.397 C 153.122 35.863,154.142 35.348,154.210 35.254 C 154.278 35.159,154.369 35.107,154.412 35.137 C 154.578 35.255,156.609 34.421,156.609 34.235 C 156.609 34.128,156.667 34.097,156.737 34.167 C 156.807 34.237,157.057 34.189,157.292 34.059 C 157.527 33.930,157.824 33.806,157.951 33.784 C 158.188 33.744,161.355 32.601,162.260 32.229 C 162.538 32.115,162.833 32.003,162.916 31.980 C 162.999 31.956,163.090 31.919,163.118 31.897 C 163.146 31.874,163.305 31.828,163.471 31.794 C 163.918 31.703,169.778 30.055,170.131 29.922 C 170.298 29.858,170.525 29.789,170.636 29.768 C 170.747 29.746,170.883 29.707,170.938 29.681 C 170.994 29.655,171.221 29.608,171.443 29.576 C 171.665 29.545,173.436 29.193,175.378 28.795 C 180.526 27.739,182.387 27.469,188.093 26.948 C 194.942 26.322,198.837 26.259,206.862 26.648 M162.765 57.506 C 162.543 57.595,162.299 57.633,162.223 57.590 C 162.046 57.488,160.472 57.839,159.714 58.149 C 159.394 58.280,158.954 58.420,158.737 58.462 C 158.520 58.503,158.293 58.603,158.233 58.683 C 158.172 58.764,157.987 58.858,157.820 58.894 C 153.697 59.770,149.722 67.265,150.736 72.250 C 150.860 72.861,150.999 73.589,151.046 73.868 C 151.265 75.200,152.945 78.507,153.401 78.507 C 153.501 78.507,153.582 78.635,153.582 78.792 C 153.582 79.995,158.839 83.085,161.352 83.360 C 166.528 83.926,170.788 82.865,173.429 80.354 C 174.221 79.601,175.499 77.901,175.273 77.901 C 175.204 77.901,175.284 77.765,175.450 77.599 C 176.971 76.078,177.451 69.202,176.246 66.196 C 176.180 66.029,176.091 65.713,176.048 65.492 C 175.757 63.966,172.669 59.518,172.132 59.850 C 172.030 59.912,171.948 59.868,171.948 59.752 C 171.948 58.491,164.706 56.720,162.765 57.506 M232.413 57.918 C 225.142 59.476,221.879 64.833,223.329 72.830 C 224.995 82.025,232.831 86.132,241.398 82.302 C 242.161 81.961,242.785 81.588,242.785 81.473 C 242.785 81.359,242.842 81.322,242.912 81.391 C 243.587 82.067,248.213 76.727,248.489 74.952 C 248.522 74.743,248.610 74.472,248.686 74.351 C 249.638 72.828,249.218 64.985,248.185 64.985 C 248.088 64.985,248.057 64.907,248.115 64.812 C 248.285 64.537,246.887 62.353,245.851 61.277 C 242.722 58.026,237.730 56.778,232.413 57.918 M85.868 129.419 C 85.684 130.398,85.846 334.753,86.031 334.938 C 86.118 335.024,92.724 335.077,100.713 335.055 L 115.237 335.014 115.252 336.074 C 115.261 336.657,115.257 352.284,115.245 370.801 C 115.223 403.071,115.283 407.128,115.795 407.958 C 115.863 408.067,115.940 408.359,115.966 408.607 C 116.093 409.799,118.525 414.993,119.139 415.384 C 119.268 415.466,119.284 415.538,119.173 415.543 C 119.062 415.548,119.116 415.663,119.293 415.799 C 119.471 415.934,119.607 416.107,119.596 416.184 C 119.456 417.160,127.590 424.707,129.161 425.060 C 129.323 425.096,129.568 425.230,129.705 425.356 C 132.960 428.361,149.334 428.375,155.298 425.380 C 155.964 425.045,156.575 424.670,156.657 424.545 C 156.738 424.421,156.807 424.392,156.808 424.482 C 156.813 424.749,159.855 422.564,160.190 422.052 C 160.360 421.794,160.549 421.632,160.611 421.694 C 160.744 421.827,162.664 419.975,162.664 419.714 C 162.664 419.615,162.892 419.354,163.170 419.135 C 163.449 418.916,163.631 418.663,163.575 418.572 C 163.519 418.482,163.599 418.359,163.752 418.301 C 165.475 417.639,169.371 409.027,170.068 404.339 C 170.150 403.784,170.245 387.959,170.278 369.173 L 170.339 335.015 199.976 335.015 L 229.613 335.015 229.765 341.927 C 229.849 345.729,229.885 361.282,229.845 376.488 C 229.776 402.817,229.791 404.219,230.147 405.853 C 232.864 418.302,242.267 426.709,254.289 427.436 C 257.046 427.603,263.188 427.448,264.817 427.170 C 267.519 426.709,274.620 423.297,275.015 422.270 C 275.071 422.122,275.191 422.046,275.281 422.101 C 275.498 422.235,278.526 418.963,278.388 418.741 C 278.329 418.645,278.379 418.567,278.499 418.567 C 278.619 418.567,279.219 417.797,279.832 416.857 C 281.081 414.941,282.848 411.705,282.646 411.705 C 282.573 411.705,282.657 411.563,282.831 411.388 C 283.006 411.214,283.148 410.941,283.148 410.783 C 283.148 410.295,283.176 410.200,283.392 409.939 C 283.507 409.801,283.534 409.687,283.451 409.687 C 283.368 409.687,283.395 409.574,283.509 409.435 C 283.749 409.145,284.251 407.227,284.472 405.752 C 284.556 405.197,284.602 389.054,284.574 369.879 L 284.524 335.015 299.275 335.015 L 314.026 335.015 314.026 231.887 L 314.026 128.759 200.009 128.759 L 85.992 128.759 85.868 129.419 M361.049 129.183 C 360.439 129.279,359.803 129.370,359.637 129.383 C 358.986 129.438,355.499 130.221,355.009 130.423 C 354.724 130.541,354.316 130.670,354.103 130.711 C 353.889 130.752,353.594 130.885,353.447 131.008 C 353.299 131.130,353.179 131.174,353.179 131.106 C 353.179 130.924,351.489 131.620,351.315 131.873 C 351.233 131.992,351.165 132.017,351.164 131.929 C 351.159 131.698,347.124 133.803,347.124 134.037 C 347.124 134.144,347.045 134.183,346.948 134.123 C 346.851 134.063,346.538 134.229,346.254 134.493 C 345.969 134.757,345.701 134.938,345.658 134.895 C 345.289 134.526,337.072 142.257,337.352 142.710 C 337.412 142.807,337.367 142.886,337.252 142.886 C 336.476 142.886,332.787 149.758,331.889 152.876 C 330.581 157.417,330.676 152.618,330.676 213.925 C 330.676 266.317,330.723 271.800,331.183 272.659 C 331.285 272.849,331.317 273.056,331.254 273.118 C 331.192 273.181,331.212 273.348,331.299 273.490 C 331.387 273.631,331.479 273.932,331.504 274.159 C 331.530 274.386,331.663 274.844,331.800 275.177 C 331.937 275.510,332.081 275.943,332.119 276.140 C 332.341 277.284,334.531 281.736,334.872 281.736 C 334.988 281.736,335.026 281.792,334.958 281.860 C 334.412 282.406,339.922 288.890,343.290 291.665 C 345.749 293.691,351.198 296.870,352.674 297.140 C 352.896 297.181,353.350 297.326,353.683 297.464 C 356.760 298.733,365.076 299.227,370.636 298.471 C 371.413 298.365,372.399 298.237,372.827 298.185 C 376.667 297.727,382.898 295.237,384.937 293.348 C 385.230 293.077,385.469 292.907,385.469 292.970 C 385.469 293.119,386.984 291.898,388.862 290.235 C 393.074 286.507,396.836 280.290,398.588 274.166 C 398.806 273.404,398.943 272.741,398.894 272.691 C 398.844 272.641,398.894 272.431,399.005 272.224 C 399.272 271.725,399.503 269.915,399.722 266.599 C 399.909 263.774,399.786 160.057,399.594 158.527 C 399.300 156.188,399.148 155.395,398.973 155.287 C 398.882 155.230,398.854 155.060,398.913 154.908 C 398.971 154.756,398.920 154.571,398.800 154.497 C 398.679 154.422,398.629 154.283,398.688 154.188 C 398.747 154.092,398.707 153.959,398.599 153.892 C 398.491 153.826,398.454 153.638,398.517 153.475 C 398.579 153.312,398.525 153.179,398.395 153.179 C 398.266 153.179,398.212 153.095,398.275 152.992 C 398.636 152.408,395.415 146.136,393.241 143.189 C 390.359 139.281,383.295 132.974,382.413 133.520 C 382.318 133.578,382.240 133.533,382.240 133.418 C 382.240 133.161,378.602 131.362,378.371 131.505 C 378.279 131.562,378.204 131.528,378.204 131.431 C 378.204 131.288,376.590 130.679,375.687 130.481 C 375.573 130.456,375.226 130.332,374.917 130.205 C 374.608 130.078,374.290 129.988,374.211 130.004 C 374.132 130.020,373.930 129.978,373.764 129.909 C 372.058 129.205,363.874 128.738,361.049 129.183 M30.878 129.382 C 30.156 129.475,29.339 129.612,29.062 129.687 C 28.784 129.762,28.299 129.856,27.984 129.897 C 24.332 130.365,18.451 132.820,14.210 135.647 C 10.642 138.025,4.597 144.479,4.198 146.336 C 4.165 146.492,4.081 146.665,4.012 146.720 C 3.766 146.919,2.621 149.344,2.772 149.347 C 2.857 149.349,2.811 149.424,2.670 149.513 C 1.693 150.133,0.452 155.821,0.197 160.848 C -0.042 165.557,0.020 264.563,0.263 266.902 C 0.344 267.679,0.410 268.517,0.410 268.764 C 0.404 272.392,2.758 279.301,5.359 283.294 C 7.476 286.543,11.536 291.221,12.240 291.221 C 12.390 291.221,12.513 291.306,12.513 291.411 C 12.513 291.885,18.032 295.564,18.401 295.336 C 18.492 295.280,18.567 295.313,18.567 295.410 C 18.567 296.058,25.458 298.069,28.766 298.387 C 36.677 299.147,42.827 298.818,46.115 297.459 C 46.809 297.172,46.721 297.200,47.578 296.996 C 47.939 296.910,48.234 296.751,48.234 296.642 C 48.234 296.533,48.312 296.492,48.407 296.551 C 48.624 296.685,52.075 294.966,52.300 294.612 C 52.391 294.467,52.467 294.422,52.469 294.512 C 52.474 294.743,56.124 292.213,56.247 291.893 C 56.303 291.747,56.421 291.672,56.509 291.726 C 56.598 291.781,56.949 291.508,57.289 291.119 C 57.630 290.731,57.994 290.414,58.098 290.414 C 58.345 290.414,60.689 287.890,62.209 285.988 C 65.699 281.619,67.743 277.505,68.883 272.553 C 69.368 270.446,69.699 165.403,69.238 159.793 C 68.832 154.848,66.366 146.968,64.951 146.094 C 64.840 146.025,64.758 145.910,64.770 145.838 C 64.813 145.575,64.161 144.501,63.959 144.501 C 63.844 144.501,63.796 144.426,63.852 144.335 C 63.984 144.121,61.538 140.858,60.747 140.192 C 60.414 139.912,60.141 139.602,60.141 139.502 C 60.141 139.115,55.439 135.143,55.229 135.353 C 55.156 135.426,55.096 135.387,55.096 135.267 C 55.096 135.026,53.674 134.080,53.431 134.159 C 53.348 134.186,53.280 134.125,53.280 134.023 C 53.280 133.246,45.337 130.140,42.177 129.681 C 41.790 129.625,40.883 129.487,40.161 129.375 C 38.623 129.135,32.767 129.140,30.878 129.382 M300.050 141.579 L 301.110 141.704 301.141 157.179 C 301.157 165.690,301.161 193.496,301.148 218.971 C 301.135 244.445,301.121 278.252,301.117 294.097 L 301.110 322.906 286.750 322.906 L 272.390 322.906 272.500 360.595 C 272.608 397.473,272.548 403.403,272.047 405.247 C 271.911 405.747,271.784 406.246,271.764 406.357 C 271.373 408.566,267.618 412.861,264.884 414.228 C 263.996 414.672,263.214 415.111,263.146 415.204 C 263.078 415.297,262.962 415.355,262.888 415.333 C 262.814 415.312,262.552 415.359,262.305 415.438 C 262.058 415.518,261.766 415.598,261.655 415.618 C 261.544 415.637,260.773 415.776,259.942 415.925 C 257.963 416.282,254.617 416.117,252.926 415.580 C 252.233 415.359,251.664 415.237,251.662 415.309 C 251.660 415.380,251.592 415.348,251.511 415.237 C 251.429 415.126,250.859 414.796,250.243 414.503 C 249.628 414.210,248.546 413.506,247.839 412.939 C 247.132 412.371,246.477 411.907,246.385 411.907 C 246.292 411.907,246.216 411.782,246.216 411.629 C 246.216 411.476,246.064 411.226,245.878 411.074 C 245.226 410.539,243.650 407.901,243.107 406.435 C 241.806 402.925,241.903 406.265,241.832 362.614 L 241.768 322.906 199.992 322.906 L 158.216 322.906 158.206 360.293 C 158.196 397.294,158.181 399.355,157.908 401.715 C 157.830 402.381,157.745 403.153,157.718 403.431 C 157.690 403.708,157.566 404.191,157.441 404.504 C 157.317 404.816,157.215 405.180,157.215 405.312 C 157.215 406.197,155.099 409.758,153.672 411.275 C 145.548 419.911,130.861 416.504,127.931 405.305 C 127.356 403.106,127.394 406.007,127.371 362.513 L 127.351 322.906 113.019 322.906 L 98.688 322.906 98.674 295.812 C 98.625 205.668,98.722 141.964,98.909 141.777 C 99.299 141.386,296.769 141.192,300.050 141.579 M42.684 142.707 C 43.461 142.947,44.210 143.146,44.349 143.149 C 44.488 143.152,44.601 143.221,44.601 143.301 C 44.601 143.434,45.280 143.673,45.668 143.677 C 45.755 143.678,45.967 143.819,46.139 143.991 C 46.310 144.162,46.534 144.251,46.636 144.188 C 46.738 144.125,46.821 144.150,46.821 144.243 C 46.821 144.407,47.909 145.132,48.128 145.114 C 48.186 145.110,48.402 145.265,48.607 145.459 C 48.812 145.653,49.624 146.357,50.411 147.023 C 51.198 147.689,51.847 148.301,51.854 148.384 C 51.867 148.538,52.992 150.097,53.681 150.916 C 53.895 151.170,54.060 151.397,54.048 151.420 C 53.996 151.526,54.969 153.293,55.140 153.403 C 55.246 153.471,55.308 153.562,55.278 153.605 C 55.248 153.648,55.508 154.471,55.856 155.434 C 56.455 157.089,57.089 159.895,57.216 161.453 C 57.312 162.628,57.320 265.341,57.225 265.627 C 57.176 265.774,57.079 266.665,57.010 267.608 C 56.861 269.633,56.808 270.023,56.625 270.456 C 56.549 270.635,56.464 271.002,56.435 271.272 C 56.406 271.542,56.332 271.850,56.270 271.956 C 56.208 272.062,56.043 272.513,55.902 272.957 C 55.004 275.787,50.060 282.687,49.402 282.029 C 49.358 281.985,49.029 282.215,48.671 282.542 C 48.314 282.869,47.976 283.135,47.922 283.135 C 47.867 283.134,47.241 283.458,46.531 283.855 C 45.821 284.252,44.484 284.849,43.559 285.182 C 42.634 285.514,41.741 285.843,41.574 285.912 C 41.408 285.981,41.220 286.029,41.158 286.018 C 41.096 286.008,40.687 286.087,40.250 286.195 C 37.843 286.786,33.353 286.825,30.575 286.278 C 29.576 286.081,28.621 285.905,28.453 285.887 C 28.284 285.869,28.057 285.802,27.948 285.739 C 27.629 285.554,24.932 284.692,24.846 284.747 C 24.803 284.775,24.712 284.714,24.644 284.611 C 24.576 284.509,23.885 284.092,23.108 283.686 C 22.331 283.280,21.160 282.516,20.507 281.989 C 19.853 281.461,19.179 280.938,19.010 280.827 C 16.117 278.937,13.173 272.912,12.353 267.205 C 12.282 266.705,12.220 243.093,12.216 214.733 C 12.210 162.901,12.208 163.048,12.817 158.829 C 12.841 158.663,12.911 158.391,12.973 158.224 C 13.036 158.058,13.243 157.422,13.433 156.811 C 13.624 156.201,14.132 154.997,14.561 154.137 C 14.991 153.277,15.273 152.572,15.189 152.570 C 15.104 152.568,15.131 152.500,15.249 152.419 C 15.366 152.337,15.935 151.581,16.513 150.739 C 17.090 149.897,17.789 148.996,18.065 148.736 C 18.341 148.477,18.567 148.199,18.567 148.118 C 18.567 147.968,19.956 146.519,20.100 146.519 C 20.144 146.519,20.726 146.079,21.393 145.541 C 22.061 145.003,23.083 144.306,23.665 143.993 C 24.246 143.679,24.778 143.339,24.846 143.238 C 24.914 143.136,25.005 143.073,25.048 143.096 C 25.091 143.120,26.034 142.842,27.144 142.479 C 30.801 141.282,38.425 141.394,42.684 142.707 M369.728 141.749 C 370.672 141.860,372.467 142.304,373.390 142.656 C 373.684 142.768,373.979 142.805,374.046 142.739 C 374.113 142.672,374.168 142.705,374.168 142.812 C 374.168 142.919,374.492 143.124,374.888 143.267 C 378.256 144.485,383.535 149.937,385.467 154.191 C 385.743 154.800,386.061 155.364,386.173 155.446 C 386.286 155.528,386.313 155.596,386.235 155.597 C 386.157 155.599,386.230 155.986,386.399 156.458 C 386.762 157.475,387.502 160.493,387.599 161.352 C 387.637 161.685,387.671 185.268,387.675 213.758 C 387.682 264.500,387.649 267.478,387.057 269.714 C 386.941 270.150,386.815 270.741,386.777 271.026 C 386.739 271.311,386.690 271.567,386.669 271.594 C 386.647 271.622,386.609 271.713,386.584 271.796 C 386.559 271.879,386.417 272.265,386.269 272.654 C 386.121 273.042,386.025 273.395,386.055 273.439 C 386.085 273.482,386.033 273.572,385.941 273.640 C 385.848 273.708,385.499 274.304,385.166 274.964 C 384.834 275.624,384.133 276.736,383.611 277.436 C 383.088 278.136,382.697 278.708,382.742 278.708 C 382.925 278.708,379.838 281.506,378.708 282.364 C 377.362 283.386,374.918 284.853,374.218 285.060 C 373.968 285.133,373.764 285.294,373.764 285.416 C 373.764 285.538,373.710 285.584,373.645 285.518 C 373.542 285.416,372.545 285.694,371.544 286.105 C 371.377 286.173,371.060 286.254,370.838 286.285 C 370.616 286.315,369.889 286.439,369.223 286.559 C 363.955 287.512,355.620 285.507,351.140 282.209 C 350.485 281.727,349.919 281.332,349.884 281.332 C 349.783 281.332,346.762 278.286,346.713 278.135 C 346.659 277.965,345.473 276.219,345.321 276.085 C 345.258 276.029,345.190 275.893,345.170 275.782 C 345.150 275.671,344.838 274.945,344.478 274.168 C 344.118 273.391,343.797 272.616,343.766 272.446 C 343.735 272.277,343.565 271.550,343.390 270.832 C 343.214 270.113,343.015 269.253,342.948 268.920 C 342.717 267.764,342.647 163.513,342.877 161.251 C 343.280 157.279,344.484 153.723,346.342 151.024 C 346.710 150.488,346.993 150.030,346.971 150.005 C 346.949 149.979,347.134 149.747,347.381 149.488 C 349.676 147.082,350.983 145.773,351.294 145.566 C 351.498 145.431,352.210 144.981,352.876 144.568 C 353.542 144.154,354.117 143.742,354.154 143.652 C 354.192 143.562,354.305 143.540,354.407 143.603 C 354.508 143.666,354.591 143.621,354.591 143.503 C 354.591 143.386,354.659 143.308,354.743 143.331 C 354.935 143.384,357.080 142.666,357.215 142.503 C 357.270 142.436,357.407 142.381,357.518 142.381 C 357.629 142.380,358.310 142.260,359.031 142.113 C 359.753 141.966,360.646 141.785,361.017 141.710 C 361.775 141.557,368.330 141.587,369.728 141.749 " stroke="none" fill="#24242b" fill-rule="evenodd"></path><path id="path2" d="" stroke="none" fill="#2c3028" fill-rule="evenodd"></path><path id="path3" d="" stroke="none" fill="#2c3028" fill-rule="evenodd"></path><path id="path4" d="" stroke="none" fill="#2c3028" fill-rule="evenodd"></path></g></svg>