<svg width="34" height="34" viewBox="0 0 34 34" fill="none" xmlns="http://www.w3.org/2000/svg">
<path fill-rule="evenodd" clip-rule="evenodd" d="M24.65 24.48C24.48 24.48 24.31 24.48 24.14 24.48C24.0833 24.48 24.0833 24.48 24.0267 24.48C23.8567 24.48 23.63 24.48 23.46 24.48C23.29 24.48 23.0633 24.48 22.8933 24.48H22.8367C22.6667 24.48 22.4967 24.48 22.3267 24.48C22.3267 24.48 22.3267 24.48 22.27 24.48C18.4167 24.3667 14.62 23.6867 12.4667 22.4967V26.1233C13.6567 27.37 17.9067 28.5033 23.5167 28.5033C28.4467 28.5033 32.3 27.5967 34 26.5767V22.78C31.79 23.8 28.2767 24.3667 24.65 24.48C24.7067 24.48 24.7067 24.48 24.65 24.48ZM12.4667 17.3967V21.0233C12.5233 21.08 12.5233 21.08 12.58 21.1367L12.6367 21.1933C14.0533 22.3267 18.2467 23.4033 23.5167 23.4033C28.3333 23.4033 32.3 22.4967 34 21.4767V17.7367C31.5633 18.87 27.4267 19.4367 23.5167 19.4367C19.2667 19.4367 14.8467 18.7 12.4667 17.3967ZM12.4667 27.5967V30.0333C12.4667 30.1467 12.4667 30.2033 12.5233 30.26C13.09 32.6967 18.3033 34 23.2333 34C28.1633 34 33.32 32.7533 33.9433 30.26C34 30.2033 34 30.1467 34 30.0333V27.88C31.5633 29.0133 27.4833 29.58 23.5167 29.58C19.2667 29.6367 14.79 28.9 12.4667 27.5967ZM23.2333 10.37C18.3033 10.37 13.09 11.6733 12.5233 14.11C12.4667 14.1667 12.4667 14.2233 12.4667 14.3367V15.9233C13.7133 17.17 18.02 18.3033 23.5167 18.3033C28.3333 18.3033 32.3 17.3967 34 16.3767V14.3367C34 14.28 34 14.1667 33.9433 14.11C33.3767 11.6733 28.1633 10.37 23.2333 10.37ZM31.3933 0H2.60667C1.19 0 0 1.19 0 2.60667V9.29333C0 9.86 0.17 10.37 0.453333 10.7667H14.0533C16.32 9.74667 19.6633 9.18 22.95 9.18C26.2367 9.18 29.58 9.69 31.8467 10.7667H33.49C33.7733 10.37 33.9433 9.86 33.9433 9.29333V2.60667C34 1.19 32.81 0 31.3933 0ZM5.95 8.5C4.53333 8.5 3.4 7.36667 3.4 5.95C3.4 4.53333 4.53333 3.4 5.95 3.4C7.36667 3.4 8.5 4.53333 8.5 5.95C8.5 7.36667 7.36667 8.5 5.95 8.5ZM19.2667 5.66667C18.9267 5.66667 18.7 5.44 18.7 5.1C18.7 4.76 18.9267 4.53333 19.2667 4.53333C19.6067 4.53333 19.8333 4.76 19.8333 5.1C19.8333 5.44 19.6067 5.66667 19.2667 5.66667ZM20.4 7.36667C20.06 7.36667 19.8333 7.14 19.8333 6.8C19.8333 6.46 20.06 6.23333 20.4 6.23333C20.74 6.23333 20.9667 6.46 20.9667 6.8C20.9667 7.14 20.74 7.36667 20.4 7.36667ZM21.5333 5.66667C21.1933 5.66667 20.9667 5.44 20.9667 5.1C20.9667 4.76 21.1933 4.53333 21.5333 4.53333C21.8733 4.53333 22.1 4.76 22.1 5.1C22.1 5.44 21.8733 5.66667 21.5333 5.66667ZM22.6667 7.36667C22.3267 7.36667 22.1 7.14 22.1 6.8C22.1 6.46 22.3267 6.23333 22.6667 6.23333C23.0067 6.23333 23.2333 6.46 23.2333 6.8C23.2333 7.14 23.0067 7.36667 22.6667 7.36667ZM23.8 5.66667C23.46 5.66667 23.2333 5.44 23.2333 5.1C23.2333 4.76 23.46 4.53333 23.8 4.53333C24.14 4.53333 24.3667 4.76 24.3667 5.1C24.3667 5.44 24.14 5.66667 23.8 5.66667ZM24.9333 7.36667C24.5933 7.36667 24.3667 7.14 24.3667 6.8C24.3667 6.46 24.5933 6.23333 24.9333 6.23333C25.2733 6.23333 25.5 6.46 25.5 6.8C25.5 7.14 25.2733 7.36667 24.9333 7.36667ZM26.0667 5.66667C25.7267 5.66667 25.5 5.44 25.5 5.1C25.5 4.76 25.7267 4.53333 26.0667 4.53333C26.4067 4.53333 26.6333 4.76 26.6333 5.1C26.6333 5.44 26.4067 5.66667 26.0667 5.66667ZM27.2 7.36667C26.86 7.36667 26.6333 7.14 26.6333 6.8C26.6333 6.46 26.86 6.23333 27.2 6.23333C27.54 6.23333 27.7667 6.46 27.7667 6.8C27.7667 7.14 27.54 7.36667 27.2 7.36667ZM28.3333 5.66667C27.9933 5.66667 27.7667 5.44 27.7667 5.1C27.7667 4.76 27.9933 4.53333 28.3333 4.53333C28.6733 4.53333 28.9 4.76 28.9 5.1C28.9 5.44 28.6733 5.66667 28.3333 5.66667ZM29.4667 7.36667C29.1267 7.36667 28.9 7.14 28.9 6.8C28.9 6.46 29.1267 6.23333 29.4667 6.23333C29.8067 6.23333 30.0333 6.46 30.0333 6.8C30.0333 7.14 29.8067 7.36667 29.4667 7.36667ZM11.3333 21.5333C11.3333 21.42 11.3333 19.8333 11.3333 19.8333V14.28C11.3333 14.1667 11.3333 14.11 11.39 14.0533C11.6167 13.2033 12.41 12.4667 13.6 11.9H0.453333C0.17 12.2967 0 12.8067 0 13.3733V20.06C0 20.6267 0.17 21.1367 0.453333 21.5333H11.3333ZM5.95 14.1667C7.36667 14.1667 8.5 15.3 8.5 16.7167C8.5 18.1333 7.36667 19.2667 5.95 19.2667C4.53333 19.2667 3.4 18.1333 3.4 16.7167C3.4 15.3 4.53333 14.1667 5.95 14.1667ZM12.8633 32.0733C12.07 31.5633 11.56 30.9967 11.39 30.3167C11.3333 30.2033 11.3333 30.1467 11.3333 30.0333V22.6667H0.453333C0.17 23.0633 0 23.5733 0 24.14V30.8267C0 32.2433 1.19 33.4333 2.60667 33.4333H12.5233C13.26 33.4333 13.4867 32.4133 12.8633 32.0733ZM5.95 30.0333C4.53333 30.0333 3.4 28.9 3.4 27.4833C3.4 26.0667 4.53333 24.9333 5.95 24.9333C7.36667 24.9333 8.5 26.0667 8.5 27.4833C8.5 28.9 7.36667 30.0333 5.95 30.0333Z" fill="white"/>
</svg>
