<svg width="35" height="35" viewBox="0 0 35 35" fill="none" xmlns="http://www.w3.org/2000/svg">
<g clip-path="url(#clip0)">
<path d="M3.35931 12.2268C3.80205 12.5392 5.13665 13.4671 7.36317 15.01C9.58976 16.5529 11.2955 17.7409 12.4804 18.5741C12.6106 18.6654 12.8872 18.8639 13.3103 19.1699C13.7334 19.4761 14.0851 19.7236 14.3649 19.9123C14.6449 20.101 14.9834 20.3126 15.3807 20.5469C15.7779 20.781 16.1523 20.9571 16.5038 21.0737C16.8554 21.1912 17.1809 21.2494 17.4804 21.2494H17.5H17.5197C17.8191 21.2494 18.1448 21.1911 18.4964 21.0737C18.8478 20.9571 19.2225 20.7808 19.6194 20.5469C20.0164 20.3124 20.3549 20.1009 20.6349 19.9123C20.9149 19.7236 21.2663 19.4761 21.6896 19.1699C22.1126 18.8636 22.3896 18.6654 22.5197 18.5741C23.7175 17.7409 26.7646 15.6249 31.6603 12.2264C32.6107 11.5626 33.4048 10.7617 34.0427 9.8241C34.6811 8.88696 35 7.90385 35 6.87532C35 6.01582 34.6906 5.28008 34.072 4.66816C33.4535 4.0561 32.721 3.75024 31.8749 3.75024H3.12487C2.12233 3.75024 1.35081 4.08873 0.810446 4.76571C0.270149 5.44283 0 6.28919 0 7.30473C0 8.12502 0.358191 9.01393 1.07423 9.97091C1.7902 10.928 2.55215 11.68 3.35931 12.2268Z" fill="white"/>
<path d="M33.0466 14.3165C28.7763 17.2068 25.5337 19.4531 23.3204 21.0548C22.5782 21.6015 21.9762 22.0282 21.5138 22.334C21.0514 22.64 20.4365 22.9525 19.6681 23.2714C18.9 23.5907 18.1842 23.7499 17.52 23.7499H17.5001H17.4804C16.8164 23.7499 16.1001 23.5907 15.332 23.2714C14.5639 22.9525 13.9486 22.64 13.4864 22.334C13.0243 22.0282 12.422 21.6015 11.6799 21.0548C9.92196 19.7659 6.68633 17.5195 1.97286 14.3165C1.23048 13.822 0.572928 13.2552 0 12.6173V28.1247C0 28.9846 0.305858 29.7199 0.917917 30.3319C1.52984 30.9441 2.26565 31.2501 3.12508 31.2501H31.8752C32.7344 31.2501 33.4702 30.9441 34.0822 30.3319C34.6943 29.7197 35.0001 28.9847 35.0001 28.1247V12.6173C34.4401 13.242 33.7892 13.8088 33.0466 14.3165Z" fill="white"/>
</g>
<defs>
<clipPath id="clip0">
<rect width="35" height="35" fill="white"/>
</clipPath>
</defs>
</svg>
