<svg width="34" height="34" viewBox="0 0 34 34" fill="none" xmlns="http://www.w3.org/2000/svg">
<path d="M27 32H23C22.4467 32 22 32.4467 22 33C22 33.5533 22.4467 34 23 34H27C27.5533 34 28 33.5533 28 33C28 32.4467 27.5533 32 27 32Z" fill="white"/>
<path d="M19 32H15C14.4467 32 14 32.4467 14 33C14 33.5533 14.4467 34 15 34H19C19.5533 34 20 33.5533 20 33C20 32.4467 19.5533 32 19 32Z" fill="white"/>
<path d="M33 14C32.4467 14 32 14.4467 32 15V19C32 19.5533 32.4467 20 33 20C33.5533 20 34 19.5533 34 19V15C34 14.4467 33.5533 14 33 14Z" fill="white"/>
<path d="M33 22C32.4467 22 32 22.4467 32 23V27C32 27.5533 32.4467 28 33 28C33.5533 28 34 27.5533 34 27V23C34 22.4467 33.5533 22 33 22Z" fill="white"/>
<path d="M11 32H10V31C10 30.4467 9.55333 30 9 30C8.44667 30 8 30.4467 8 31V33C8 33.5533 8.44667 34 9 34H11C11.5533 34 12 33.5533 12 33C12 32.4467 11.5533 32 11 32Z" fill="white"/>
<path d="M33 8H31C30.4467 8 30 8.44667 30 9C30 9.55333 30.4467 10 31 10H32V11C32 11.5533 32.4467 12 33 12C33.5533 12 34 11.5533 34 11V9C34 8.44667 33.5533 8 33 8Z" fill="white"/>
<path d="M33 30C32.4467 30 32 30.4467 32 31V32H31C30.4467 32 30 32.4467 30 33C30 33.5533 30.4467 34 31 34H33C33.5533 34 34 33.5533 34 33V31C34 30.4467 33.5533 30 33 30Z" fill="white"/>
<path d="M27 8H26V1C26 0.446667 25.5533 0 25 0H1C0.446667 0 0 0.446667 0 1V25C0 25.5533 0.446667 26 1 26H8V27C8 27.5533 8.44667 28 9 28C9.55333 28 10 27.5533 10 27V25V10H25H27C27.5533 10 28 9.55333 28 9C28 8.44667 27.5533 8 27 8Z" fill="white"/>
</svg>
