<?xml version="1.0" standalone="no"?>
<!DOCTYPE svg PUBLIC "-//W3C//DTD SVG 20010904//EN"
 "http://www.w3.org/TR/2001/REC-SVG-20010904/DTD/svg10.dtd">
<svg version="1.0" xmlns="http://www.w3.org/2000/svg"
 width="871.000000pt" height="883.000000pt" viewBox="0 0 871.000000 883.000000"
 preserveAspectRatio="xMidYMid meet">

<g transform="translate(0.000000,883.000000) scale(0.100000,-0.100000)"
fill="#000000" stroke="none">
<path d="M4195 8803 c-290 -61 -521 -256 -600 -505 -100 -316 -4 -671 245
-901 154 -143 357 -208 576 -186 180 18 351 99 484 229 258 251 328 587 185
896 -111 242 -323 419 -563 469 -86 19 -237 18 -327 -2z m321 -257 c259 -69
422 -374 359 -671 -54 -254 -244 -397 -530 -399 -263 -1 -450 144 -516 402
-50 196 6 400 146 531 107 100 239 149 400 150 50 1 113 -5 141 -13z"/>
<path d="M950 8729 c-96 -5 -333 -12 -527 -16 -193 -5 -354 -11 -357 -14 -4
-3 -14 -42 -24 -85 -15 -71 -17 -150 -16 -784 1 -790 2 -804 59 -834 76 -41
165 -2 308 133 106 101 181 161 202 161 7 0 405 -398 885 -885 480 -487 875
-885 879 -883 3 2 44 42 90 90 l84 87 -25 38 c-83 125 -303 355 -578 604 -69
62 -343 327 -610 589 -713 699 -678 667 -731 681 -64 17 -112 -3 -213 -86 -43
-36 -80 -65 -82 -65 -2 0 -4 223 -4 495 l0 495 495 0 c272 0 495 -4 495 -8 0
-5 -9 -17 -21 -28 -34 -31 -106 -146 -125 -200 l-18 -52 43 -56 c209 -277
1164 -1258 1413 -1451 31 -25 53 -35 65 -30 10 3 54 39 97 79 l80 74 -29 37
c-70 92 -317 348 -807 838 l-529 527 124 123 c185 183 228 287 148 359 -79 71
-289 90 -771 67z"/>
<path d="M7355 8730 c-180 -12 -345 -36 -363 -54 -8 -8 -13 -35 -13 -70 0
-104 73 -221 227 -360 l76 -69 -688 -688 c-633 -633 -686 -689 -673 -706 7
-10 46 -55 86 -100 l72 -82 49 39 c186 147 919 884 1273 1280 128 143 199 232
199 249 0 9 -14 45 -31 81 -26 56 -54 96 -127 183 -14 16 10 17 491 17 l507 0
0 -495 c0 -361 -3 -495 -11 -495 -6 0 -41 22 -78 49 -36 27 -91 64 -121 84
-54 34 -57 34 -85 19 -125 -64 -529 -435 -1136 -1042 -403 -403 -616 -625
-752 -785 l-67 -78 87 -94 87 -94 81 83 c447 454 1606 1631 1634 1661 l37 38
41 -28 c23 -15 88 -69 145 -119 208 -184 280 -214 340 -147 42 46 49 96 58
423 14 470 -6 1091 -41 1221 -9 36 -10 36 -82 48 -39 6 -115 16 -167 22 -126
14 -877 20 -1055 9z"/>
<path d="M3865 6813 c-190 -7 -366 -41 -481 -93 -147 -66 -364 -252 -463 -394
-67 -97 -126 -222 -150 -317 -41 -161 -46 -311 -46 -1349 0 -542 4 -1042 9
-1112 l8 -128 132 0 c73 0 194 -3 269 -7 l137 -6 0 -1694 0 -1693 135 0 135 0
-2 1832 -3 1833 -271 3 -272 2 -8 328 c-14 505 -11 1411 4 1582 40 444 83 565
264 735 138 130 295 192 541 216 187 17 1027 6 1170 -15 333 -51 550 -183 654
-396 47 -98 69 -179 84 -312 15 -141 21 -902 12 -1556 l-8 -584 -261 1 c-233
2 -262 0 -268 -14 -21 -56 -27 -598 -21 -2055 l5 -1565 21 -17 c18 -15 41 -18
135 -18 l114 0 0 1689 0 1688 123 6 c67 4 188 10 268 13 l146 7 7 101 c35 531
32 1931 -4 2306 -24 240 -110 427 -286 619 -187 204 -386 314 -634 352 -66 10
-975 19 -1195 12z"/>
<path d="M4230 6146 c0 -146 -12 -136 153 -136 l107 0 0 130 0 130 -130 0
-130 0 0 -124z"/>
<path d="M4238 5724 c-5 -4 -8 -63 -8 -131 l0 -123 130 0 130 0 0 125 0 125
-48 0 c-27 0 -82 3 -123 6 -41 3 -77 3 -81 -2z"/>
<path d="M6128 3287 l-86 -72 21 -39 c42 -75 184 -233 447 -500 316 -320 1533
-1506 1564 -1523 11 -7 38 -17 59 -23 58 -17 102 1 196 80 47 38 88 70 93 70
4 0 8 -223 8 -495 l0 -495 -500 0 -500 0 63 83 c34 45 73 108 86 141 23 56 24
59 7 90 -25 45 -145 193 -262 320 -55 61 -258 264 -450 451 -518 505 -924 912
-979 983 l-48 62 -31 -19 c-17 -11 -66 -48 -108 -83 -77 -62 -77 -62 -61 -88
71 -111 499 -557 1141 -1189 265 -261 482 -477 482 -481 0 -3 -29 -31 -65 -60
-83 -68 -168 -169 -202 -239 -31 -62 -37 -161 -12 -187 45 -44 332 -68 824
-67 458 0 807 24 834 57 32 38 54 440 55 981 1 550 -7 651 -58 698 -27 25 -36
28 -74 23 -78 -10 -127 -41 -249 -156 -65 -61 -137 -123 -160 -137 l-43 -25
-567 574 c-853 863 -1327 1338 -1333 1338 -3 0 -44 -33 -92 -73z"/>
<path d="M1957 2823 c-294 -291 -682 -674 -864 -853 -181 -179 -365 -368 -408
-420 -43 -52 -82 -96 -86 -98 -14 -6 -121 73 -239 177 -132 116 -207 160 -245
143 -33 -15 -55 -52 -72 -120 -27 -112 -43 -1044 -23 -1311 11 -144 34 -264
53 -279 41 -32 374 -54 822 -55 476 0 812 27 837 65 4 7 8 40 8 74 0 97 -40
164 -181 304 l-115 116 444 434 c644 629 1192 1201 1192 1245 0 20 -123 129
-168 149 l-43 19 -32 -39 c-111 -136 -278 -304 -901 -909 -332 -322 -561 -561
-675 -703 -69 -86 -141 -197 -141 -217 0 -7 38 -63 84 -126 l84 -114 -46 -7
c-26 -3 -253 -7 -504 -7 l-458 -1 0 500 c0 275 3 500 7 500 3 0 53 -32 111
-71 57 -39 118 -75 136 -80 42 -12 87 4 166 60 107 75 1681 1630 1823 1800 97
116 151 196 144 214 -6 16 -154 137 -168 137 -5 0 -249 -237 -542 -527z"/>
<path d="M4237 2473 c-4 -368 -7 -1067 -7 -1554 l0 -886 68 -6 c37 -4 93 -7
125 -7 l57 0 0 538 c0 296 3 998 7 1560 l6 1022 -125 0 -125 0 -6 -667z"/>
</g>
</svg>
