<?xml version="1.0" standalone="no"?>
<!DOCTYPE svg PUBLIC "-//W3C//DTD SVG 20010904//EN"
 "http://www.w3.org/TR/2001/REC-SVG-20010904/DTD/svg10.dtd">
<svg version="1.0" xmlns="http://www.w3.org/2000/svg"
 width="560.000000pt" height="756.000000pt" viewBox="0 0 560.000000 756.000000"
 preserveAspectRatio="xMidYMid meet">

<g transform="translate(0.000000,756.000000) scale(0.100000,-0.100000)"
fill="#000000" stroke="none">
<path d="M2690 7480 c-482 -313 -931 -475 -1505 -544 -350 -42 -581 -55 -882
-49 l-293 6 0 -1004 c0 -1027 6 -1227 40 -1471 48 -341 130 -614 303 -1013 61
-139 105 -219 241 -434 142 -226 166 -270 166 -304 0 -22 -16 -89 -35 -151
-104 -335 -474 -1720 -462 -1732 8 -8 121 18 350 80 223 61 296 78 379 90 l37
5 47 -87 c26 -48 115 -197 197 -332 175 -284 297 -494 297 -509 0 -6 3 -11 8
-11 4 0 128 344 276 765 148 421 272 765 276 765 4 0 47 -18 96 -41 122 -57
338 -143 421 -169 111 -35 149 -39 217 -25 84 18 283 91 460 170 81 36 150 65
154 65 4 0 129 -346 277 -769 l269 -769 16 36 c10 20 86 150 170 287 207 338
308 510 337 573 l24 52 42 -6 c78 -12 161 -31 412 -97 138 -36 265 -68 283
-71 52 -9 53 -13 -97 525 -180 648 -351 1277 -362 1332 l-11 56 72 102 c161
229 343 570 424 794 20 55 43 114 52 130 16 30 24 55 87 295 38 141 75 322
104 500 15 93 17 232 20 1238 l4 1132 -393 -1 c-368 -2 -409 -1 -638 25 -431
47 -693 109 -1015 238 -271 109 -616 288 -715 371 -17 15 -35 27 -38 27 -4 -1
-54 -32 -112 -70z m555 -540 c374 -183 530 -229 1090 -321 184 -31 202 -32
571 -36 l381 -5 6 -471 c9 -619 8 -976 -3 -1117 -5 -63 -14 -185 -20 -270 -14
-205 -34 -336 -75 -505 -97 -397 -268 -808 -452 -1090 -152 -233 -321 -439
-534 -656 -153 -155 -203 -195 -504 -400 -265 -180 -354 -229 -620 -339 l-180
-75 -110 0 c-107 0 -113 1 -215 44 -185 77 -441 206 -573 290 -571 359 -985
810 -1310 1429 -114 217 -249 602 -297 844 -73 368 -80 497 -80 1494 l0 821
383 6 c413 6 517 15 782 68 483 97 693 175 1153 427 l163 89 122 -64 c67 -35
212 -109 322 -163z m-2091 -4668 c259 -255 320 -306 561 -463 99 -65 191 -126
204 -135 39 -28 41 -16 -196 -769 -74 -236 -138 -434 -142 -438 -5 -4 -63 86
-131 200 -68 114 -174 294 -236 399 l-113 191 -282 -83 c-155 -46 -283 -83
-284 -81 -4 4 390 1397 394 1397 3 0 104 -98 225 -218z m3747 -490 c107 -383
194 -698 193 -700 -1 -2 -125 33 -276 77 -150 45 -278 81 -283 81 -6 0 -116
-180 -245 -399 -129 -220 -237 -397 -239 -395 -9 8 -321 1004 -345 1100 -23
91 -22 100 27 131 194 123 399 265 482 334 55 46 186 170 290 276 105 106 192
192 195 193 3 0 93 -314 201 -698z"/>
<path d="M3116 5125 l-619 -614 -155 149 -155 148 -358 -350 -358 -351 506
-514 c278 -282 508 -513 512 -513 3 0 444 438 980 974 l975 975 -349 353
c-191 194 -351 354 -354 355 -3 1 -285 -274 -625 -612z m821 87 l181 -189
-801 -801 c-441 -441 -805 -802 -809 -802 -7 0 -343 339 -607 612 l-94 97 178
173 c98 95 182 175 187 177 6 2 79 -65 164 -150 l153 -153 193 186 c106 103
389 378 628 612 239 233 437 425 440 425 3 1 87 -84 187 -187z"/>
</g>
</svg>
