<?xml version="1.0" standalone="no"?>
<!DOCTYPE svg PUBLIC "-//W3C//DTD SVG 20010904//EN"
 "http://www.w3.org/TR/2001/REC-SVG-20010904/DTD/svg10.dtd">
<svg version="1.0" xmlns="http://www.w3.org/2000/svg"
 width="792.000000pt" height="821.000000pt" viewBox="0 0 792.000000 821.000000"
 preserveAspectRatio="xMidYMid meet">

<g transform="translate(0.000000,821.000000) scale(0.100000,-0.100000)"
fill="#000000" stroke="none">
<path d="M3653 8185 c-769 -88 -1469 -413 -2002 -930 -330 -321 -570 -675
-736 -1090 -296 -736 -311 -1618 -40 -2352 20 -54 94 -215 165 -358 71 -143
134 -277 141 -297 l13 -38 -100 -92 c-54 -51 -178 -174 -274 -273 -203 -209
-332 -338 -561 -560 -149 -145 -170 -169 -205 -240 -37 -75 -39 -84 -39 -172
0 -66 4 -96 13 -102 7 -4 151 -50 320 -101 509 -154 782 -252 884 -317 72 -45
123 -176 218 -566 34 -137 75 -290 91 -340 58 -174 138 -295 217 -331 39 -17
40 -17 83 5 127 64 327 243 704 627 740 756 901 908 1015 966 53 28 242 46
460 46 245 -1 363 -38 485 -151 37 -35 222 -226 409 -424 644 -679 962 -977
1126 -1057 77 -38 150 -22 205 44 38 45 57 90 103 248 22 74 65 218 95 320 31
102 74 252 97 335 51 181 86 255 141 294 45 33 149 69 374 131 383 106 563
168 744 256 l114 56 -6 84 c-10 142 -19 155 -303 434 -137 134 -393 387 -568
562 l-320 316 28 72 c16 39 75 166 133 282 175 354 228 491 277 710 94 419
100 931 15 1368 -96 498 -301 950 -625 1380 -521 690 -1232 1114 -2084 1242
-178 26 -625 34 -807 13z m694 -369 c245 -37 452 -91 666 -176 955 -375 1643
-1231 1816 -2256 61 -359 55 -731 -15 -1072 -257 -1246 -1386 -2215 -2694
-2312 -642 -48 -1337 164 -1886 575 -654 491 -1063 1194 -1170 2010 -21 159
-24 534 -5 680 44 348 134 648 282 945 265 529 683 964 1214 1263 345 194 770
323 1185 361 98 9 509 -3 607 -18z m-2769 -5155 c194 -184 241 -225 367 -327
328 -263 633 -430 1005 -548 63 -20 121 -39 128 -41 13 -5 -1152 -1195 -1169
-1195 -15 0 -60 89 -94 182 -18 51 -56 185 -84 298 -77 307 -116 415 -179 498
-51 67 -270 154 -740 293 -155 46 -281 87 -279 92 3 10 877 897 884 897 2 0
75 -67 161 -149z m5321 -249 c352 -351 486 -500 469 -517 -3 -3 -101 -33 -219
-66 -451 -127 -726 -232 -782 -299 -63 -74 -105 -186 -187 -499 -64 -246 -104
-368 -146 -438 l-26 -46 -78 79 c-342 346 -1090 1117 -1090 1122 0 4 44 20 98
35 480 139 926 421 1409 892 76 74 141 134 146 135 4 0 187 -179 406 -398z"/>
<path d="M3885 6454 c-76 -39 -112 -97 -189 -307 -29 -78 -91 -236 -138 -352
-47 -115 -91 -229 -98 -252 -7 -23 -19 -44 -26 -47 -14 -5 -214 -18 -559 -36
-222 -12 -298 -21 -427 -51 l-87 -20 -10 -50 c-18 -84 -14 -150 14 -205 21
-42 46 -66 152 -147 71 -53 232 -183 358 -290 223 -188 230 -195 227 -228 -3
-45 -48 -218 -116 -457 -67 -232 -86 -329 -86 -431 0 -102 26 -156 90 -189 87
-45 187 -13 388 122 75 51 193 131 262 177 69 47 168 106 219 133 l94 49 65
-32 c35 -18 168 -102 295 -188 250 -169 393 -245 502 -268 101 -21 132 -19
149 8 31 47 49 147 43 247 -7 125 -25 205 -112 510 -40 140 -76 276 -80 302
l-7 47 91 90 c103 102 213 190 400 318 224 155 266 214 266 370 -1 51 -6 98
-12 104 -35 35 -260 64 -646 84 -251 13 -437 29 -442 38 -1 1 -14 40 -30 87
-15 47 -62 166 -103 265 -41 99 -92 232 -114 295 -66 189 -106 256 -174 296
-48 28 -114 32 -159 8z m215 -1004 c67 -162 124 -297 126 -300 5 -4 563 -48
632 -49 22 -1 32 -6 32 -16 0 -26 -87 -112 -220 -218 -233 -186 -245 -203
-243 -347 1 -79 9 -126 48 -275 67 -255 69 -264 61 -272 -10 -10 -73 25 -245
135 -205 131 -261 157 -336 157 -74 0 -137 -31 -401 -194 -145 -90 -180 -107
-182 -93 -2 10 17 97 42 193 55 212 76 330 76 418 l0 67 -137 114 c-149 125
-333 299 -333 315 0 7 77 16 208 23 318 19 422 44 475 114 15 19 53 100 85
181 62 154 171 362 184 349 4 -4 62 -140 128 -302z"/>
</g>
</svg>
