<?xml version="1.0" standalone="no"?>
<!DOCTYPE svg PUBLIC "-//W3C//DTD SVG 20010904//EN"
 "http://www.w3.org/TR/2001/REC-SVG-20010904/DTD/svg10.dtd">
<svg version="1.0" xmlns="http://www.w3.org/2000/svg"
 width="977.000000pt" height="1030.000000pt" viewBox="0 0 977.000000 1030.000000"
 preserveAspectRatio="xMidYMid meet">

<g transform="translate(0.000000,1030.000000) scale(0.100000,-0.100000)"
fill="#000000" stroke="none">
<path d="M2330 10268 c-20 -13 -46 -44 -60 -73 -23 -47 -25 -62 -28 -242 l-4
-193 -657 0 c-529 0 -674 -3 -747 -15 -442 -71 -713 -342 -806 -805 -11 -53
-13 -813 -13 -4085 l0 -4020 24 -90 c47 -179 130 -324 262 -452 168 -165 340
-245 586 -273 70 -8 1225 -10 4068 -8 l3970 3 96 27 c198 54 329 127 456 254
121 121 203 265 256 452 l22 77 3 3990 c2 2766 -1 4015 -8 4072 -42 325 -204
586 -456 735 -223 131 -401 153 -1230 146 -532 -4 -534 -4 -534 17 -1 11 -2
97 -3 190 -2 149 -5 176 -23 215 -34 72 -64 93 -137 98 -76 4 -116 -17 -149
-80 -21 -40 -23 -58 -26 -245 l-4 -203 -1068 0 -1067 0 1 193 c1 186 0 194
-24 242 -33 66 -77 95 -145 95 -135 0 -184 -108 -170 -382 l7 -138 -373 0
c-206 0 -687 -3 -1071 -7 l-696 -6 -4 204 c-3 180 -5 209 -23 243 -29 57 -64
79 -132 84 -48 3 -64 0 -93 -20z m-93 -841 c4 -5 10 -97 13 -205 4 -175 7
-202 26 -237 27 -52 74 -79 135 -78 63 1 108 28 139 84 24 42 25 54 30 241 3
108 8 199 11 202 3 3 482 3 1065 -2 l1059 -7 6 -195 c6 -223 16 -264 76 -301
50 -31 131 -30 178 2 59 41 69 78 75 299 l5 195 130 6 c72 4 549 7 1061 8 841
1 932 -1 938 -15 3 -9 6 -87 6 -174 0 -191 11 -250 54 -297 58 -63 168 -65
226 -3 42 45 50 91 50 281 0 96 5 181 10 189 8 13 93 15 662 15 722 0 740 -1
873 -65 217 -103 339 -290 365 -556 11 -118 14 -816 4 -901 l-7 -53 -4542 0
-4542 0 -7 53 c-9 81 -7 800 4 908 22 231 115 391 298 512 64 42 185 83 282
96 83 11 1306 9 1317 -2z m7193 -5210 c0 -3265 0 -3315 -20 -3391 -62 -242
-258 -429 -496 -471 -80 -15 -465 -16 -4007 -16 -2581 1 -3942 5 -3990 11
-184 26 -292 73 -387 169 -77 78 -119 156 -158 298 l-27 98 -3 3308 -2 3307
4545 0 4545 0 0 -3313z"/>
<path d="M4430 6491 c-143 -7 -171 -19 -214 -84 -39 -61 -37 -126 7 -173 55
-60 99 -66 562 -71 487 -5 683 4 723 33 71 53 90 130 52 210 -23 46 -45 59
-130 75 -65 12 -820 20 -1000 10z"/>
<path d="M7572 6489 c-173 -7 -174 -7 -204 -36 -41 -39 -58 -75 -58 -123 0
-77 45 -135 118 -151 66 -15 812 -23 1009 -11 177 12 197 18 233 77 25 41 26
117 2 165 -26 52 -69 69 -213 80 -141 11 -629 11 -887 -1z"/>
<path d="M1260 5049 c-80 -9 -110 -20 -143 -53 -23 -23 -47 -80 -47 -111 0
-66 58 -137 125 -154 29 -7 221 -11 568 -11 569 0 592 2 656 56 83 70 49 215
-61 259 -37 14 -100 17 -537 18 -273 2 -525 -1 -561 -4z"/>
<path d="M4470 5049 c-74 -3 -145 -7 -157 -8 -13 0 -41 -17 -63 -37 -95 -86
-69 -231 46 -263 103 -29 680 -37 1079 -14 l110 6 42 41 c32 32 43 52 48 88
13 86 -24 147 -101 167 -104 28 -654 39 -1004 20z"/>
<path d="M7487 5049 c-109 -12 -165 -57 -174 -142 -7 -61 1 -90 37 -131 22
-24 44 -37 78 -44 67 -15 763 -23 974 -12 110 6 190 15 211 23 88 37 111 180
41 251 -56 55 -84 58 -614 60 -267 1 -515 -1 -553 -5z"/>
<path d="M1245 3601 c-133 -16 -194 -91 -165 -202 15 -55 41 -84 94 -104 36
-14 113 -15 606 -13 626 3 596 0 655 70 24 29 27 38 23 95 -5 74 -26 109 -84
138 -37 19 -60 20 -554 21 -283 1 -542 -1 -575 -5z"/>
<path d="M4389 3601 c-87 -6 -122 -20 -163 -65 -57 -65 -44 -181 25 -225 49
-30 166 -36 679 -35 574 1 563 0 615 68 41 54 45 121 11 180 -31 53 -53 61
-203 76 -103 10 -818 11 -964 1z"/>
<path d="M7524 3600 c-134 -7 -156 -16 -193 -81 -24 -41 -28 -121 -8 -156 21
-38 65 -64 129 -76 81 -15 966 -15 1087 0 73 10 88 15 114 42 26 25 31 40 35
90 4 49 0 67 -19 101 -31 55 -63 70 -173 81 -103 10 -787 9 -972 -1z"/>
<path d="M1334 2160 c-141 -10 -164 -16 -207 -51 -68 -56 -72 -146 -11 -218
33 -39 69 -48 240 -61 255 -18 953 -5 1018 20 71 27 109 155 68 229 -31 58
-67 69 -247 81 -177 11 -703 11 -861 0z"/>
<path d="M4503 2160 c-203 -11 -224 -15 -260 -53 -42 -44 -53 -69 -53 -117 0
-71 41 -121 114 -141 66 -18 488 -27 826 -18 310 8 332 10 378 32 89 43 83
223 -9 269 -20 10 -80 22 -144 28 -121 11 -629 11 -852 0z"/>
</g>
</svg>
