<?xml version="1.0" standalone="no"?>
<!DOCTYPE svg PUBLIC "-//W3C//DTD SVG 20010904//EN"
 "http://www.w3.org/TR/2001/REC-SVG-20010904/DTD/svg10.dtd">
<svg version="1.0" xmlns="http://www.w3.org/2000/svg"
 width="1045.000000pt" height="1049.000000pt" viewBox="0 0 1045.000000 1049.000000"
 preserveAspectRatio="xMidYMid meet">

<g transform="translate(0.000000,1049.000000) scale(0.100000,-0.100000)"
fill="#000000" stroke="none">
<path d="M3535 10474 c-363 -59 -614 -331 -632 -684 -6 -120 15 -226 66 -335
l28 -61 -891 -1639 -892 -1640 -49 -8 c-105 -16 -219 -48 -278 -77 -242 -119
-392 -345 -404 -610 -9 -193 55 -370 184 -510 145 -157 335 -240 548 -240 283
0 538 156 660 404 60 120 78 210 72 346 -8 179 -76 337 -199 463 l-61 62 20
35 c11 19 395 725 853 1568 669 1231 836 1532 849 1527 9 -4 52 -14 96 -22 77
-15 236 -14 276 2 11 4 19 -2 27 -22 60 -149 2140 -6228 2135 -6236 -4 -7 -21
-30 -38 -52 -38 -51 -89 -162 -110 -240 -25 -92 -23 -252 4 -350 58 -209 196
-372 396 -465 189 -89 416 -94 606 -15 330 138 513 498 425 833 l-14 52 795
838 c438 460 798 840 802 844 3 4 36 -2 71 -14 97 -31 295 -32 403 0 254 73
447 265 514 512 24 88 24 271 0 358 -67 249 -271 450 -527 518 -88 24 -281 24
-370 1 -257 -67 -466 -274 -530 -523 -38 -149 -20 -345 44 -471 l24 -49 -770
-811 -770 -811 -62 29 c-102 48 -207 70 -333 70 l-112 0 -17 52 c-9 29 -495
1442 -1080 3142 l-1063 3090 29 45 c256 400 45 939 -420 1070 -74 20 -242 34
-305 24z m212 -518 c46 -23 100 -82 114 -123 6 -19 9 -62 7 -94 -14 -189 -266
-269 -407 -128 -44 43 -61 86 -61 149 0 93 56 172 147 206 48 18 157 13 200
-10z m-2421 -4374 c86 -44 128 -116 122 -208 -8 -121 -100 -203 -229 -204
-135 0 -229 81 -237 204 -7 108 54 190 168 227 40 13 133 3 176 -19z m7835
-454 c52 -15 117 -73 140 -122 39 -87 17 -179 -60 -249 -144 -130 -394 -27
-394 162 0 154 155 257 314 209z m-2572 -2584 c36 -10 66 -29 95 -57 104 -104
79 -266 -52 -340 -167 -94 -384 39 -357 219 15 101 121 190 231 193 17 1 54
-6 83 -15z"/>
<path d="M10 725 l0 -715 5220 0 5220 0 0 715 0 715 -5220 0 -5220 0 0 -715z
m9940 0 l0 -215 -4720 0 -4720 0 0 215 0 215 4720 0 4720 0 0 -215z"/>
</g>
</svg>
