<?xml version="1.0" standalone="no"?>
<!DOCTYPE svg PUBLIC "-//W3C//DTD SVG 20010904//EN"
 "http://www.w3.org/TR/2001/REC-SVG-20010904/DTD/svg10.dtd">
<svg version="1.0" xmlns="http://www.w3.org/2000/svg"
 width="1460.000000pt" height="1037.000000pt" viewBox="0 0 1460.000000 1037.000000"
 preserveAspectRatio="xMidYMid meet">

<g transform="translate(0.000000,1037.000000) scale(0.100000,-0.100000)"
fill="#000000" stroke="none">
<path d="M13985 10361 c-44 -3 -89 -12 -100 -20 -21 -14 -65 -74 -65 -89 0
-23 65 -95 97 -109 52 -21 302 -34 450 -23 194 15 230 40 220 156 -2 36 -7 67
-9 69 -20 21 -389 31 -593 16z"/>
<path d="M43 10350 c-26 -11 -38 -60 -30 -127 10 -93 97 -136 190 -95 40 18
47 26 57 64 14 52 6 125 -17 150 -13 15 -31 18 -97 17 -45 0 -91 -4 -103 -9z"/>
<path d="M1357 10353 c-36 -9 -47 -84 -26 -171 7 -26 13 -48 14 -50 1 -1 28
-7 60 -12 59 -10 128 -1 147 18 23 23 36 106 26 165 l-10 57 -96 -1 c-54 -1
-105 -3 -115 -6z"/>
<path d="M2675 10329 c-30 -26 -35 -37 -35 -74 0 -54 34 -106 80 -122 48 -16
10115 -18 10175 -2 49 13 74 34 92 77 17 42 8 93 -23 127 l-23 25 -5115 0
-5115 0 -36 -31z"/>
<path d="M8460 7684 c-112 -23 -204 -76 -300 -173 -136 -136 -177 -241 -188
-476 l-7 -140 -240 3 c-278 4 -357 -7 -470 -62 -131 -65 -269 -218 -315 -348
-49 -139 -49 -140 -36 -1443 4 -440 3 -861 -1 -935 l-8 -135 -408 -3 c-355 -2
-408 0 -413 13 -3 8 -2 176 2 372 14 557 1 683 -87 862 -58 117 -173 235 -280
286 -148 70 23 66 -2456 63 l-2238 -3 -80 -28 c-110 -39 -176 -80 -251 -159
-82 -88 -137 -198 -161 -328 -16 -86 -18 -158 -16 -770 5 -1397 9 -1639 28
-1700 64 -206 224 -361 440 -426 57 -18 169 -19 2250 -22 1527 -2 2215 0 2273
8 214 28 354 115 469 293 51 78 77 147 98 261 19 102 19 132 10 629 l-8 407
416 0 417 0 2 -1198 3 -1197 33 -94 c62 -178 159 -299 293 -365 111 -55 195
-69 379 -65 178 4 340 2 346 -4 2 -2 9 -69 14 -148 5 -79 16 -171 25 -203 26
-100 82 -192 163 -272 85 -83 157 -125 269 -157 l78 -22 2425 -3 c1733 -2
2456 0 2535 8 189 19 322 76 430 184 71 72 117 155 147 263 20 71 21 102 21
358 0 157 -5 324 -12 380 -47 383 -168 551 -451 621 -72 18 -169 19 -2550 19
l-2475 0 -90 -23 c-184 -47 -339 -145 -420 -268 -68 -102 -88 -178 -95 -349
l-5 -150 -220 1 c-294 0 -377 19 -471 106 -55 51 -96 128 -118 225 -14 64 -16
196 -16 1212 l0 1141 410 0 c321 0 410 -3 410 -12 4 -119 23 -286 39 -338 44
-140 169 -295 301 -372 135 -79 -90 -73 2720 -73 2806 0 2552 -7 2704 72 97
51 229 183 273 274 63 128 68 169 66 519 -2 514 -36 650 -197 796 -75 68 -214
139 -313 159 -64 13 -390 15 -2560 13 -2784 -3 -2521 4 -2683 -75 -142 -69
-272 -230 -316 -389 -8 -32 -19 -120 -22 -194 l-7 -135 -412 -3 -413 -2 0
1154 c0 811 3 1171 11 1208 26 125 98 222 200 271 106 52 166 61 394 62 l210
0 11 -140 c14 -167 23 -205 77 -310 31 -60 63 -102 127 -165 96 -96 167 -137
290 -166 71 -17 214 -18 2470 -22 2422 -3 2572 -1 2705 33 223 57 346 207 400
487 24 124 36 434 25 633 -10 189 -30 280 -83 379 -77 144 -260 267 -442 296
-110 18 -4988 12 -5075 -6z m5055 -239 c155 -41 247 -136 290 -300 35 -136 28
-634 -11 -765 -44 -149 -161 -242 -338 -270 -38 -6 -953 -10 -2426 -10 -2601
-1 -2450 -5 -2586 59 -110 51 -193 160 -227 296 -36 143 -29 534 13 683 49
176 141 281 274 313 17 4 1138 7 2491 8 2181 1 2467 -1 2520 -14z m-8005
-2131 c117 -26 224 -110 277 -219 49 -97 48 -81 48 -1230 0 -1200 3 -1146 -67
-1277 -41 -76 -130 -160 -205 -190 l-58 -23 -2140 -3 c-1515 -2 -2165 0 -2225
8 -197 26 -301 97 -362 247 l-23 58 -3 1110 c-3 1125 -1 1190 34 1298 31 94
146 191 264 223 35 10 536 13 2218 13 1940 1 2180 -1 2242 -15z m7981 -798
c136 -29 214 -87 269 -200 55 -112 64 -181 63 -471 0 -269 -8 -344 -44 -441
-43 -115 -161 -202 -305 -224 -48 -7 -820 -10 -2504 -8 l-2435 3 -58 23 c-117
48 -205 143 -249 272 -22 62 -23 80 -23 360 0 253 3 304 18 360 52 190 138
278 312 321 65 16 233 18 2480 18 2023 1 2421 -2 2476 -13z m-1501 -2915
c1111 -5 1496 -10 1528 -19 162 -46 250 -143 287 -317 21 -98 30 -422 16 -577
-21 -240 -97 -358 -271 -420 l-65 -23 -2415 -3 c-1631 -2 -2441 1 -2494 8
-151 19 -248 89 -312 223 -43 91 -60 183 -69 367 -20 439 67 652 298 729 102
34 315 42 997 36 338 -3 676 -2 750 4 74 5 164 7 200 4 36 -2 733 -8 1550 -12z"/>
</g>
</svg>
