<svg width="32" height="32" fill="none" xmlns="http://www.w3.org/2000/svg"><path d="M9 8a3.5 3.5 0 1 0 0-7 3.5 3.5 0 0 0 0 7zm0-6a2.5 2.5 0 1 1 0 5 2.5 2.5 0 0 1 0-5z" fill="url(#paint0_linear)"/><path d="M5.157 6.873l-.38.217A4.51 4.51 0 0 0 2.5 11v3A1.5 1.5 0 0 0 4 15.5h10a1.5 1.5 0 0 0 1.5-1.5v-3a4.51 4.51 0 0 0-2.277-3.91l-.38-.216-.265.35a4.486 4.486 0 0 1-7.155 0l-.266-.35zM9 10a5.45 5.45 0 0 0 4.076-1.815A3.508 3.508 0 0 1 14.5 11v3a.5.5 0 0 1-.5.5H4a.5.5 0 0 1-.5-.5v-3a3.507 3.507 0 0 1 1.424-2.815A5.45 5.45 0 0 0 9 10z" fill="url(#paint1_linear)"/><path d="M15 27.5a3.504 3.504 0 0 0 3.5 3.5H26a3.504 3.504 0 0 0 3.5-3.5V20a3.504 3.504 0 0 0-3.5-3.5h-7.5A3.504 3.504 0 0 0 15 20v7.5zm13.5 0A2.503 2.503 0 0 1 26 30h-7.5a2.503 2.503 0 0 1-2.5-2.5v-6h12.5v6zM16 20a2.503 2.503 0 0 1 2.5-2.5H26a2.503 2.503 0 0 1 2.5 2.5v.5H16V20z" fill="url(#paint2_linear)"/><path d="M18.355 18.645a.5.5 0 1 0 0 .71.515.515 0 0 0 .105-.165.471.471 0 0 0 0-.38.466.466 0 0 0-.105-.165z" fill="url(#paint3_linear)"/><path d="M19.9 18.51a.32.32 0 0 0-.09.03.388.388 0 0 0-.09.045.507.507 0 0 0-.075.77l.075.06a.388.388 0 0 0 .09.045.316.316 0 0 0 .09.03.5.5 0 1 0 0-.98z" fill="url(#paint4_linear)"/><path d="M21.81 18.54a.516.516 0 0 0-.165.105.507.507 0 0 0 0 .71c.048.045.104.08.165.105a.5.5 0 0 0 .47-.043.5.5 0 0 0-.47-.877z" fill="url(#paint5_linear)"/><path d="M22.683 13.435L24.5 15l1.565-1.816-.107-1.434-1.158 1.341A9.51 9.51 0 0 0 15.5 5.5v1a8.513 8.513 0 0 1 8.265 6.523L22.577 12l.106 1.435z" fill="url(#paint6_linear)"/><path d="M6.317 18.565L4.5 17l-1.565 1.817.107 1.433L4.2 18.909a9.51 9.51 0 0 0 9.3 7.591v-1a8.513 8.513 0 0 1-8.264-6.523L6.423 20l-.106-1.435z" fill="url(#paint7_linear)"/><defs><linearGradient id="paint0_linear" x1="12.5" y1="8" x2="12.5" y2="1" gradientUnits="userSpaceOnUse"><stop stop-color="#3E9679"/><stop offset=".523" stop-color="#4DA567"/><stop offset="1" stop-color="#58B25B"/></linearGradient><linearGradient id="paint1_linear" x1="15.5" y1="15.5" x2="15.5" y2="6.873" gradientUnits="userSpaceOnUse"><stop stop-color="#3E9679"/><stop offset=".523" stop-color="#4DA567"/><stop offset="1" stop-color="#58B25B"/></linearGradient><linearGradient id="paint2_linear" x1="29.5" y1="31" x2="29.5" y2="16.5" gradientUnits="userSpaceOnUse"><stop stop-color="#3E9679"/><stop offset=".523" stop-color="#4DA567"/><stop offset="1" stop-color="#58B25B"/></linearGradient><linearGradient id="paint3_linear" x1="18.5" y1="19.5" x2="18.5" y2="18.5" gradientUnits="userSpaceOnUse"><stop stop-color="#3E9679"/><stop offset=".523" stop-color="#4DA567"/><stop offset="1" stop-color="#58B25B"/></linearGradient><linearGradient id="paint4_linear" x1="20.503" y1="19.5" x2="20.503" y2="18.501" gradientUnits="userSpaceOnUse"><stop stop-color="#3E9679"/><stop offset=".523" stop-color="#4DA567"/><stop offset="1" stop-color="#58B25B"/></linearGradient><linearGradient id="paint5_linear" x1="22.503" y1="19.5" x2="22.503" y2="18.501" gradientUnits="userSpaceOnUse"><stop stop-color="#3E9679"/><stop offset=".523" stop-color="#4DA567"/><stop offset="1" stop-color="#58B25B"/></linearGradient><linearGradient id="paint6_linear" x1="26.065" y1="15" x2="26.065" y2="5.5" gradientUnits="userSpaceOnUse"><stop stop-color="#3E9679"/><stop offset=".523" stop-color="#4DA567"/><stop offset="1" stop-color="#58B25B"/></linearGradient><linearGradient id="paint7_linear" x1="13.5" y1="26.5" x2="13.5" y2="17" gradientUnits="userSpaceOnUse"><stop stop-color="#3E9679"/><stop offset=".523" stop-color="#4DA567"/><stop offset="1" stop-color="#58B25B"/></linearGradient></defs></svg>