<svg width="30" height="31" viewBox="0 0 30 31" fill="none" xmlns="http://www.w3.org/2000/svg">
<path d="M24.2566 5.80358H5.18346V9.02H24.2566V5.80358ZM7.4871 8.12144H6.06732V6.70167H7.4871V8.12144ZM9.61643 8.12144H8.19665V6.70167H9.61643V8.12144ZM11.7464 8.12144H10.3266V6.70167H11.7464V8.12144Z" fill="white"/>
<path d="M24.2566 12.9024H5.18346V16.1188H24.2566V12.9024ZM7.4871 15.2196H6.06732V13.8004H7.4871V15.2196ZM9.61643 15.2196H8.19665V13.8004H9.61643V15.2196ZM11.7464 15.2196H10.3266V13.8004H11.7464V15.2196Z" fill="white"/>
<path d="M0 0V21.9223H29.4404V0H0ZM25.3883 17.2505H4.05163V11.7706H25.3883V17.2505ZM25.3883 10.1517H4.05163V4.67176H25.3883V10.1517Z" fill="white"/>
<path d="M18.9048 24.4924H10.5362V27.1803H0.566084V28.3121H10.5361V31H18.9047V28.312H28.8747V27.1802H18.9047V24.4924H18.9048ZM17.773 29.8681H11.6678V25.6241H17.773V29.8681Z" fill="white"/>
</svg>
