<svg id="svg" version="1.1" xmlns="http://www.w3.org/2000/svg" xmlns:xlink="http://www.w3.org/1999/xlink" width="400" height="400.21586616297895" viewBox="0, 0, 400,400.21586616297895"><g id="svgg"><path id="path0" d="M220.025 100.749 C 220.353 100.798,220.838 100.797,221.104 100.746 C 221.369 100.694,221.101 100.654,220.507 100.655 C 219.914 100.657,219.696 100.699,220.025 100.749 M230.386 100.749 C 230.714 100.798,231.200 100.797,231.465 100.746 C 231.731 100.694,231.462 100.654,230.869 100.655 C 230.275 100.657,230.058 100.699,230.386 100.749 M26.833 194.441 C 28.116 194.479,30.156 194.479,31.366 194.440 C 32.577 194.402,31.527 194.371,29.034 194.371 C 26.541 194.371,25.550 194.403,26.833 194.441 M201.789 194.655 C 202.536 194.698,203.702 194.697,204.380 194.655 C 205.058 194.612,204.447 194.577,203.022 194.578 C 201.597 194.578,201.043 194.613,201.789 194.655 M227.909 194.655 C 228.656 194.698,229.822 194.697,230.500 194.655 C 231.178 194.612,230.567 194.577,229.142 194.578 C 227.717 194.578,227.162 194.613,227.909 194.655 M279.924 194.657 C 281.379 194.694,283.759 194.694,285.213 194.657 C 286.668 194.619,285.478 194.589,282.569 194.589 C 279.660 194.589,278.470 194.619,279.924 194.657 M271.614 313.167 C 273.127 313.204,275.604 313.204,277.118 313.167 C 278.632 313.130,277.393 313.100,274.366 313.100 C 271.338 313.100,270.100 313.130,271.614 313.167 " stroke="none" fill="#2c2c2c" fill-rule="evenodd"></path><path id="path1" d="M211.873 0.204 C 211.279 0.293,207.345 0.324,203.130 0.272 C 194.915 0.172,189.168 0.403,182.515 1.102 C 180.259 1.339,178.268 1.540,178.090 1.548 C 177.911 1.556,175.969 1.800,173.772 2.090 C 171.576 2.380,169.633 2.622,169.455 2.628 C 166.183 2.741,159.559 3.950,155.420 5.190 C 151.006 6.511,148.875 6.981,144.738 7.543 C 141.298 8.010,140.529 8.166,140.529 8.398 C 140.529 8.478,140.348 8.556,140.128 8.573 C 139.907 8.590,139.349 8.771,138.887 8.977 C 138.425 9.183,137.998 9.360,137.938 9.371 C 137.396 9.473,135.996 10.030,135.996 10.144 C 135.996 10.224,135.857 10.290,135.687 10.290 C 135.366 10.290,131.436 11.873,131.247 12.079 C 131.187 12.144,130.993 12.226,130.815 12.261 C 130.376 12.349,126.633 13.876,126.498 14.022 C 126.438 14.087,126.292 14.157,126.174 14.178 C 125.128 14.368,119.158 16.844,119.158 17.088 C 119.158 17.188,119.085 17.250,118.996 17.227 C 118.732 17.157,100.378 26.310,100.378 26.511 C 100.378 26.612,100.256 26.697,100.108 26.699 C 99.777 26.704,95.799 29.082,95.609 29.389 C 95.534 29.511,95.407 29.597,95.328 29.581 C 95.078 29.529,92.607 31.106,92.607 31.316 C 92.607 31.426,92.530 31.492,92.437 31.462 C 92.192 31.384,89.369 33.256,89.369 33.497 C 89.369 33.609,89.284 33.648,89.180 33.584 C 89.076 33.520,88.736 33.704,88.424 33.993 C 88.113 34.282,87.858 34.479,87.858 34.431 C 87.858 34.383,86.813 35.066,85.537 35.949 C 84.261 36.832,83.013 37.556,82.764 37.558 C 82.491 37.559,81.959 37.980,81.414 38.626 C 80.891 39.247,79.818 40.106,78.844 40.686 C 77.925 41.233,76.346 42.414,75.337 43.310 C 74.328 44.206,71.730 46.400,69.563 48.184 C 67.396 49.969,65.623 51.531,65.623 51.655 C 65.623 51.778,65.562 51.819,65.488 51.744 C 65.318 51.575,60.962 55.260,61.036 55.510 C 61.066 55.611,61.009 55.693,60.910 55.693 C 60.811 55.693,60.365 56.224,59.919 56.872 C 59.169 57.960,58.408 58.734,56.571 60.281 C 56.182 60.607,55.795 60.874,55.709 60.874 C 55.515 60.874,54.614 61.819,54.614 62.022 C 54.614 62.104,54.226 62.521,53.752 62.949 C 53.279 63.377,52.944 63.814,53.010 63.920 C 53.075 64.026,53.033 64.112,52.915 64.112 C 52.660 64.112,47.706 70.265,47.706 70.583 C 47.706 70.704,47.625 70.804,47.525 70.804 C 47.425 70.804,46.695 71.579,45.902 72.526 C 45.110 73.473,43.741 75.018,42.859 75.960 C 41.770 77.126,41.184 77.944,41.029 78.522 C 40.781 79.443,40.420 79.843,39.348 80.386 C 38.644 80.743,38.263 81.242,38.147 81.959 C 38.029 82.693,36.668 84.997,35.218 86.917 C 32.827 90.085,31.742 91.681,31.885 91.824 C 31.959 91.898,31.918 91.959,31.793 91.959 C 31.542 91.959,29.650 94.983,29.736 95.247 C 29.765 95.338,29.703 95.413,29.596 95.413 C 29.422 95.413,28.556 96.880,26.251 101.079 C 25.811 101.881,25.529 102.538,25.624 102.540 C 25.718 102.542,25.691 102.614,25.562 102.702 C 24.054 103.723,13.875 126.250,13.298 129.843 C 13.279 129.962,13.203 130.157,13.130 130.275 C 12.959 130.551,10.628 136.860,10.537 137.291 C 10.500 137.469,10.421 137.663,10.362 137.723 C 10.302 137.782,9.887 138.559,9.438 139.450 C 8.990 140.340,8.388 141.506,8.101 142.040 C 7.730 142.730,7.548 143.480,7.474 144.630 C 7.333 146.810,6.703 149.787,5.395 154.452 C 4.796 156.589,4.274 158.581,4.234 158.877 C 4.194 159.174,4.098 159.660,4.022 159.957 C 3.871 160.541,1.587 180.968,1.414 183.270 C 1.357 184.042,1.220 185.693,1.110 186.940 C 1.000 188.187,0.908 189.401,0.906 189.638 C 0.903 189.876,0.799 191.479,0.675 193.200 C 0.551 194.922,0.439 199.973,0.427 204.425 C 0.415 208.877,0.352 212.812,0.287 213.168 C -0.067 215.108,-0.030 215.840,0.496 217.298 C 0.963 218.593,1.784 222.504,1.782 223.421 C 1.778 224.890,2.772 232.144,3.335 234.754 C 3.386 234.992,3.485 235.575,3.555 236.050 C 3.624 236.525,3.744 237.107,3.822 237.345 C 3.899 237.582,3.978 237.922,3.998 238.100 C 4.117 239.188,4.383 240.274,4.555 240.381 C 4.666 240.449,4.707 240.584,4.647 240.681 C 4.552 240.835,6.522 249.335,6.851 250.189 C 6.920 250.367,6.957 250.596,6.934 250.697 C 6.911 250.799,6.992 251.002,7.114 251.149 C 7.236 251.296,7.294 251.457,7.243 251.508 C 7.192 251.559,7.389 252.570,7.681 253.755 C 7.972 254.940,8.264 256.294,8.330 256.764 C 8.395 257.233,8.509 257.715,8.582 257.833 C 8.655 257.952,8.746 258.344,8.784 258.706 C 8.822 259.067,8.915 259.509,8.992 259.687 C 9.069 259.865,9.160 260.152,9.194 260.324 C 9.346 261.083,9.984 262.493,10.176 262.493 C 10.292 262.493,10.327 262.590,10.254 262.709 C 10.180 262.828,10.207 262.925,10.313 262.925 C 10.419 262.925,10.509 263.046,10.513 263.195 C 10.521 263.513,11.678 266.437,11.857 266.595 C 11.925 266.654,11.997 266.800,12.017 266.919 C 12.053 267.131,14.661 274.906,14.697 274.906 C 14.707 274.906,14.740 275.100,14.771 275.337 C 14.939 276.643,15.170 277.615,15.336 277.718 C 15.439 277.781,15.469 277.976,15.402 278.150 C 15.335 278.325,15.394 278.467,15.532 278.467 C 15.670 278.467,15.731 278.553,15.666 278.658 C 15.601 278.763,16.353 280.050,17.336 281.518 C 18.464 283.203,20.585 287.055,23.085 291.959 C 25.264 296.233,27.130 299.763,27.232 299.803 C 27.334 299.842,27.363 299.964,27.296 300.072 C 27.229 300.181,27.260 300.270,27.366 300.270 C 27.472 300.270,27.559 300.391,27.559 300.540 C 27.561 301.298,32.748 309.498,35.680 313.377 C 36.557 314.538,37.457 315.804,37.680 316.190 C 37.903 316.576,38.167 316.892,38.268 316.892 C 38.368 316.892,38.390 316.989,38.316 317.107 C 38.243 317.226,38.286 317.323,38.411 317.323 C 38.537 317.323,38.617 317.396,38.589 317.485 C 38.413 318.041,39.837 321.079,40.176 320.870 C 40.281 320.805,40.367 320.832,40.367 320.931 C 40.367 321.030,40.707 321.294,41.122 321.517 C 42.251 322.126,43.928 324.003,46.244 327.253 C 47.441 328.933,49.104 330.932,50.172 331.974 C 51.190 332.968,52.026 333.842,52.028 333.917 C 52.031 333.992,52.600 334.660,53.294 335.402 C 53.987 336.144,54.520 336.751,54.478 336.751 C 54.436 336.751,54.716 337.172,55.101 337.686 C 55.486 338.200,56.099 339.050,56.463 339.575 C 56.982 340.325,57.338 340.591,58.128 340.820 C 58.681 340.981,59.123 341.175,59.111 341.252 C 58.972 342.155,59.519 342.861,61.386 344.189 C 62.470 344.960,65.057 347.160,67.134 349.078 C 69.212 350.997,72.369 353.662,74.150 355.001 C 77.668 357.646,78.070 358.017,79.086 359.545 C 79.679 360.438,79.936 360.621,81.166 361.022 C 81.958 361.280,83.216 361.947,84.054 362.553 C 84.871 363.143,85.624 363.602,85.727 363.573 C 85.830 363.543,85.915 363.604,85.915 363.708 C 85.915 363.811,86.619 364.383,87.480 364.978 C 89.147 366.131,96.492 370.663,96.492 370.539 C 96.492 370.463,97.246 371.082,98.656 372.315 C 99.098 372.701,99.550 373.017,99.662 373.017 C 99.773 373.017,100.077 373.304,100.336 373.654 C 100.767 374.237,101.478 374.524,102.756 374.629 C 102.936 374.644,103.203 374.730,103.350 374.821 C 103.496 374.911,103.617 374.906,103.619 374.810 C 103.621 374.714,103.694 374.745,103.781 374.878 C 103.946 375.130,106.531 376.491,106.774 376.455 C 106.851 376.443,106.973 376.521,107.045 376.628 C 107.281 376.975,109.590 378.196,109.735 378.051 C 109.812 377.973,109.876 378.010,109.876 378.133 C 109.876 378.255,111.937 379.316,114.457 380.489 C 117.743 382.019,119.266 382.849,119.843 383.422 C 120.520 384.093,120.950 384.292,122.547 384.671 C 123.592 384.918,125.127 385.327,125.958 385.578 C 126.789 385.829,127.616 386.049,127.797 386.066 C 127.977 386.083,128.220 386.153,128.336 386.220 C 128.559 386.350,130.011 386.836,130.450 386.928 C 130.591 386.957,130.950 387.083,131.247 387.206 C 131.543 387.329,132.661 387.772,133.729 388.190 C 134.798 388.607,136.220 389.196,136.890 389.497 C 137.560 389.798,138.167 389.985,138.239 389.913 C 138.311 389.841,138.370 389.882,138.370 390.003 C 138.370 390.230,141.004 391.085,142.148 391.228 C 142.504 391.272,142.970 391.382,143.183 391.472 C 143.395 391.561,143.629 391.575,143.702 391.502 C 143.775 391.429,143.945 391.461,144.080 391.572 C 144.215 391.684,144.661 391.816,145.071 391.866 C 145.482 391.915,145.963 392.009,146.141 392.075 C 146.508 392.210,155.141 394.219,155.640 394.285 C 155.818 394.308,156.109 394.383,156.287 394.450 C 156.713 394.611,161.289 395.674,162.178 395.818 C 163.245 395.991,163.493 396.044,163.842 396.180 C 164.202 396.318,166.396 396.765,167.404 396.905 C 167.760 396.954,169.376 397.226,170.994 397.509 C 172.613 397.792,174.555 398.091,175.312 398.173 C 176.068 398.256,176.978 398.359,177.334 398.403 C 178.510 398.548,180.335 398.722,181.759 398.825 C 185.278 399.079,187.290 399.377,187.949 399.739 C 188.207 399.881,188.742 400.003,189.136 400.011 C 190.293 400.031,204.753 399.585,207.232 399.452 C 208.478 399.385,209.644 399.328,209.822 399.326 C 211.644 399.300,220.591 398.427,226.012 397.746 C 226.427 397.694,227.350 397.594,228.063 397.525 C 228.775 397.455,229.941 397.300,230.653 397.179 C 231.365 397.059,232.288 396.922,232.704 396.874 C 238.908 396.160,240.577 395.843,244.221 394.687 C 248.117 393.451,253.574 392.229,255.194 392.229 C 257.117 392.229,264.353 389.906,264.918 389.107 C 265.006 388.984,265.079 388.953,265.080 389.039 C 265.084 389.226,268.506 387.990,268.907 387.658 C 269.060 387.531,269.185 387.483,269.185 387.552 C 269.185 387.681,269.995 387.391,275.229 385.384 C 276.951 384.724,278.408 384.124,278.467 384.051 C 278.527 383.978,278.765 383.885,278.997 383.845 C 279.586 383.742,282.859 382.080,283.051 381.786 C 283.138 381.653,283.211 381.615,283.213 381.701 C 283.216 381.848,286.861 379.796,287.102 379.512 C 287.161 379.442,287.307 379.368,287.426 379.348 C 287.676 379.306,291.259 377.321,291.419 377.135 C 291.479 377.066,291.628 376.993,291.750 376.972 C 292.101 376.912,295.182 375.137,295.329 374.910 C 295.402 374.798,295.527 374.722,295.607 374.740 C 296.282 374.895,312.769 365.039,313.609 363.979 C 313.762 363.785,313.935 363.656,313.994 363.692 C 314.052 363.728,314.667 363.412,315.362 362.990 C 316.056 362.569,316.733 362.223,316.866 362.223 C 316.999 362.223,317.107 362.110,317.107 361.972 C 317.107 361.833,317.168 361.780,317.242 361.854 C 317.507 362.119,318.957 361.164,319.758 360.197 C 320.206 359.656,321.906 358.199,323.535 356.960 C 327.757 353.749,330.144 351.712,333.842 348.163 C 336.210 345.889,337.349 344.949,338.067 344.675 C 338.977 344.328,339.898 343.432,340.038 342.758 C 340.070 342.601,340.243 342.355,340.421 342.209 C 340.599 342.064,340.674 341.943,340.588 341.939 C 340.295 341.926,342.249 340.264,343.344 339.594 C 344.318 338.998,345.737 337.189,345.238 337.180 C 345.141 337.178,345.162 337.105,345.284 337.018 C 345.551 336.826,346.897 335.114,346.897 334.965 C 346.897 334.907,347.723 334.054,348.732 333.069 C 349.741 332.084,350.567 331.222,350.567 331.154 C 350.567 331.086,351.247 330.302,352.078 329.412 C 352.909 328.521,353.589 327.671,353.589 327.523 C 353.589 327.375,353.677 327.253,353.785 327.253 C 353.992 327.253,358.770 321.556,358.770 321.309 C 358.770 321.229,359.018 320.968,359.321 320.730 C 359.624 320.491,359.818 320.243,359.753 320.178 C 359.688 320.113,359.967 319.835,360.371 319.560 C 360.833 319.246,361.204 318.756,361.366 318.245 C 361.508 317.798,361.761 317.213,361.929 316.945 C 362.096 316.678,362.187 316.460,362.131 316.460 C 362.074 316.460,362.267 316.202,362.560 315.886 C 362.852 315.571,363.043 315.265,362.984 315.206 C 362.926 315.147,363.007 314.993,363.166 314.862 C 363.484 314.601,371.113 303.076,370.969 303.076 C 370.919 303.076,371.115 302.821,371.404 302.509 C 371.693 302.198,371.877 301.858,371.813 301.754 C 371.749 301.650,371.793 301.565,371.913 301.565 C 372.131 301.565,374.431 297.632,374.564 297.031 C 374.603 296.853,374.695 296.659,374.766 296.600 C 374.967 296.435,380.602 285.192,380.566 285.028 C 380.549 284.949,380.621 284.824,380.727 284.752 C 381.046 284.532,381.915 283.001,381.723 282.997 C 381.624 282.995,381.645 282.923,381.770 282.835 C 382.397 282.395,385.242 275.915,385.582 274.150 C 385.617 273.972,385.697 273.778,385.760 273.718 C 385.897 273.590,387.000 270.730,387.092 270.264 C 387.127 270.086,387.208 269.892,387.271 269.833 C 387.453 269.662,388.631 266.539,388.631 266.228 C 388.631 266.073,388.697 265.947,388.777 265.947 C 388.921 265.947,389.463 264.356,389.412 264.085 C 389.398 264.008,389.471 263.885,389.576 263.813 C 390.382 263.255,391.989 258.147,392.437 254.722 C 392.911 251.092,393.489 248.453,394.608 244.792 C 395.369 242.303,396.062 239.414,396.215 238.100 C 396.276 237.566,396.565 235.429,396.856 233.351 C 397.458 229.047,398.434 220.599,398.589 218.349 C 398.647 217.518,398.794 215.811,398.916 214.555 C 399.038 213.300,399.131 212.037,399.123 211.749 C 399.114 211.461,399.163 210.448,399.230 209.498 C 399.496 205.769,399.575 202.777,399.562 196.870 C 399.545 189.451,399.567 188.106,399.718 187.264 C 400.077 185.254,400.021 184.360,399.371 181.800 C 398.753 179.362,398.188 176.283,397.937 173.988 C 397.879 173.454,397.544 171.317,397.192 169.239 C 396.841 167.161,396.502 165.121,396.439 164.706 C 396.130 162.675,394.701 155.858,394.447 155.208 C 394.378 155.030,394.302 154.787,394.279 154.668 C 394.256 154.549,394.214 154.404,394.187 154.344 C 394.159 154.285,394.112 154.042,394.084 153.805 C 394.021 153.278,393.318 150.260,393.154 149.811 C 393.089 149.633,392.999 149.205,392.954 148.860 C 392.909 148.514,392.777 148.117,392.661 147.976 C 392.544 147.836,392.491 147.678,392.544 147.626 C 392.596 147.573,392.400 146.514,392.108 145.271 C 391.816 144.028,391.526 142.671,391.463 142.256 C 391.211 140.588,390.650 138.892,389.553 136.479 C 388.442 134.034,387.124 130.304,386.179 126.929 C 385.717 125.278,385.647 124.972,385.454 123.752 C 385.309 122.841,384.996 122.280,384.402 121.863 C 384.136 121.677,383.959 121.502,384.009 121.475 C 384.059 121.447,383.841 121.015,383.525 120.514 C 383.209 120.013,382.585 118.848,382.139 117.924 C 381.693 117.000,381.279 116.195,381.220 116.136 C 381.160 116.077,381.081 115.882,381.043 115.704 C 380.955 115.294,379.873 112.826,379.717 112.682 C 379.653 112.623,379.572 112.428,379.538 112.250 C 379.432 111.702,377.307 107.501,377.136 107.501 C 377.047 107.501,376.972 107.380,376.970 107.232 C 376.965 106.956,373.513 100.574,373.262 100.378 C 373.187 100.318,373.097 100.139,373.064 99.979 C 372.931 99.344,369.575 94.014,366.995 90.340 C 365.494 88.203,363.742 85.629,363.101 84.620 C 362.460 83.610,361.846 82.725,361.737 82.653 C 361.628 82.580,361.565 82.483,361.598 82.437 C 361.956 81.923,354.947 72.531,354.205 72.531 C 354.089 72.531,354.050 72.443,354.116 72.335 C 354.183 72.227,353.946 71.893,353.589 71.593 C 353.233 71.293,352.941 70.953,352.941 70.837 C 352.941 70.721,352.647 70.379,352.287 70.076 C 351.927 69.773,351.639 69.470,351.648 69.402 C 351.674 69.196,349.011 66.055,348.811 66.055 C 348.708 66.055,348.624 65.950,348.624 65.822 C 348.624 65.022,341.275 57.262,339.621 56.315 C 338.990 55.954,337.989 55.276,337.396 54.808 C 336.804 54.340,336.319 53.993,336.319 54.038 C 336.319 54.082,335.041 52.895,333.479 51.398 C 331.917 49.902,330.557 48.702,330.457 48.732 C 330.357 48.761,330.275 48.696,330.275 48.586 C 330.275 48.417,324.821 43.923,323.837 43.281 C 323.375 42.980,322.614 42.147,321.817 41.072 C 321.212 40.254,317.459 37.813,316.808 37.813 C 316.702 37.813,316.557 37.725,316.484 37.616 C 316.302 37.344,310.012 33.224,309.887 33.294 C 309.832 33.326,309.661 33.197,309.507 33.008 C 308.698 32.010,301.613 27.551,297.751 25.609 C 292.258 22.846,285.159 19.462,285.156 19.605 C 285.154 19.686,285.081 19.649,284.994 19.524 C 284.775 19.208,281.922 17.672,281.918 17.867 C 281.916 17.954,281.843 17.922,281.756 17.796 C 281.669 17.670,280.987 17.199,280.241 16.750 C 279.495 16.301,278.594 15.689,278.239 15.390 C 277.783 15.007,276.828 14.664,274.995 14.225 C 273.566 13.884,271.728 13.401,270.911 13.153 C 270.094 12.905,269.250 12.668,269.035 12.627 C 268.821 12.587,268.621 12.534,268.591 12.510 C 268.562 12.486,268.465 12.446,268.376 12.421 C 268.287 12.396,267.971 12.273,267.674 12.146 C 265.917 11.398,264.867 11.035,264.864 11.174 C 264.863 11.262,264.790 11.229,264.703 11.102 C 264.499 10.806,261.631 9.472,261.626 9.671 C 261.625 9.754,261.552 9.711,261.465 9.576 C 261.288 9.303,258.385 8.353,258.223 8.516 C 258.166 8.573,257.956 8.532,257.757 8.426 C 257.558 8.319,257.012 8.179,256.544 8.115 C 256.076 8.050,254.919 7.808,253.973 7.577 C 253.027 7.346,252.183 7.200,252.099 7.252 C 252.015 7.304,251.890 7.256,251.822 7.146 C 251.720 6.981,250.654 6.698,249.649 6.570 C 249.530 6.555,249.288 6.486,249.110 6.418 C 248.700 6.261,246.518 5.763,246.084 5.727 C 245.903 5.712,245.630 5.622,245.476 5.527 C 245.321 5.431,245.138 5.411,245.068 5.481 C 244.997 5.551,244.807 5.499,244.645 5.364 C 244.483 5.229,244.288 5.181,244.213 5.256 C 244.138 5.331,243.966 5.301,243.831 5.190 C 243.697 5.078,243.202 4.940,242.732 4.883 C 242.262 4.826,241.878 4.761,241.878 4.737 C 241.878 4.713,241.684 4.662,241.446 4.622 C 241.209 4.582,240.417 4.401,239.686 4.218 C 238.955 4.036,238.081 3.850,237.743 3.806 C 237.405 3.762,236.983 3.672,236.805 3.606 C 236.627 3.540,235.559 3.322,234.431 3.122 C 232.566 2.792,232.035 2.712,230.329 2.507 C 230.032 2.472,229.595 2.382,229.358 2.309 C 229.120 2.235,228.343 2.123,227.631 2.059 C 226.919 1.996,225.559 1.851,224.609 1.739 C 223.659 1.626,222.202 1.484,221.371 1.423 C 220.540 1.362,218.888 1.050,217.701 0.729 C 215.389 0.105,213.604 -0.056,211.873 0.204 M199.077 11.857 C 201.582 12.498,204.333 14.012,206.392 15.884 C 207.223 16.639,207.413 16.908,208.286 18.566 C 208.880 19.694,211.210 22.018,211.748 22.018 C 211.876 22.018,211.981 22.149,211.981 22.309 C 211.981 22.468,212.186 22.784,212.438 23.010 C 212.689 23.236,213.342 24.053,213.888 24.825 C 214.433 25.596,214.965 26.287,215.068 26.360 C 215.171 26.432,215.234 26.530,215.207 26.576 C 215.181 26.622,215.598 27.582,216.134 28.710 C 217.127 30.801,218.257 34.010,218.676 35.931 C 218.850 36.726,219.122 37.195,219.740 37.765 C 220.388 38.364,220.677 38.886,221.060 40.146 C 221.330 41.033,222.103 42.976,222.779 44.463 C 224.726 48.750,225.671 51.817,225.899 54.596 C 225.952 55.239,226.086 55.822,226.196 55.891 C 226.612 56.153,227.309 57.826,227.955 60.119 C 228.324 61.425,228.682 62.639,228.751 62.817 C 228.821 62.995,228.901 63.287,228.928 63.465 C 229.012 64.004,231.844 75.205,231.985 75.553 C 232.057 75.731,232.136 76.023,232.159 76.201 C 232.244 76.834,232.541 78.039,232.662 78.242 C 232.729 78.356,232.807 78.647,232.835 78.890 C 232.863 79.132,232.993 79.962,233.124 80.734 C 233.255 81.506,233.418 82.768,233.487 83.540 C 233.555 84.312,233.695 85.101,233.797 85.293 C 233.900 85.485,233.923 85.702,233.850 85.776 C 233.776 85.850,233.973 86.150,234.289 86.442 C 234.800 86.916,234.862 87.131,234.862 88.422 L 234.862 89.871 226.084 89.727 C 221.257 89.649,203.759 89.584,187.200 89.584 L 157.094 89.584 157.198 87.372 C 157.274 85.759,157.451 84.735,157.852 83.594 C 158.155 82.733,158.339 82.028,158.262 82.026 C 158.185 82.024,158.224 81.951,158.349 81.864 C 158.727 81.600,159.557 79.440,159.644 78.492 C 159.827 76.505,160.239 71.962,160.273 71.549 C 160.293 71.305,160.365 71.014,160.432 70.901 C 160.500 70.788,160.633 70.259,160.729 69.725 C 160.937 68.560,160.902 68.687,161.233 67.890 C 161.380 67.534,161.514 67.072,161.530 66.865 C 161.546 66.657,161.621 66.487,161.696 66.487 C 161.832 66.487,162.370 64.885,162.321 64.624 C 162.306 64.547,162.385 64.425,162.497 64.352 C 162.743 64.192,163.674 61.738,163.489 61.738 C 163.417 61.738,163.461 61.614,163.587 61.462 C 163.713 61.310,164.265 59.343,164.815 57.091 C 165.915 52.579,168.122 45.724,169.313 43.119 C 169.734 42.199,170.011 41.445,169.928 41.443 C 169.846 41.441,169.881 41.368,170.005 41.281 C 170.195 41.148,171.451 39.126,171.492 38.887 C 171.500 38.845,171.854 38.433,172.281 37.971 C 172.912 37.287,173.162 36.726,173.628 34.949 C 174.290 32.421,175.376 30.144,177.312 27.216 C 178.852 24.888,180.707 21.802,180.567 21.802 C 180.423 21.802,183.091 19.367,183.768 18.880 C 184.101 18.640,184.398 18.301,184.428 18.127 C 184.612 17.035,186.377 15.092,188.252 13.917 C 188.777 13.588,189.278 13.212,189.365 13.082 C 189.453 12.951,189.525 12.912,189.527 12.994 C 189.529 13.076,190.040 12.911,190.664 12.625 C 193.366 11.389,196.225 11.128,199.077 11.857 M220.831 13.838 C 221.365 13.963,221.997 14.093,222.234 14.128 C 222.472 14.162,222.812 14.242,222.990 14.306 C 223.667 14.549,229.800 16.450,230.005 16.481 C 230.124 16.499,230.270 16.568,230.329 16.635 C 230.493 16.820,233.220 17.809,233.405 17.751 C 233.494 17.724,233.567 17.779,233.567 17.874 C 233.567 18.047,234.805 18.565,235.162 18.541 C 235.268 18.533,235.413 18.614,235.486 18.720 C 235.558 18.826,236.298 19.281,237.129 19.730 C 237.960 20.180,239.287 21.037,240.077 21.634 C 240.867 22.231,241.595 22.726,241.696 22.734 C 241.796 22.741,242.114 22.870,242.402 23.019 C 242.691 23.169,243.006 23.242,243.104 23.182 C 243.201 23.122,243.281 23.175,243.281 23.301 C 243.281 23.427,243.411 23.529,243.570 23.529 C 244.839 23.529,250.553 27.188,254.730 30.676 C 256.279 31.969,257.569 33.028,257.596 33.028 C 257.623 33.028,258.318 33.653,259.141 34.417 C 259.963 35.181,260.692 35.772,260.760 35.730 C 260.827 35.688,263.290 38.074,266.233 41.033 C 269.175 43.991,271.511 46.411,271.423 46.411 C 271.335 46.411,271.509 46.678,271.810 47.005 C 272.111 47.331,273.599 49.250,275.117 51.268 C 276.636 53.287,278.040 55.084,278.238 55.262 C 278.436 55.440,278.614 55.661,278.634 55.752 C 278.714 56.115,283.296 61.954,283.501 61.954 C 283.621 61.954,283.661 62.013,283.588 62.086 C 283.417 62.257,285.138 64.544,285.437 64.544 C 285.561 64.544,285.603 64.604,285.529 64.678 C 285.455 64.751,285.964 65.559,286.659 66.471 C 290.096 70.987,292.328 74.788,292.695 76.749 C 292.799 77.306,293.079 77.968,293.317 78.222 C 294.891 79.896,295.288 80.341,295.325 80.475 C 295.349 80.558,295.608 81.006,295.901 81.471 C 297.318 83.716,299.191 88.202,299.191 89.353 C 299.191 89.741,299.054 89.802,298.165 89.816 C 295.127 89.864,255.051 90.213,252.690 90.213 C 246.448 90.212,245.456 89.216,244.877 82.367 C 244.817 81.662,244.718 81.005,244.657 80.906 C 244.596 80.807,244.509 80.364,244.463 79.921 C 244.388 79.193,242.816 73.318,242.485 72.531 C 242.410 72.353,242.359 72.151,242.371 72.082 C 242.383 72.013,242.201 71.236,241.966 70.355 C 241.731 69.474,241.490 68.413,241.432 67.998 C 241.373 67.582,241.232 66.659,241.118 65.947 C 241.003 65.235,240.909 64.184,240.908 63.613 C 240.907 62.628,240.168 60.443,239.837 60.443 C 239.752 60.443,239.678 60.321,239.672 60.173 C 239.666 60.024,239.262 58.909,238.773 57.694 C 238.284 56.478,237.885 55.386,237.885 55.265 C 237.885 55.144,237.782 55.046,237.656 55.046 C 237.530 55.046,237.477 54.966,237.537 54.868 C 237.597 54.771,237.512 54.431,237.347 54.113 C 237.182 53.795,237.082 53.535,237.126 53.535 C 237.202 53.535,234.582 45.566,234.288 44.900 C 234.209 44.722,234.124 44.504,234.099 44.414 C 234.073 44.325,234.034 44.228,234.010 44.199 C 233.986 44.169,233.924 43.909,233.871 43.622 C 233.818 43.334,233.667 42.970,233.536 42.812 C 233.406 42.655,233.356 42.526,233.426 42.526 C 233.495 42.526,233.207 41.530,232.784 40.313 C 231.528 36.698,229.858 32.596,229.642 32.596 C 229.531 32.596,229.500 32.499,229.574 32.380 C 229.647 32.261,229.598 32.164,229.466 32.164 C 229.333 32.164,229.284 32.067,229.358 31.948 C 229.431 31.829,229.388 31.732,229.263 31.732 C 229.137 31.732,229.057 31.659,229.085 31.570 C 229.161 31.333,228.576 30.005,228.396 30.005 C 228.312 30.005,228.242 29.884,228.240 29.736 C 228.238 29.371,222.792 19.578,222.481 19.377 C 222.345 19.290,222.315 19.217,222.414 19.215 C 222.606 19.212,221.737 17.681,221.418 17.461 C 221.312 17.388,221.232 17.243,221.240 17.137 C 221.248 17.032,220.863 16.193,220.384 15.273 C 219.906 14.352,219.592 13.602,219.687 13.605 C 219.782 13.608,220.297 13.712,220.831 13.838 M169.334 18.403 C 169.179 18.904,164.983 26.981,164.231 28.225 C 163.998 28.610,163.888 28.928,163.987 28.929 C 164.085 28.931,164.057 29.004,163.923 29.091 C 163.475 29.384,161.649 33.297,160.783 35.819 C 159.911 38.360,159.182 39.845,158.552 40.368 C 157.995 40.831,157.615 41.726,157.492 42.869 C 157.429 43.452,157.271 44.366,157.139 44.900 C 157.008 45.434,156.873 46.066,156.838 46.303 C 156.804 46.541,156.720 46.881,156.652 47.059 C 156.583 47.237,156.175 48.597,155.744 50.081 C 155.312 51.565,154.562 53.798,154.076 55.042 C 153.591 56.287,153.193 57.428,153.193 57.578 C 153.193 57.729,153.126 57.852,153.045 57.852 C 152.836 57.852,151.829 61.414,151.641 62.817 C 151.617 62.995,151.531 63.297,151.449 63.488 C 151.366 63.680,151.269 64.068,151.231 64.352 C 151.194 64.636,151.104 65.013,151.032 65.192 C 150.842 65.660,149.390 71.471,149.421 71.636 C 149.436 71.713,149.391 71.921,149.322 72.099 C 149.253 72.277,149.036 73.200,148.841 74.150 C 148.287 76.838,147.666 78.979,146.962 80.626 C 146.391 81.961,146.308 82.427,146.250 84.620 C 146.177 87.390,146.147 87.642,145.890 87.642 C 145.791 87.642,145.322 88.030,144.847 88.504 L 143.985 89.366 141.448 89.464 C 138.267 89.587,133.062 89.614,115.456 89.597 L 101.499 89.584 101.282 88.962 C 101.092 88.415,101.125 88.313,101.564 88.113 C 102.010 87.910,102.300 87.144,102.437 85.807 C 102.449 85.688,102.622 85.215,102.822 84.755 C 103.021 84.295,103.185 83.858,103.186 83.784 C 103.192 83.498,105.047 80.726,105.158 80.837 C 105.223 80.902,105.550 80.298,105.885 79.495 C 106.220 78.692,106.819 77.380,107.216 76.579 C 107.614 75.777,107.864 75.120,107.774 75.118 C 107.683 75.116,107.717 75.043,107.850 74.956 C 108.123 74.776,110.275 71.013,110.273 70.720 C 110.272 70.615,110.359 70.469,110.466 70.397 C 110.778 70.185,114.843 63.897,114.672 63.890 C 114.587 63.886,114.689 63.783,114.899 63.661 C 115.110 63.538,115.225 63.347,115.156 63.236 C 115.088 63.124,115.120 63.033,115.229 63.033 C 115.422 63.033,117.337 60.438,117.300 60.227 C 117.289 60.167,117.394 60.022,117.533 59.903 C 117.946 59.550,120.041 56.773,119.893 56.773 C 119.819 56.773,119.947 56.603,120.178 56.395 C 120.804 55.832,122.892 53.319,122.734 53.319 C 122.659 53.319,122.944 53.015,123.367 52.643 C 123.791 52.271,124.094 51.923,124.041 51.870 C 123.988 51.817,124.327 51.427,124.795 51.005 C 125.263 50.582,125.605 50.196,125.555 50.146 C 125.505 50.096,125.940 49.611,126.521 49.067 C 127.102 48.524,127.577 48.003,127.577 47.911 C 127.577 47.818,128.208 47.136,128.980 46.395 C 129.752 45.654,130.383 44.986,130.383 44.910 C 130.383 44.737,136.571 38.608,139.018 36.358 C 141.804 33.795,145.290 30.853,147.727 29.008 C 148.933 28.095,150.040 27.199,150.189 27.017 C 150.337 26.834,150.459 26.750,150.459 26.830 C 150.459 27.009,153.529 25.051,153.747 24.732 C 153.835 24.605,153.907 24.572,153.909 24.659 C 153.911 24.745,154.520 24.485,155.262 24.081 C 156.004 23.676,157.971 22.748,159.633 22.019 C 164.772 19.764,166.535 18.934,166.699 18.691 C 166.787 18.562,166.859 18.532,166.861 18.624 C 166.863 18.715,167.229 18.598,167.674 18.363 C 168.830 17.753,169.530 17.770,169.334 18.403 M137.585 22.186 C 137.757 22.464,137.146 23.076,132.920 26.860 C 130.693 28.853,128.872 30.570,128.872 30.676 C 128.872 30.782,128.736 30.869,128.571 30.869 C 128.405 30.869,127.982 31.196,127.631 31.596 C 127.280 31.996,126.885 32.360,126.753 32.405 C 126.083 32.636,121.484 37.028,120.960 37.939 C 120.006 39.595,119.399 40.306,118.628 40.672 C 118.081 40.932,117.822 41.254,117.572 41.987 C 117.382 42.544,116.716 43.546,116.011 44.334 C 115.334 45.091,114.818 45.762,114.865 45.825 C 114.911 45.888,114.681 46.151,114.353 46.409 C 114.025 46.667,113.813 46.967,113.880 47.076 C 113.948 47.185,113.900 47.275,113.774 47.275 C 113.648 47.275,112.879 48.173,112.065 49.271 C 110.485 51.405,108.514 54.398,108.690 54.398 C 108.749 54.398,108.641 54.568,108.452 54.776 C 107.936 55.341,101.245 65.917,101.263 66.139 C 101.271 66.244,101.176 66.394,101.050 66.471 C 100.014 67.112,93.015 78.840,90.746 83.738 C 87.917 89.844,88.252 89.370,86.639 89.557 C 85.027 89.743,53.617 89.621,50.247 89.415 L 47.714 89.261 48.240 88.127 C 48.529 87.504,48.718 86.994,48.659 86.994 C 48.601 86.994,48.748 86.785,48.986 86.530 C 49.224 86.274,49.374 85.993,49.319 85.905 C 49.265 85.816,49.379 85.683,49.573 85.608 C 49.768 85.534,49.876 85.422,49.814 85.360 C 49.751 85.297,49.876 85.032,50.092 84.771 C 51.148 83.488,55.909 77.482,55.909 77.433 C 55.909 77.402,60.159 73.137,65.353 67.956 C 75.211 58.123,77.012 56.453,82.353 52.186 C 84.134 50.764,85.704 49.459,85.841 49.287 C 85.979 49.114,86.124 48.998,86.165 49.029 C 86.205 49.060,87.161 48.406,88.289 47.575 C 89.417 46.745,91.311 45.395,92.499 44.576 C 93.686 43.756,94.729 42.983,94.816 42.859 C 94.903 42.735,94.976 42.713,94.978 42.810 C 94.980 42.907,95.248 42.801,95.575 42.574 C 95.901 42.348,96.703 41.880,97.356 41.536 C 98.009 41.192,98.614 40.812,98.701 40.692 C 98.789 40.573,98.862 40.544,98.863 40.629 C 98.871 40.974,100.962 39.853,101.890 39.007 C 103.347 37.677,104.479 36.722,104.479 36.821 C 104.479 36.952,106.942 35.361,107.094 35.132 C 107.166 35.023,107.294 34.954,107.378 34.978 C 107.612 35.047,109.012 34.248,109.012 34.045 C 109.012 33.946,109.110 33.926,109.228 33.999 C 109.347 34.072,109.444 34.013,109.444 33.868 C 109.444 33.722,109.502 33.661,109.573 33.732 C 109.700 33.859,115.566 31.081,116.078 30.651 C 116.224 30.528,116.418 30.428,116.510 30.427 C 116.884 30.425,118.079 29.906,118.079 29.746 C 118.079 29.651,118.152 29.597,118.241 29.626 C 118.330 29.656,120.200 28.925,122.396 28.003 C 133.180 23.478,137.387 21.866,137.585 22.186 M268.859 24.000 C 270.641 24.601,272.221 25.097,272.369 25.103 C 272.518 25.108,272.639 25.193,272.639 25.292 C 272.639 25.391,272.760 25.474,272.909 25.476 C 273.057 25.477,274.023 25.855,275.056 26.315 C 276.088 26.774,276.987 27.097,277.053 27.031 C 277.118 26.965,277.172 27.041,277.172 27.199 C 277.172 27.357,277.231 27.428,277.303 27.356 C 277.375 27.284,277.545 27.317,277.681 27.430 C 278.228 27.885,282.137 30.403,282.137 30.300 C 282.137 30.240,282.290 30.343,282.476 30.530 C 282.663 30.716,282.979 30.884,283.178 30.902 C 283.683 30.948,283.922 30.999,284.296 31.143 C 284.474 31.212,285.008 31.385,285.483 31.528 C 285.958 31.672,287.294 32.255,288.451 32.824 C 289.609 33.394,290.557 33.794,290.559 33.713 C 290.561 33.633,290.634 33.676,290.721 33.809 C 290.808 33.942,291.560 34.464,292.391 34.968 C 293.222 35.472,294.497 36.306,295.224 36.822 C 295.951 37.338,296.606 37.698,296.681 37.624 C 296.755 37.550,296.816 37.590,296.816 37.714 C 296.816 37.837,297.632 38.330,298.629 38.809 C 300.163 39.545,300.579 39.864,301.334 40.886 C 302.200 42.059,302.525 42.225,303.646 42.075 C 303.721 42.065,303.843 42.149,303.915 42.262 C 303.988 42.375,304.485 42.687,305.019 42.955 C 306.150 43.522,308.574 45.182,311.545 47.426 C 312.701 48.298,313.705 49.003,313.777 48.992 C 313.850 48.982,314.021 49.115,314.159 49.288 C 314.296 49.461,315.623 50.605,317.107 51.831 C 318.591 53.056,320.842 55.009,322.109 56.171 C 323.376 57.333,324.467 58.284,324.533 58.284 C 324.600 58.284,325.057 58.721,325.549 59.255 C 326.042 59.790,326.515 60.227,326.600 60.227 C 326.686 60.227,327.289 60.737,327.940 61.360 C 328.591 61.983,331.316 64.582,333.995 67.134 C 336.674 69.687,338.878 71.873,338.892 71.991 C 338.906 72.110,339.827 73.154,340.939 74.312 C 342.051 75.470,342.919 76.417,342.867 76.417 C 342.816 76.417,344.101 77.947,345.724 79.817 C 348.283 82.765,351.008 86.346,350.692 86.346 C 350.636 86.346,350.691 86.638,350.815 86.994 C 350.992 87.501,351.169 87.642,351.632 87.642 C 352.328 87.642,352.660 88.245,352.553 89.315 L 352.482 90.016 348.124 90.022 C 337.971 90.034,315.196 89.952,314.305 89.899 C 313.495 89.850,309.376 86.346,310.129 86.346 C 310.174 86.346,310.063 86.061,309.882 85.712 C 309.702 85.362,309.455 84.378,309.334 83.524 C 309.213 82.669,308.945 81.754,308.739 81.490 C 308.533 81.226,307.945 80.468,307.431 79.806 C 306.918 79.143,305.818 77.309,304.987 75.728 C 303.238 72.399,298.468 64.345,297.860 63.693 C 297.633 63.449,297.502 63.249,297.569 63.249 C 297.742 63.249,295.100 59.307,294.724 59.005 C 294.553 58.867,294.443 58.710,294.481 58.655 C 294.586 58.502,286.855 47.491,286.642 47.491 C 286.539 47.491,286.479 47.417,286.508 47.327 C 286.592 47.075,282.997 42.094,282.732 42.094 C 282.603 42.094,282.557 42.034,282.631 41.960 C 282.858 41.733,280.336 38.619,278.543 36.913 C 272.586 31.246,268.673 27.631,268.496 27.631 C 268.200 27.631,263.536 22.900,263.650 22.716 C 263.838 22.410,264.979 22.692,268.859 24.000 M357.155 100.682 C 360.771 101.285,361.321 101.738,364.292 106.557 C 365.088 107.848,365.847 108.976,365.978 109.063 C 366.109 109.150,366.142 109.223,366.051 109.225 C 365.898 109.228,367.401 112.302,367.794 112.790 C 367.890 112.909,367.980 113.081,367.994 113.173 C 368.183 114.392,369.609 117.827,370.435 119.050 C 370.997 119.881,371.723 121.096,372.049 121.749 C 372.375 122.402,372.750 123.007,372.883 123.094 C 373.016 123.182,373.057 123.254,372.975 123.256 C 372.893 123.258,373.144 123.964,373.533 124.825 C 373.922 125.685,374.619 127.361,375.081 128.548 C 375.543 129.736,376.020 130.778,376.142 130.866 C 376.263 130.953,376.295 131.026,376.213 131.027 C 376.094 131.030,377.763 136.104,378.344 137.507 C 378.418 137.685,378.509 137.981,378.546 138.165 C 378.801 139.427,383.309 154.431,383.732 155.424 C 383.808 155.602,383.891 155.893,383.916 156.071 C 383.989 156.582,384.488 158.316,384.628 158.545 C 384.697 158.658,384.780 158.988,384.810 159.276 C 384.841 159.565,384.934 159.958,385.016 160.149 C 385.098 160.340,385.189 160.642,385.218 160.820 C 385.246 160.998,385.517 162.407,385.819 163.950 C 386.674 168.326,386.734 168.947,386.580 171.906 C 386.448 174.423,386.476 174.773,386.879 175.683 C 387.123 176.235,387.351 176.881,387.384 177.118 C 387.418 177.356,387.554 177.987,387.686 178.521 C 388.353 181.221,388.723 190.812,388.270 193.651 L 388.111 194.642 380.510 194.784 C 361.879 195.133,335.278 194.965,334.808 194.495 C 334.571 194.258,334.382 193.991,334.388 193.902 C 334.394 193.813,334.337 193.546,334.262 193.308 C 334.025 192.560,333.966 191.845,334.000 190.178 C 334.120 184.366,334.015 182.262,333.500 180.163 C 333.236 179.086,333.132 178.493,332.983 177.226 C 332.921 176.692,332.775 175.526,332.659 174.636 C 332.385 172.528,332.036 168.584,331.896 166.001 C 331.691 162.225,330.906 156.879,330.344 155.424 C 330.275 155.246,330.185 154.857,330.145 154.560 C 330.104 154.263,329.970 153.535,329.847 152.941 C 329.724 152.348,329.570 151.382,329.505 150.795 C 329.440 150.209,329.337 149.649,329.277 149.552 C 329.217 149.454,329.123 148.283,329.068 146.948 C 328.872 142.183,328.816 141.749,328.249 140.523 C 327.946 139.867,327.302 137.633,326.818 135.558 C 326.335 133.484,325.881 131.641,325.811 131.462 C 325.740 131.284,325.663 130.993,325.640 130.815 C 325.569 130.279,324.655 126.414,324.516 126.066 C 324.445 125.888,324.368 125.596,324.344 125.418 C 324.275 124.890,323.361 121.020,323.222 120.669 C 323.152 120.491,323.066 120.128,323.030 119.863 C 322.928 119.098,322.435 117.863,322.232 117.863 C 322.130 117.863,322.107 117.766,322.180 117.647 C 322.254 117.528,322.227 117.431,322.121 117.431 C 322.015 117.431,321.925 117.310,321.922 117.161 C 321.918 117.013,321.645 116.309,321.314 115.596 C 320.984 114.884,320.682 114.144,320.643 113.953 C 320.605 113.761,320.457 113.324,320.316 112.981 C 320.175 112.639,320.074 112.289,320.092 112.204 C 320.110 112.119,320.020 111.779,319.892 111.448 C 319.620 110.748,318.616 106.566,318.529 105.774 C 318.497 105.478,318.455 104.860,318.436 104.402 C 318.411 103.778,318.326 103.599,318.095 103.688 C 317.624 103.868,317.375 103.403,317.291 102.182 L 317.215 101.073 319.374 100.918 C 321.960 100.732,333.002 100.739,335.888 100.928 C 337.016 101.003,339.493 100.956,341.392 100.825 C 343.292 100.694,345.863 100.535,347.106 100.472 C 348.349 100.408,349.384 100.336,349.408 100.313 C 349.565 100.153,355.749 100.448,357.155 100.682 M83.313 101.183 C 83.215 101.616,83.145 102.025,83.156 102.091 C 83.168 102.158,83.121 102.358,83.053 102.536 C 82.870 103.014,82.049 105.860,81.957 106.336 C 81.914 106.561,81.815 106.892,81.738 107.070 C 81.343 107.983,79.701 113.114,79.804 113.114 C 79.870 113.114,79.825 113.235,79.704 113.384 C 79.584 113.532,78.978 115.013,78.358 116.676 C 77.738 118.338,77.051 120.050,76.833 120.481 C 76.614 120.911,76.496 121.324,76.570 121.398 C 76.644 121.472,76.603 121.533,76.479 121.533 C 76.091 121.533,75.788 122.651,75.673 124.515 C 75.612 125.502,75.517 126.382,75.462 126.470 C 75.407 126.559,75.310 127.111,75.246 127.698 C 75.181 128.284,74.940 129.539,74.710 130.486 C 74.479 131.433,74.299 132.259,74.309 132.321 C 74.318 132.383,74.270 132.580,74.202 132.758 C 73.455 134.694,72.055 140.356,71.767 142.608 C 71.708 143.067,71.516 144.269,71.340 145.278 C 71.164 146.287,70.964 147.550,70.894 148.084 C 70.713 149.479,70.645 149.876,70.155 152.402 C 69.913 153.648,69.682 154.911,69.641 155.208 C 69.599 155.505,69.515 155.893,69.453 156.071 C 69.228 156.721,68.365 160.075,68.330 160.438 C 68.311 160.643,68.225 160.881,68.140 160.966 C 68.055 161.051,67.993 163.068,68.002 165.449 C 68.015 168.695,67.905 170.644,67.564 173.233 C 67.313 175.132,67.074 177.075,67.031 177.550 C 66.989 178.025,66.900 178.656,66.835 178.953 C 66.770 179.250,66.665 181.112,66.602 183.092 C 66.441 188.184,65.684 193.394,65.000 194.117 C 64.811 194.317,11.607 194.408,11.286 194.209 C 11.134 194.115,11.117 193.788,11.236 193.255 C 11.335 192.810,11.470 191.862,11.536 191.149 C 11.602 190.437,11.754 189.374,11.873 188.787 C 12.363 186.386,12.464 184.651,12.351 180.572 C 12.325 179.622,12.349 178.457,12.406 177.982 C 12.650 175.918,13.647 168.906,14.047 166.433 C 14.287 164.949,14.526 163.394,14.577 162.979 C 14.628 162.563,15.018 160.523,15.444 158.446 C 15.869 156.368,16.247 154.474,16.283 154.236 C 16.319 153.999,16.400 153.659,16.462 153.481 C 16.524 153.303,16.792 152.283,17.056 151.214 C 17.320 150.146,17.876 148.206,18.292 146.904 C 18.708 145.602,19.067 144.436,19.090 144.314 C 19.157 143.953,20.741 140.905,21.197 140.259 C 21.427 139.933,21.537 139.664,21.439 139.662 C 21.342 139.660,21.387 139.580,21.538 139.484 C 21.690 139.388,21.852 139.025,21.900 138.678 C 21.947 138.331,22.096 137.550,22.230 136.942 C 22.364 136.335,22.504 135.607,22.541 135.323 C 22.578 135.040,22.664 134.663,22.731 134.485 C 22.799 134.307,23.113 133.287,23.430 132.218 C 23.746 131.149,24.325 129.480,24.716 128.508 C 25.107 127.536,25.373 126.686,25.306 126.619 C 25.239 126.552,25.286 126.498,25.410 126.498 C 25.534 126.498,25.765 126.182,25.923 125.796 C 26.081 125.410,26.839 123.979,27.608 122.617 C 28.377 121.254,29.410 119.166,29.904 117.976 C 30.903 115.568,31.899 113.547,33.519 110.638 C 34.116 109.566,34.606 108.567,34.608 108.419 C 34.609 108.270,34.697 108.149,34.803 108.149 C 34.909 108.149,34.941 108.060,34.874 107.952 C 34.807 107.843,34.828 107.722,34.922 107.682 C 35.066 107.620,35.798 106.395,38.046 102.450 C 38.254 102.086,38.424 101.874,38.424 101.980 C 38.424 102.085,38.598 102.015,38.810 101.823 C 40.225 100.542,40.849 100.511,66.840 100.441 L 83.491 100.396 83.313 101.183 M141.032 100.582 L 143.369 100.594 143.246 101.187 C 143.178 101.514,143.075 102.315,143.018 102.968 C 142.960 103.621,142.769 105.074,142.594 106.197 C 142.418 107.320,142.315 108.280,142.365 108.330 C 142.415 108.381,142.371 108.582,142.266 108.778 C 142.161 108.974,142.012 109.714,141.934 110.422 C 141.856 111.131,141.753 111.954,141.705 112.250 C 141.657 112.547,141.566 113.130,141.504 113.546 C 141.441 113.961,141.296 114.835,141.180 115.487 C 140.991 116.552,140.826 117.801,140.622 119.698 C 140.584 120.054,140.450 121.171,140.325 122.180 C 140.135 123.709,139.304 133.204,139.267 134.269 C 139.229 135.376,138.490 140.673,138.018 143.227 C 137.556 145.725,137.444 147.074,137.372 150.998 C 137.324 153.610,137.242 156.185,137.190 156.719 C 137.137 157.253,137.045 158.564,136.984 159.633 C 136.923 160.702,136.823 162.062,136.762 162.655 C 136.646 163.780,136.328 173.159,136.349 174.852 C 136.519 188.852,136.475 189.622,135.373 192.178 C 135.129 192.743,134.933 193.269,134.938 193.346 C 134.981 194.096,127.279 194.303,97.572 194.349 C 79.977 194.376,78.310 194.303,77.774 193.484 C 77.382 192.886,77.236 189.278,77.540 187.696 C 77.677 186.981,78.518 177.214,78.534 176.147 C 78.536 175.969,78.681 174.172,78.855 172.153 C 79.030 170.135,79.177 168.338,79.184 168.160 C 79.340 163.839,80.018 159.196,80.600 158.467 C 80.746 158.284,80.861 156.998,80.890 155.229 C 80.917 153.614,80.990 151.954,81.053 151.538 C 81.116 151.123,81.212 150.345,81.266 149.811 C 81.320 149.277,81.573 148.014,81.830 147.005 C 82.086 145.996,82.319 145.024,82.348 144.846 C 82.376 144.668,82.510 144.252,82.644 143.921 C 82.778 143.591,82.873 143.251,82.855 143.166 C 82.837 143.081,82.938 142.731,83.080 142.388 C 83.221 142.045,83.286 141.714,83.224 141.652 C 83.163 141.590,83.222 141.407,83.357 141.245 C 83.492 141.083,83.540 140.889,83.465 140.813 C 83.390 140.738,83.417 140.569,83.526 140.437 C 83.636 140.306,83.777 139.811,83.841 139.338 C 83.905 138.865,84.052 138.090,84.167 137.615 C 84.282 137.140,84.428 136.363,84.491 135.888 C 84.553 135.413,84.852 133.810,85.155 132.326 C 85.457 130.842,85.739 129.385,85.781 129.088 C 85.824 128.791,85.924 128.392,86.006 128.201 C 86.087 128.010,86.184 127.621,86.221 127.337 C 86.259 127.054,86.345 126.676,86.413 126.498 C 86.780 125.540,87.364 123.259,87.243 123.256 C 87.165 123.254,87.206 123.182,87.333 123.094 C 87.460 123.007,87.734 122.499,87.942 121.964 C 88.150 121.430,88.560 120.582,88.851 120.080 C 89.143 119.577,89.396 119.091,89.414 119.000 C 89.431 118.909,89.568 118.712,89.718 118.562 C 89.868 118.412,90.054 117.829,90.132 117.267 C 90.450 114.976,90.955 112.922,91.746 110.704 C 92.205 109.418,92.514 108.363,92.432 108.362 C 92.350 108.360,92.390 108.287,92.521 108.200 C 92.764 108.037,93.720 105.366,93.814 104.587 C 93.842 104.350,93.886 104.131,93.911 104.101 C 93.936 104.072,93.972 103.975,93.992 103.886 C 94.084 103.474,95.272 101.264,95.389 101.286 C 95.461 101.300,95.812 101.174,96.168 101.006 C 96.765 100.726,127.128 100.364,136.319 100.528 C 137.625 100.551,139.746 100.576,141.032 100.582 M236.936 100.897 C 237.068 100.947,237.242 101.312,237.323 101.708 C 237.512 102.626,238.303 107.584,238.421 108.581 C 238.470 108.996,238.906 112.445,239.391 116.244 C 240.302 123.377,240.408 124.272,240.580 126.282 C 240.635 126.935,240.932 130.140,241.240 133.405 C 241.547 136.670,241.802 139.487,241.806 139.665 C 241.813 139.942,242.160 143.551,242.542 147.329 C 242.602 147.922,242.658 148.554,242.665 148.732 C 242.673 148.910,242.775 150.027,242.891 151.214 C 243.007 152.402,243.104 153.519,243.108 153.697 C 243.112 153.875,243.202 155.074,243.308 156.361 C 243.544 159.205,243.757 162.108,243.762 162.547 C 243.764 162.725,243.901 165.785,244.066 169.347 C 244.232 172.909,244.410 177.037,244.463 178.521 C 244.515 180.005,244.613 182.759,244.679 184.640 C 244.879 190.281,244.854 194.088,244.616 194.326 C 244.394 194.548,162.222 194.612,156.935 194.395 C 155.569 194.339,152.728 194.227,150.621 194.146 L 146.789 193.999 146.757 190.847 C 146.711 186.312,146.783 183.889,147.036 181.436 C 147.342 178.461,147.409 177.940,147.654 176.579 C 147.800 175.766,147.791 174.676,147.624 173.125 C 147.379 170.831,147.495 166.865,147.966 161.468 C 148.034 160.696,148.137 159.433,148.196 158.662 C 148.255 157.890,148.352 156.676,148.411 155.963 C 148.624 153.431,148.753 151.845,148.850 150.567 C 149.521 141.752,150.081 136.200,150.375 135.456 C 150.647 134.767,150.681 134.222,150.546 132.758 C 150.336 130.481,150.335 130.203,150.533 128.332 C 150.621 127.501,150.733 126.433,150.782 125.958 C 150.831 125.483,151.008 124.317,151.177 123.368 C 151.345 122.418,151.492 121.495,151.503 121.317 C 151.514 121.139,151.771 119.682,152.073 118.079 C 152.375 116.476,152.670 114.776,152.729 114.301 C 152.788 113.826,152.931 112.903,153.046 112.250 C 153.162 111.597,153.308 110.626,153.371 110.092 C 153.563 108.453,154.763 101.005,154.860 100.849 C 154.956 100.693,236.527 100.741,236.936 100.897 M304.386 100.785 C 304.453 100.799,304.729 101.344,305.000 101.997 C 305.270 102.650,305.585 103.184,305.700 103.184 C 305.814 103.184,305.848 103.281,305.774 103.400 C 305.701 103.519,305.760 103.616,305.906 103.616 C 306.051 103.616,306.114 103.672,306.045 103.740 C 305.977 103.809,306.188 104.513,306.514 105.306 C 306.840 106.098,307.525 108.009,308.035 109.552 C 308.545 111.096,309.018 112.454,309.085 112.570 C 309.153 112.687,309.223 112.930,309.241 113.110 C 309.285 113.550,311.290 120.287,311.458 120.561 C 311.531 120.680,311.610 120.905,311.634 121.061 C 311.657 121.218,311.891 121.801,312.154 122.357 C 313.795 125.834,315.268 131.946,315.182 134.916 C 315.152 135.956,315.555 138.986,315.770 139.338 C 315.841 139.454,315.914 139.697,315.932 139.877 C 315.977 140.333,316.444 141.979,316.722 142.660 C 316.849 142.972,316.974 143.373,317.000 143.551 C 317.027 143.729,317.265 144.700,317.529 145.710 C 318.134 148.015,318.816 150.995,318.952 151.925 C 319.010 152.315,319.252 153.918,319.491 155.486 C 319.730 157.055,319.977 158.812,320.039 159.392 C 320.102 159.971,320.342 161.866,320.574 163.601 C 321.086 167.431,321.230 168.599,321.246 169.023 C 321.252 169.201,321.348 170.076,321.458 170.966 C 321.844 174.077,322.053 176.450,322.512 182.947 C 323.016 190.092,322.809 193.093,321.747 194.010 L 321.185 194.495 304.413 194.539 C 295.189 194.563,282.008 194.603,275.121 194.627 C 268.235 194.651,261.075 194.619,259.210 194.556 L 255.820 194.441 255.705 193.551 C 255.642 193.061,255.543 190.038,255.485 186.832 C 255.427 183.627,255.321 179.644,255.250 177.982 C 255.179 176.319,255.128 174.717,255.136 174.420 C 255.145 174.123,255.000 171.355,254.814 168.268 C 254.628 165.181,254.482 162.461,254.489 162.223 C 254.501 161.843,254.407 160.478,253.953 154.452 C 253.891 153.621,253.842 152.734,253.845 152.480 C 253.847 152.226,253.554 148.389,253.192 143.953 C 252.831 139.517,252.530 135.742,252.523 135.564 C 252.512 135.285,251.849 127.407,251.596 124.555 C 251.549 124.021,251.452 122.903,251.381 122.072 C 251.309 121.241,251.191 120.367,251.118 120.130 C 251.044 119.892,250.964 119.455,250.939 119.158 C 250.846 118.024,250.612 116.218,250.478 115.596 C 250.402 115.240,250.318 114.706,250.291 114.409 C 250.120 112.503,249.913 111.041,249.754 110.622 C 249.652 110.355,249.613 110.092,249.668 110.037 C 249.722 109.983,249.614 108.977,249.426 107.802 C 248.610 102.688,248.862 101.059,250.476 101.001 C 250.852 100.987,252.423 100.914,253.967 100.839 C 256.146 100.732,303.861 100.682,304.386 100.785 M64.324 205.088 C 65.743 205.500,66.016 207.181,65.860 214.565 C 65.846 215.239,66.061 216.539,66.358 217.587 C 66.988 219.803,67.169 220.551,67.250 221.263 C 67.695 225.196,68.014 228.795,68.217 232.164 C 68.352 234.420,68.549 236.596,68.654 237.001 C 68.759 237.405,68.799 237.811,68.743 237.902 C 68.599 238.134,69.195 241.973,69.833 244.923 C 70.618 248.555,71.020 252.008,71.020 255.129 C 71.020 256.646,71.088 257.956,71.170 258.038 C 71.253 258.121,71.340 258.324,71.364 258.489 C 71.389 258.654,71.661 259.421,71.970 260.193 C 72.278 260.964,72.531 261.694,72.531 261.814 C 72.531 261.935,72.643 262.307,72.780 262.641 C 72.917 262.975,73.065 263.439,73.109 263.672 C 73.222 264.264,74.257 268.145,74.407 268.538 C 74.475 268.716,74.558 269.056,74.591 269.293 C 74.624 269.530,74.849 270.502,75.091 271.452 C 75.333 272.402,75.831 274.539,76.197 276.201 C 76.941 279.583,77.540 281.545,78.282 283.021 C 78.812 284.077,79.488 286.628,79.477 287.534 C 79.455 289.270,79.858 290.482,81.040 292.243 C 81.703 293.230,82.245 294.177,82.245 294.347 C 82.245 294.518,82.326 294.657,82.425 294.657 C 82.524 294.657,82.612 294.779,82.621 294.927 C 82.629 295.076,82.916 296.266,83.259 297.572 C 83.667 299.130,83.852 300.298,83.797 300.971 L 83.713 301.997 62.633 301.982 C 51.040 301.973,41.360 301.883,41.123 301.781 C 40.885 301.679,40.773 301.589,40.873 301.580 C 41.071 301.564,39.991 299.598,39.666 299.382 C 39.556 299.310,39.489 299.181,39.515 299.095 C 39.599 298.828,38.624 297.248,38.374 297.248 C 38.243 297.248,38.198 297.186,38.273 297.111 C 38.444 296.940,37.133 295.089,36.841 295.089 C 36.722 295.089,36.687 295.027,36.763 294.951 C 36.839 294.875,36.626 294.462,36.288 294.033 C 35.951 293.605,35.306 292.671,34.855 291.959 C 34.405 291.247,33.931 290.592,33.802 290.505 C 33.673 290.418,33.642 290.345,33.733 290.343 C 33.932 290.339,32.843 288.130,32.549 287.941 C 32.436 287.869,32.347 287.723,32.352 287.618 C 32.394 286.744,30.557 282.001,29.682 280.723 C 28.566 279.093,27.307 276.661,25.887 273.394 C 25.370 272.207,24.896 271.187,24.832 271.128 C 24.769 271.069,24.683 270.826,24.641 270.588 C 24.600 270.351,24.470 270.097,24.353 270.024 C 24.236 269.952,24.148 269.806,24.158 269.701 C 24.182 269.426,23.750 268.157,23.247 267.026 C 23.010 266.492,22.782 265.882,22.741 265.671 C 22.700 265.460,22.507 264.926,22.311 264.484 C 22.115 264.042,21.932 263.583,21.905 263.465 C 21.790 262.971,20.905 259.986,20.785 259.687 C 20.713 259.509,20.673 259.280,20.696 259.179 C 20.719 259.077,20.639 258.874,20.517 258.727 C 20.395 258.580,20.343 258.412,20.401 258.354 C 20.542 258.213,19.047 252.776,18.778 252.453 C 18.663 252.314,18.615 252.153,18.672 252.096 C 18.760 252.008,16.897 246.173,16.478 245.224 C 16.400 245.046,16.315 244.827,16.290 244.738 C 16.264 244.649,16.224 244.552,16.199 244.522 C 16.174 244.493,16.127 244.274,16.094 244.037 C 16.061 243.799,15.779 242.731,15.467 241.662 C 14.311 237.706,14.009 235.794,13.829 231.301 C 13.681 227.588,13.580 226.741,13.111 225.256 C 11.700 220.789,10.878 209.425,11.728 206.152 L 11.981 205.181 34.539 205.061 C 58.452 204.934,63.809 204.939,64.324 205.088 M126.308 205.501 L 135.725 205.505 135.885 209.012 C 135.973 210.942,136.044 217.610,136.041 223.831 C 136.038 233.202,136.091 235.294,136.352 236.028 C 136.526 236.515,136.712 237.496,136.768 238.208 C 136.920 240.173,137.105 242.917,137.110 243.281 C 137.113 243.459,137.255 245.548,137.427 247.922 C 137.598 250.297,137.787 253.114,137.845 254.182 C 137.904 255.251,138.049 256.951,138.168 257.960 C 138.434 260.212,138.568 261.431,138.906 264.652 C 138.949 265.067,138.990 267.156,138.997 269.293 C 139.008 272.957,139.164 274.212,139.815 275.877 C 139.884 276.055,139.962 276.346,139.987 276.525 C 140.012 276.703,140.287 278.111,140.598 279.655 C 141.219 282.732,141.779 286.021,141.940 287.534 C 141.997 288.068,142.145 289.234,142.270 290.124 C 142.394 291.015,142.542 292.326,142.599 293.038 C 142.655 293.751,142.795 295.353,142.910 296.600 C 143.025 297.847,143.119 299.620,143.119 300.540 L 143.119 302.213 129.250 302.212 C 121.622 302.212,111.240 302.148,106.180 302.070 L 96.979 301.927 96.358 300.776 C 96.016 300.142,95.664 299.623,95.575 299.623 C 95.486 299.623,95.437 299.542,95.467 299.445 C 95.533 299.227,94.296 296.544,94.045 296.360 C 93.946 296.287,93.875 296.166,93.887 296.089 C 93.946 295.723,93.613 294.873,93.411 294.873 C 93.285 294.873,93.240 294.815,93.311 294.745 C 93.435 294.620,92.642 292.286,92.401 292.067 C 92.336 292.008,92.269 291.862,92.253 291.743 C 92.222 291.517,90.089 284.859,89.868 284.296 C 89.798 284.118,89.718 283.826,89.691 283.648 C 89.385 281.661,87.553 276.099,86.811 274.906 C 86.737 274.787,86.670 274.641,86.661 274.582 C 86.598 274.139,86.273 272.924,86.173 272.756 C 86.105 272.642,86.028 272.344,86.001 272.094 C 85.974 271.843,85.830 271.208,85.680 270.682 C 85.530 270.155,85.419 269.667,85.434 269.596 C 85.449 269.525,85.317 268.602,85.141 267.545 C 84.965 266.488,84.776 264.846,84.720 263.896 C 84.621 262.193,84.114 260.550,83.687 260.550 C 83.567 260.550,83.530 260.489,83.605 260.414 C 83.680 260.339,83.629 260.072,83.492 259.821 C 83.355 259.569,83.226 259.217,83.206 259.039 C 83.186 258.861,83.016 258.133,82.828 257.420 C 82.641 256.708,82.279 255.057,82.025 253.751 C 81.555 251.334,81.517 251.097,81.286 249.241 C 81.214 248.660,81.058 247.543,80.939 246.758 C 80.820 245.974,80.675 244.895,80.616 244.360 C 80.558 243.826,80.359 242.223,80.174 240.799 C 79.989 239.374,79.834 238.063,79.828 237.885 C 79.823 237.706,79.732 236.760,79.626 235.781 C 79.423 233.894,77.979 219.312,77.815 217.485 C 77.761 216.892,77.674 215.920,77.621 215.326 C 77.568 214.733,77.406 212.933,77.261 211.326 C 76.964 208.018,77.068 207.085,77.836 206.173 C 78.545 205.329,76.847 205.390,98.111 205.448 C 108.440 205.475,121.129 205.500,126.308 205.501 M239.611 205.455 L 244.468 205.613 244.468 208.635 C 244.468 210.297,244.394 213.648,244.302 216.082 C 244.133 220.572,243.760 233.100,243.772 233.891 C 243.782 234.572,243.076 244.964,242.752 248.894 C 242.591 250.853,242.458 252.601,242.456 252.779 C 242.454 252.957,242.310 254.560,242.135 256.341 C 241.961 258.122,241.817 259.725,241.816 259.903 C 241.815 260.081,241.716 261.101,241.597 262.169 C 241.477 263.238,241.376 264.258,241.373 264.436 C 241.370 264.614,241.312 265.294,241.245 265.947 C 240.978 268.530,240.091 277.947,240.086 278.251 C 240.080 278.530,239.903 280.157,239.721 281.597 C 239.691 281.835,239.614 282.175,239.548 282.353 C 238.496 285.222,238.302 286.237,238.302 288.852 C 238.303 292.583,237.972 294.970,236.932 298.741 C 236.754 299.385,236.655 299.985,236.711 300.076 C 236.767 300.166,236.726 300.293,236.621 300.358 C 236.515 300.423,236.372 300.761,236.303 301.108 C 236.076 302.243,237.720 302.199,195.143 302.195 C 162.855 302.192,155.461 302.106,155.086 301.731 C 154.973 301.619,154.464 299.584,154.260 298.435 C 154.218 298.198,154.165 298.003,154.141 298.003 C 154.118 298.003,154.056 297.669,154.003 297.261 C 153.950 296.853,153.794 296.124,153.656 295.642 C 153.518 295.160,153.416 294.708,153.431 294.639 C 153.445 294.569,153.320 293.744,153.153 292.804 C 152.985 291.864,152.845 289.703,152.841 288.002 C 152.834 285.066,152.801 284.834,152.205 283.468 C 151.129 281.007,150.089 276.322,149.991 273.502 C 149.984 273.324,149.897 271.916,149.796 270.372 C 149.532 266.324,149.321 262.056,149.348 261.306 C 149.360 260.950,149.275 259.638,149.158 258.392 C 149.041 257.145,148.905 255.688,148.857 255.154 C 148.541 251.685,148.507 250.052,148.712 248.211 C 148.921 246.345,148.901 245.981,148.525 244.757 C 147.335 240.879,147.164 238.683,147.105 226.444 C 147.076 220.567,146.988 213.500,146.910 210.739 L 146.767 205.720 147.371 205.724 C 148.576 205.730,162.224 205.459,162.259 205.428 C 162.400 205.305,235.772 205.331,239.611 205.455 M322.331 205.894 C 322.820 206.386,322.538 214.914,321.658 226.228 C 321.552 227.593,321.460 228.856,321.454 229.034 C 321.424 229.872,320.902 234.641,320.556 237.237 C 320.437 238.127,320.294 239.244,320.236 239.719 C 320.179 240.194,320.029 241.069,319.903 241.662 C 319.777 242.256,319.648 242.936,319.617 243.173 C 319.586 243.411,319.455 243.799,319.327 244.037 C 319.198 244.274,319.059 244.663,319.018 244.900 C 318.976 245.138,318.845 245.401,318.726 245.486 C 318.607 245.572,318.501 246.724,318.490 248.076 C 318.467 250.756,318.306 252.269,317.850 254.086 C 317.685 254.745,317.513 255.473,317.469 255.705 C 317.425 255.936,317.278 256.396,317.143 256.726 C 317.007 257.057,316.911 257.397,316.929 257.482 C 316.947 257.567,316.848 257.910,316.710 258.245 C 316.572 258.581,316.117 260.718,315.699 262.995 C 315.282 265.271,314.790 267.839,314.606 268.699 C 314.422 269.560,314.243 270.483,314.207 270.750 C 314.171 271.017,314.086 271.382,314.017 271.560 C 313.854 271.979,313.388 273.732,313.328 274.150 C 313.303 274.328,313.221 274.620,313.146 274.798 C 312.694 275.877,312.197 277.587,312.304 277.694 C 312.374 277.763,312.327 277.820,312.202 277.820 C 311.999 277.820,311.666 278.670,311.725 279.036 C 311.738 279.112,311.663 279.234,311.560 279.307 C 310.937 279.746,309.930 281.806,309.833 282.838 C 309.675 284.531,309.639 284.751,309.349 285.792 C 309.202 286.318,309.055 286.950,309.022 287.195 C 308.989 287.441,308.901 287.787,308.828 287.965 C 308.754 288.144,308.659 288.484,308.616 288.721 C 308.573 288.958,308.480 289.298,308.409 289.477 C 308.013 290.472,306.500 294.581,306.464 294.757 C 306.441 294.871,306.349 295.065,306.261 295.189 C 305.876 295.723,303.521 300.649,303.387 301.200 C 303.101 302.372,302.515 302.532,298.556 302.519 C 267.814 302.419,247.811 302.132,247.918 301.793 C 248.017 301.484,248.965 294.016,249.222 291.527 C 249.271 291.052,249.402 290.081,249.514 289.369 C 249.625 288.656,249.721 287.928,249.727 287.750 C 249.751 286.984,251.096 278.497,251.317 277.712 C 251.451 277.237,251.543 276.775,251.522 276.686 C 251.501 276.597,251.579 276.525,251.695 276.525 C 251.823 276.525,251.904 275.275,251.901 273.341 C 251.898 271.589,252.042 269.005,252.222 267.598 C 252.402 266.191,252.533 264.976,252.515 264.900 C 252.496 264.823,252.548 264.468,252.629 264.112 C 252.710 263.756,252.828 262.785,252.891 261.954 C 253.089 259.339,253.603 251.822,253.607 251.484 C 253.609 251.306,253.661 250.529,253.724 249.757 C 253.946 247.010,254.255 242.736,254.255 242.418 C 254.255 242.240,254.357 240.831,254.482 239.288 C 254.607 237.744,254.764 235.559,254.833 234.431 C 255.007 231.552,255.090 230.709,255.239 230.275 C 255.566 229.328,255.630 229.111,255.719 228.647 C 255.771 228.375,255.717 227.792,255.599 227.352 C 255.254 226.063,255.333 217.366,255.769 208.635 L 255.909 205.828 267.026 205.709 C 288.986 205.474,322.023 205.584,322.331 205.894 M388.709 209.120 C 388.615 211.752,388.447 213.294,388.093 214.787 C 387.748 216.243,387.622 217.370,387.658 218.672 C 387.702 220.242,387.544 222.120,386.927 227.331 C 386.865 227.852,386.762 228.618,386.696 229.034 C 386.631 229.450,386.554 229.984,386.524 230.221 C 386.494 230.459,386.406 230.944,386.329 231.301 C 386.252 231.657,386.131 232.337,386.060 232.812 C 385.786 234.669,385.708 235.081,385.107 237.871 C 384.865 238.991,384.613 240.254,384.547 240.677 C 384.374 241.783,384.317 242.054,384.179 242.418 C 384.111 242.596,383.803 243.850,383.494 245.206 C 383.185 246.561,382.535 249.087,382.050 250.818 C 381.565 252.550,381.145 254.112,381.116 254.290 C 381.087 254.468,381.002 254.760,380.927 254.938 C 380.461 256.046,379.766 258.378,379.871 258.482 C 379.940 258.551,379.903 258.608,379.788 258.608 C 379.673 258.608,379.453 258.972,379.298 259.417 C 379.144 259.862,378.636 260.868,378.170 261.651 C 377.500 262.780,377.257 263.485,377.006 265.040 C 376.831 266.121,376.450 267.755,376.158 268.673 C 375.867 269.590,375.673 270.412,375.727 270.500 C 375.781 270.588,375.752 270.692,375.662 270.732 C 375.573 270.772,375.225 271.484,374.889 272.315 C 374.554 273.146,373.828 274.652,373.276 275.661 C 372.725 276.670,372.295 277.569,372.321 277.658 C 372.348 277.747,372.282 277.820,372.176 277.820 C 371.688 277.820,369.491 282.362,369.491 283.369 C 369.491 283.523,369.420 283.648,369.334 283.648 C 369.187 283.648,368.882 284.565,368.930 284.864 C 368.942 284.941,368.867 285.062,368.762 285.135 C 368.658 285.208,368.168 286.118,367.673 287.159 C 365.732 291.241,362.687 296.098,360.986 297.825 C 360.484 298.335,359.921 299.117,359.735 299.562 C 359.259 300.700,357.991 301.910,357.158 302.019 C 357.100 302.027,356.540 302.172,355.914 302.341 C 353.498 302.993,347.640 303.103,339.773 302.643 C 337.339 302.501,334.717 302.445,333.945 302.520 C 330.429 302.860,319.582 302.652,316.652 302.189 L 315.010 301.929 315.302 301.369 C 315.462 301.061,315.594 300.728,315.595 300.628 C 315.596 300.528,316.579 297.817,317.779 294.603 C 318.980 291.390,319.980 288.655,320.002 288.525 C 320.024 288.395,320.159 288.078,320.301 287.820 C 320.443 287.562,320.587 287.173,320.620 286.956 C 320.654 286.740,320.742 286.465,320.816 286.346 C 321.065 285.946,322.958 280.737,322.993 280.356 C 323.012 280.148,323.096 279.978,323.180 279.978 C 323.301 279.978,323.591 279.108,323.682 278.467 C 323.691 278.408,323.773 278.241,323.865 278.096 C 323.957 277.951,324.083 276.980,324.144 275.937 C 324.281 273.601,324.354 272.898,324.530 272.207 C 324.606 271.910,324.703 271.376,324.745 271.020 C 324.787 270.664,324.883 270.227,324.957 270.049 C 325.031 269.870,325.123 269.429,325.161 269.067 C 325.199 268.706,325.285 268.317,325.353 268.204 C 325.462 268.020,325.781 266.837,325.873 266.271 C 325.892 266.152,325.931 265.982,325.960 265.893 C 325.989 265.804,326.026 265.658,326.042 265.569 C 326.059 265.480,326.131 265.310,326.202 265.192 C 326.373 264.907,327.224 262.289,327.324 261.738 C 327.368 261.500,327.515 261.033,327.651 260.700 C 327.788 260.366,327.950 259.783,328.011 259.404 C 328.164 258.464,328.877 254.573,329.543 251.052 C 329.846 249.450,330.132 247.895,330.178 247.598 C 330.225 247.302,330.360 246.660,330.479 246.173 C 330.598 245.685,330.752 244.908,330.822 244.446 C 331.070 242.800,331.099 242.656,331.221 242.459 C 331.289 242.349,331.397 241.834,331.461 241.313 C 331.526 240.793,331.717 239.563,331.887 238.580 C 332.210 236.714,332.564 232.615,332.768 228.386 C 332.834 227.021,332.929 225.078,332.978 224.069 C 333.157 220.383,333.286 217.180,333.416 213.168 C 333.563 208.643,333.842 207.178,334.724 206.295 L 335.295 205.725 345.143 205.666 C 350.560 205.634,362.607 205.585,371.915 205.556 L 388.838 205.505 388.709 209.120 M88.162 313.101 L 89.222 313.181 89.810 314.766 C 90.880 317.655,91.679 319.143,92.921 320.561 C 93.596 321.333,94.501 322.547,94.931 323.260 C 95.362 323.972,95.792 324.587,95.889 324.627 C 95.985 324.667,96.013 324.781,95.952 324.880 C 95.891 324.979,95.963 325.191,96.112 325.352 C 96.262 325.513,96.416 325.787,96.456 325.961 C 96.495 326.135,96.624 326.338,96.744 326.412 C 96.863 326.485,96.954 326.632,96.945 326.738 C 96.912 327.138,97.178 327.685,97.406 327.685 C 97.537 327.685,97.583 327.745,97.510 327.819 C 97.257 328.071,101.134 335.102,102.009 335.977 C 102.197 336.166,102.297 336.319,102.231 336.319 C 101.490 336.319,114.546 354.088,116.308 355.478 C 116.496 355.626,116.578 355.747,116.490 355.747 C 116.318 355.747,117.395 357.263,117.754 357.525 C 117.873 357.612,117.896 357.685,117.806 357.687 C 117.265 357.698,121.021 362.655,121.570 362.655 C 121.659 362.655,122.184 363.139,122.738 363.731 C 123.291 364.323,123.829 364.754,123.933 364.690 C 124.038 364.625,124.123 364.667,124.123 364.783 C 124.123 364.969,129.103 369.581,135.456 375.280 C 138.637 378.133,138.391 378.396,133.941 376.901 C 132.578 376.443,131.461 376.135,131.459 376.215 C 131.457 376.296,131.385 376.266,131.297 376.147 C 131.210 376.028,129.827 375.407,128.225 374.767 C 126.622 374.126,124.290 373.115,123.044 372.520 C 121.797 371.925,120.704 371.454,120.615 371.472 C 120.526 371.491,120.453 371.419,120.453 371.313 C 120.453 370.810,117.442 369.090,115.848 368.681 C 113.835 368.166,110.957 366.939,108.787 365.671 C 107.902 365.155,107.178 364.764,107.178 364.805 C 107.178 364.845,106.935 364.672,106.638 364.420 C 103.880 362.084,102.850 361.356,101.837 361.028 C 100.254 360.514,99.424 359.969,98.676 358.951 C 98.184 358.283,97.643 357.907,96.385 357.360 C 93.619 356.158,89.858 353.689,86.323 350.756 C 85.776 350.301,85.266 349.992,85.190 350.068 C 85.114 350.145,85.051 350.111,85.051 349.993 C 85.051 349.728,79.360 345.170,79.030 345.170 C 78.898 345.170,78.791 345.087,78.791 344.985 C 78.791 344.884,77.893 344.020,76.794 343.066 C 75.696 342.112,73.778 340.278,72.531 338.991 C 71.284 337.705,69.639 336.019,68.874 335.245 C 68.110 334.470,67.499 333.775,67.517 333.700 C 67.535 333.625,66.970 333.011,66.263 332.336 C 65.555 331.660,64.976 331.062,64.976 331.006 C 64.976 330.796,57.996 323.344,57.602 323.134 C 57.377 323.013,57.241 322.836,57.300 322.740 C 57.360 322.644,56.696 321.874,55.825 321.030 C 54.954 320.186,54.275 319.461,54.315 319.421 C 54.356 319.380,53.471 318.360,52.349 317.153 C 49.556 314.151,49.414 313.474,51.501 313.102 C 52.686 312.891,85.364 312.890,88.162 313.101 M144.128 313.156 C 144.505 313.289,144.870 313.342,144.938 313.274 C 145.006 313.206,145.062 313.269,145.062 313.414 C 145.062 313.560,145.152 313.624,145.261 313.556 C 145.706 313.281,146.539 315.692,146.786 317.971 C 147.015 320.085,147.519 322.545,147.824 323.038 C 147.896 323.156,147.969 323.399,147.985 323.580 C 148.013 323.898,149.058 327.468,149.312 328.117 C 149.382 328.295,149.467 328.586,149.501 328.764 C 149.536 328.942,149.806 330.227,150.102 331.619 C 150.399 333.012,150.708 335.052,150.790 336.153 C 150.932 338.062,152.238 341.925,152.898 342.388 C 153.001 342.461,153.070 342.584,153.051 342.661 C 152.963 343.020,153.324 344.091,153.534 344.091 C 153.663 344.091,153.713 344.146,153.645 344.214 C 153.546 344.314,155.484 350.449,155.993 351.646 C 156.069 351.824,156.152 352.115,156.178 352.294 C 156.204 352.472,156.618 353.929,157.097 355.532 C 157.576 357.134,158.312 359.611,158.731 361.036 C 159.929 365.103,165.090 375.517,166.298 376.305 C 166.431 376.393,166.459 376.465,166.358 376.467 C 166.193 376.470,167.192 378.372,167.493 378.629 C 167.563 378.689,167.637 378.834,167.658 378.953 C 167.680 379.072,168.176 379.995,168.762 381.004 C 170.004 383.144,169.994 383.008,168.883 382.625 C 168.399 382.458,167.772 382.289,167.488 382.249 C 167.205 382.208,166.221 381.812,165.303 381.367 C 164.384 380.923,163.559 380.547,163.468 380.533 C 163.377 380.519,163.184 380.352,163.040 380.162 C 162.895 379.972,162.774 379.885,162.770 379.968 C 162.766 380.051,162.508 379.883,162.196 379.594 C 161.885 379.305,161.545 379.122,161.441 379.186 C 161.337 379.250,161.252 379.214,161.252 379.105 C 161.252 378.550,156.296 375.876,156.284 376.424 C 156.282 376.509,156.209 376.479,156.122 376.357 C 155.970 376.144,154.157 375.270,153.920 375.295 C 153.856 375.302,153.708 375.228,153.589 375.130 C 153.470 375.033,152.353 374.280,151.106 373.457 C 148.707 371.872,145.606 369.447,141.182 365.695 C 139.700 364.439,138.438 363.407,138.375 363.403 C 138.172 363.390,127.361 352.567,127.359 352.374 C 127.357 352.270,126.792 351.578,126.102 350.834 C 125.411 350.091,124.883 349.447,124.928 349.402 C 124.973 349.357,124.779 349.140,124.498 348.918 C 124.216 348.697,123.956 348.419,123.919 348.300 C 123.800 347.920,121.908 345.602,121.717 345.602 C 121.615 345.602,121.556 345.529,121.584 345.440 C 121.656 345.212,119.798 342.795,119.551 342.795 C 119.440 342.795,119.399 342.713,119.461 342.613 C 119.523 342.513,119.244 342.070,118.840 341.629 C 118.436 341.189,118.090 340.761,118.072 340.678 C 118.053 340.596,116.703 338.780,115.071 336.643 C 109.621 329.505,108.109 326.821,107.192 322.666 C 107.120 322.339,106.499 321.451,105.812 320.693 C 104.062 318.762,102.355 315.171,102.495 313.718 C 102.561 313.038,102.582 313.026,103.791 312.962 C 107.582 312.764,143.507 312.936,144.128 313.156 M275.941 313.107 L 297.267 313.114 297.122 313.654 C 297.043 313.950,296.974 314.315,296.969 314.463 C 296.964 314.611,296.896 314.733,296.817 314.733 C 296.663 314.733,294.716 318.736,294.612 319.266 C 294.578 319.444,294.498 319.638,294.434 319.698 C 294.371 319.757,294.039 320.486,293.696 321.317 C 292.735 323.648,290.862 327.328,289.589 329.385 C 288.956 330.409,288.414 331.344,288.385 331.462 C 288.356 331.581,288.217 331.775,288.076 331.894 C 287.586 332.307,285.400 335.625,285.531 335.756 C 285.604 335.828,285.564 335.888,285.442 335.888 C 285.321 335.888,284.800 336.495,284.284 337.237 C 281.484 341.265,276.985 346.899,273.349 350.932 C 272.365 352.023,271.559 352.946,271.558 352.983 C 271.552 353.228,264.663 360.163,261.487 363.121 C 256.083 368.154,253.664 370.122,249.325 373.016 C 248.198 373.768,247.215 374.473,247.143 374.582 C 247.070 374.691,246.952 374.748,246.880 374.708 C 246.808 374.668,246.527 374.826,246.256 375.058 C 245.985 375.290,245.715 375.462,245.656 375.441 C 245.596 375.420,244.722 375.825,243.713 376.340 C 242.704 376.855,241.417 377.449,240.853 377.659 C 240.289 377.869,239.827 378.124,239.827 378.227 C 239.827 378.329,239.751 378.389,239.658 378.359 C 239.412 378.281,236.589 380.153,236.589 380.394 C 236.589 380.506,236.492 380.537,236.373 380.464 C 236.255 380.391,236.158 380.434,236.158 380.559 C 236.158 380.685,236.085 380.769,235.996 380.745 C 235.728 380.674,234.862 381.021,234.862 381.198 C 234.862 381.289,234.741 381.364,234.593 381.364 C 234.444 381.365,233.837 381.590,233.243 381.864 C 232.650 382.138,232.063 382.386,231.938 382.413 C 231.814 382.441,230.794 382.808,229.672 383.228 C 226.986 384.233,223.069 385.414,220.999 385.841 C 219.411 386.170,218.252 386.277,218.836 386.041 C 218.985 385.981,219.052 385.843,218.985 385.734 C 218.918 385.626,218.971 385.537,219.104 385.537 C 219.237 385.537,219.291 385.448,219.223 385.340 C 219.156 385.231,219.180 385.110,219.276 385.070 C 219.810 384.849,227.765 371.079,227.364 371.071 C 227.273 371.069,227.307 370.996,227.439 370.909 C 227.570 370.822,228.189 369.584,228.814 368.160 C 229.438 366.735,230.383 364.723,230.912 363.689 C 231.442 362.655,231.843 361.774,231.804 361.731 C 231.764 361.688,231.902 361.483,232.110 361.275 C 232.441 360.944,232.596 360.431,232.434 360.206 C 232.404 360.165,232.492 359.995,232.629 359.828 C 232.848 359.562,234.071 355.661,234.286 354.542 C 234.330 354.315,234.436 353.966,234.523 353.768 C 234.609 353.569,234.706 353.278,234.738 353.120 C 234.771 352.962,234.868 352.671,234.954 352.472 C 235.041 352.274,235.135 351.982,235.165 351.825 C 235.194 351.667,235.372 351.183,235.561 350.748 C 236.977 347.485,241.074 333.050,240.869 332.047 C 240.852 331.963,240.891 331.749,240.955 331.570 C 241.070 331.253,242.916 323.683,242.982 323.260 C 243.000 323.141,243.027 322.971,243.040 322.882 C 243.054 322.793,243.041 322.686,243.011 322.645 C 242.982 322.604,243.091 322.410,243.254 322.213 C 243.417 322.017,243.497 321.856,243.432 321.856 C 243.367 321.856,243.701 321.153,244.173 320.294 C 245.006 318.778,245.030 318.677,244.966 316.941 L 244.900 315.150 246.195 314.456 C 246.908 314.074,247.562 313.664,247.649 313.546 C 247.736 313.427,247.809 313.396,247.811 313.477 C 247.813 313.557,248.130 313.526,248.516 313.407 C 249.412 313.130,253.365 312.828,254.074 312.983 C 254.371 313.048,264.211 313.104,275.941 313.107 M233.712 315.542 C 233.568 318.321,233.003 320.626,231.851 323.131 C 231.071 324.829,230.971 325.262,230.674 328.225 C 230.411 330.841,229.929 333.315,229.159 335.996 C 229.125 336.114,228.608 337.232,228.010 338.478 C 227.127 340.318,222.235 352.908,222.030 353.867 C 221.999 354.011,221.815 354.486,221.622 354.922 C 221.050 356.212,220.106 359.555,219.490 362.468 C 219.456 362.630,219.373 362.812,219.305 362.871 C 219.058 363.088,218.483 364.769,218.612 364.897 C 218.685 364.970,218.642 365.030,218.516 365.030 C 218.308 365.030,218.031 365.725,218.053 366.193 C 218.058 366.298,217.981 366.444,217.881 366.517 C 217.782 366.589,217.181 367.717,216.546 369.023 C 215.910 370.329,214.893 372.223,214.286 373.233 C 213.679 374.242,213.211 375.105,213.247 375.151 C 213.283 375.197,213.217 375.294,213.100 375.367 C 212.874 375.508,210.901 378.133,210.901 378.294 C 210.901 378.458,208.656 380.521,207.595 381.331 C 206.962 381.814,206.368 382.529,206.018 383.228 C 205.283 384.696,204.748 385.256,203.800 385.547 C 203.372 385.678,202.876 385.841,202.698 385.910 C 202.520 385.978,202.249 386.060,202.096 386.091 C 201.942 386.123,201.635 386.380,201.414 386.662 C 201.003 387.184,198.871 388.343,198.323 388.343 C 198.157 388.343,197.954 388.410,197.873 388.492 C 197.791 388.573,197.557 388.662,197.351 388.688 C 197.146 388.715,196.583 388.786,196.100 388.845 C 195.451 388.925,192.462 388.438,191.746 388.136 C 190.230 387.496,189.541 387.146,188.563 386.520 C 187.906 386.100,187.346 385.758,187.317 385.759 C 187.093 385.770,184.666 383.232,183.905 382.191 C 183.385 381.479,182.407 380.296,181.733 379.562 C 181.059 378.829,180.390 377.857,180.246 377.403 C 180.102 376.950,179.473 376.044,178.849 375.391 C 176.346 372.772,173.568 367.582,171.437 361.543 C 171.085 360.546,170.260 358.664,169.604 357.361 C 168.379 354.929,167.707 353.460,167.609 353.008 C 167.465 352.336,167.002 351.078,166.810 350.836 C 166.692 350.688,166.650 350.567,166.716 350.567 C 166.782 350.567,166.607 349.737,166.329 348.723 C 166.050 347.709,165.710 346.179,165.573 345.323 C 165.437 344.467,165.269 343.621,165.199 343.443 C 165.129 343.265,165.045 342.985,165.012 342.821 C 164.979 342.657,164.658 341.973,164.300 341.300 C 163.941 340.627,163.349 339.256,162.984 338.252 C 162.618 337.249,162.260 336.282,162.187 336.104 C 162.115 335.926,162.037 335.634,162.015 335.456 C 161.975 335.135,161.551 333.705,161.310 333.081 C 161.242 332.903,161.174 332.661,161.159 332.542 C 161.100 332.073,160.762 330.803,160.643 330.603 C 160.574 330.486,160.503 330.243,160.487 330.063 C 160.446 329.624,158.662 321.835,158.507 321.425 C 158.378 321.079,158.323 320.829,158.155 319.806 C 158.096 319.450,157.900 318.332,157.720 317.323 C 157.539 316.314,157.328 314.978,157.251 314.355 L 157.110 313.222 195.471 313.222 L 233.832 313.222 233.712 315.542 M349.820 313.988 C 349.317 315.193,347.213 318.311,345.412 320.522 C 344.507 321.633,343.670 322.693,343.551 322.878 C 343.432 323.063,343.032 323.516,342.662 323.884 C 342.292 324.253,341.233 325.380,340.310 326.390 C 338.591 328.269,332.434 334.560,332.434 334.436 C 332.434 334.399,329.690 336.863,326.336 339.914 C 320.450 345.266,316.448 348.619,311.698 352.176 C 310.459 353.105,309.319 354.021,309.165 354.212 C 309.012 354.404,308.842 354.537,308.789 354.509 C 308.735 354.480,307.501 355.244,306.046 356.206 C 303.353 357.985,301.206 359.159,299.828 359.606 C 299.406 359.742,298.629 360.244,298.101 360.722 C 296.533 362.139,294.862 363.400,293.254 364.380 C 292.423 364.887,291.684 365.394,291.611 365.508 C 291.538 365.621,291.416 365.703,291.339 365.690 C 291.261 365.677,289.614 366.446,287.679 367.399 C 285.744 368.352,284.045 369.131,283.904 369.131 C 283.763 369.131,283.648 369.212,283.648 369.311 C 283.648 369.410,283.523 369.491,283.369 369.491 C 282.904 369.491,279.988 370.664,279.675 370.977 C 279.514 371.138,279.324 371.211,279.254 371.141 C 279.183 371.070,279.064 371.171,278.989 371.366 C 278.915 371.560,278.782 371.674,278.693 371.620 C 278.605 371.565,278.348 371.693,278.122 371.903 C 277.897 372.113,277.638 372.303,277.549 372.325 C 277.459 372.347,276.344 372.863,275.071 373.472 C 273.798 374.082,271.637 375.017,270.269 375.549 C 268.901 376.082,267.661 376.617,267.512 376.737 C 267.364 376.857,267.242 376.906,267.242 376.846 C 267.242 376.786,266.446 376.968,265.473 377.251 C 263.734 377.757,261.414 377.945,261.414 377.581 C 261.414 377.479,261.980 377.046,262.672 376.619 C 263.863 375.884,270.998 369.412,271.163 368.918 C 271.253 368.648,275.661 364.183,275.661 364.362 C 275.661 364.429,276.786 363.367,278.160 362.004 C 280.479 359.703,285.767 353.264,285.645 352.890 C 285.615 352.800,285.677 352.725,285.783 352.725 C 286.196 352.725,293.744 342.534,293.632 342.128 C 293.602 342.020,293.662 341.932,293.765 341.932 C 293.868 341.932,294.209 341.543,294.524 341.069 C 294.838 340.594,295.050 340.205,294.994 340.205 C 294.939 340.205,295.130 339.950,295.419 339.638 C 295.708 339.326,295.892 338.987,295.828 338.883 C 295.764 338.779,295.793 338.694,295.893 338.694 C 296.090 338.694,296.852 337.502,296.807 337.266 C 296.791 337.188,296.872 337.064,296.985 336.991 C 297.333 336.769,298.953 333.995,298.816 333.858 C 298.745 333.787,298.785 333.729,298.904 333.729 C 299.121 333.729,300.317 331.711,300.262 331.438 C 300.246 331.359,300.328 331.235,300.444 331.163 C 300.742 330.976,303.526 326.174,303.339 326.170 C 303.254 326.169,303.291 326.096,303.423 326.009 C 303.808 325.753,305.869 322.347,305.725 322.203 C 305.653 322.131,305.695 322.072,305.818 322.072 C 306.265 322.072,309.093 316.419,310.057 313.600 C 310.179 313.243,311.331 313.222,330.163 313.222 L 350.141 313.222 349.820 313.988 " stroke="none" fill="#24242b" fill-rule="evenodd"></path><path id="path2" d="" stroke="none" fill="#2c3028" fill-rule="evenodd"></path><path id="path3" d="" stroke="none" fill="#2c3028" fill-rule="evenodd"></path><path id="path4" d="" stroke="none" fill="#2c3028" fill-rule="evenodd"></path></g></svg>